ISO-10303-21;
HEADER;
/* Generated by software containing ST-Developer
 * from STEP Tools, Inc. (www.steptools.com) 
 */

FILE_DESCRIPTION(
/* description */ (''),
/* implementation_level */ '2;1');

FILE_NAME(
/* name */ 'Box.step',
/* time_stamp */ '2026-04-11T15:10:51+01:00',
/* author */ (''),
/* organization */ (''),
/* preprocessor_version */ 'ST-DEVELOPER v20.1',
/* originating_system */ 'Autodesk Translation Framework v14.24.0.0',
/* authorisation */ '');

FILE_SCHEMA (('AUTOMOTIVE_DESIGN { 1 0 10303 214 3 1 1 }'));
ENDSEC;

DATA;
#10=MECHANICAL_DESIGN_GEOMETRIC_PRESENTATION_REPRESENTATION('',(#13),#1701);
#11=SHAPE_REPRESENTATION_RELATIONSHIP('SRR','None',#1708,#12);
#12=ADVANCED_BREP_SHAPE_REPRESENTATION('',(#14),#1700);
#13=STYLED_ITEM('',(#1718),#14);
#14=MANIFOLD_SOLID_BREP('Body1',#1053);
#15=FACE_BOUND('',#169,.T.);
#16=FACE_BOUND('',#170,.T.);
#17=FACE_BOUND('',#171,.T.);
#18=FACE_BOUND('',#174,.T.);
#19=FACE_BOUND('',#175,.T.);
#20=FACE_BOUND('',#176,.T.);
#21=FACE_BOUND('',#180,.T.);
#22=FACE_BOUND('',#181,.T.);
#23=FACE_BOUND('',#182,.T.);
#24=FACE_BOUND('',#183,.T.);
#25=PLANE('',#1070);
#26=PLANE('',#1071);
#27=PLANE('',#1075);
#28=PLANE('',#1079);
#29=PLANE('',#1083);
#30=PLANE('',#1087);
#31=PLANE('',#1088);
#32=PLANE('',#1089);
#33=PLANE('',#1090);
#34=PLANE('',#1091);
#35=PLANE('',#1092);
#36=PLANE('',#1093);
#37=PLANE('',#1094);
#38=PLANE('',#1095);
#39=PLANE('',#1096);
#40=PLANE('',#1097);
#41=PLANE('',#1098);
#42=PLANE('',#1099);
#43=PLANE('',#1100);
#44=PLANE('',#1101);
#45=PLANE('',#1102);
#46=PLANE('',#1105);
#47=PLANE('',#1108);
#48=PLANE('',#1109);
#49=PLANE('',#1112);
#50=PLANE('',#1113);
#51=PLANE('',#1114);
#52=PLANE('',#1115);
#53=PLANE('',#1116);
#54=PLANE('',#1117);
#55=PLANE('',#1118);
#56=PLANE('',#1119);
#57=PLANE('',#1120);
#58=PLANE('',#1121);
#59=PLANE('',#1122);
#60=PLANE('',#1123);
#61=PLANE('',#1124);
#62=PLANE('',#1125);
#63=PLANE('',#1126);
#64=PLANE('',#1127);
#65=PLANE('',#1128);
#66=PLANE('',#1129);
#67=PLANE('',#1130);
#68=PLANE('',#1131);
#69=PLANE('',#1132);
#70=PLANE('',#1133);
#71=PLANE('',#1134);
#72=FACE_OUTER_BOUND('',#126,.T.);
#73=FACE_OUTER_BOUND('',#127,.T.);
#74=FACE_OUTER_BOUND('',#128,.T.);
#75=FACE_OUTER_BOUND('',#129,.T.);
#76=FACE_OUTER_BOUND('',#130,.T.);
#77=FACE_OUTER_BOUND('',#131,.T.);
#78=FACE_OUTER_BOUND('',#132,.T.);
#79=FACE_OUTER_BOUND('',#133,.T.);
#80=FACE_OUTER_BOUND('',#134,.T.);
#81=FACE_OUTER_BOUND('',#135,.T.);
#82=FACE_OUTER_BOUND('',#136,.T.);
#83=FACE_OUTER_BOUND('',#137,.T.);
#84=FACE_OUTER_BOUND('',#138,.T.);
#85=FACE_OUTER_BOUND('',#139,.T.);
#86=FACE_OUTER_BOUND('',#140,.T.);
#87=FACE_OUTER_BOUND('',#141,.T.);
#88=FACE_OUTER_BOUND('',#142,.T.);
#89=FACE_OUTER_BOUND('',#143,.T.);
#90=FACE_OUTER_BOUND('',#144,.T.);
#91=FACE_OUTER_BOUND('',#145,.T.);
#92=FACE_OUTER_BOUND('',#146,.T.);
#93=FACE_OUTER_BOUND('',#147,.T.);
#94=FACE_OUTER_BOUND('',#148,.T.);
#95=FACE_OUTER_BOUND('',#149,.T.);
#96=FACE_OUTER_BOUND('',#150,.T.);
#97=FACE_OUTER_BOUND('',#151,.T.);
#98=FACE_OUTER_BOUND('',#152,.T.);
#99=FACE_OUTER_BOUND('',#153,.T.);
#100=FACE_OUTER_BOUND('',#154,.T.);
#101=FACE_OUTER_BOUND('',#155,.T.);
#102=FACE_OUTER_BOUND('',#156,.T.);
#103=FACE_OUTER_BOUND('',#157,.T.);
#104=FACE_OUTER_BOUND('',#158,.T.);
#105=FACE_OUTER_BOUND('',#159,.T.);
#106=FACE_OUTER_BOUND('',#160,.T.);
#107=FACE_OUTER_BOUND('',#161,.T.);
#108=FACE_OUTER_BOUND('',#162,.T.);
#109=FACE_OUTER_BOUND('',#163,.T.);
#110=FACE_OUTER_BOUND('',#164,.T.);
#111=FACE_OUTER_BOUND('',#165,.T.);
#112=FACE_OUTER_BOUND('',#166,.T.);
#113=FACE_OUTER_BOUND('',#167,.T.);
#114=FACE_OUTER_BOUND('',#168,.T.);
#115=FACE_OUTER_BOUND('',#172,.T.);
#116=FACE_OUTER_BOUND('',#173,.T.);
#117=FACE_OUTER_BOUND('',#177,.T.);
#118=FACE_OUTER_BOUND('',#178,.T.);
#119=FACE_OUTER_BOUND('',#179,.T.);
#120=FACE_OUTER_BOUND('',#184,.T.);
#121=FACE_OUTER_BOUND('',#185,.T.);
#122=FACE_OUTER_BOUND('',#186,.T.);
#123=FACE_OUTER_BOUND('',#187,.T.);
#124=FACE_OUTER_BOUND('',#188,.T.);
#125=FACE_OUTER_BOUND('',#189,.T.);
#126=EDGE_LOOP('',(#704,#705,#706,#707));
#127=EDGE_LOOP('',(#708,#709));
#128=EDGE_LOOP('',(#710,#711,#712,#713,#714,#715,#716,#717));
#129=EDGE_LOOP('',(#718,#719,#720,#721));
#130=EDGE_LOOP('',(#722));
#131=EDGE_LOOP('',(#723,#724,#725,#726));
#132=EDGE_LOOP('',(#727));
#133=EDGE_LOOP('',(#728,#729,#730,#731));
#134=EDGE_LOOP('',(#732));
#135=EDGE_LOOP('',(#733,#734,#735,#736));
#136=EDGE_LOOP('',(#737));
#137=EDGE_LOOP('',(#738,#739,#740,#741));
#138=EDGE_LOOP('',(#742,#743,#744,#745));
#139=EDGE_LOOP('',(#746,#747,#748,#749));
#140=EDGE_LOOP('',(#750,#751,#752,#753));
#141=EDGE_LOOP('',(#754,#755,#756,#757));
#142=EDGE_LOOP('',(#758,#759,#760,#761));
#143=EDGE_LOOP('',(#762,#763,#764,#765));
#144=EDGE_LOOP('',(#766,#767,#768,#769));
#145=EDGE_LOOP('',(#770,#771,#772,#773));
#146=EDGE_LOOP('',(#774,#775,#776,#777));
#147=EDGE_LOOP('',(#778,#779,#780,#781));
#148=EDGE_LOOP('',(#782,#783,#784,#785));
#149=EDGE_LOOP('',(#786,#787,#788,#789));
#150=EDGE_LOOP('',(#790,#791,#792,#793,#794,#795,#796,#797));
#151=EDGE_LOOP('',(#798,#799,#800,#801,#802,#803,#804,#805,#806,#807,#808,
#809,#810,#811,#812,#813,#814,#815,#816,#817,#818,#819,#820,#821));
#152=EDGE_LOOP('',(#822,#823,#824,#825));
#153=EDGE_LOOP('',(#826,#827,#828,#829));
#154=EDGE_LOOP('',(#830,#831,#832,#833,#834,#835,#836,#837,#838,#839,#840,
#841,#842,#843));
#155=EDGE_LOOP('',(#844,#845,#846,#847,#848,#849,#850,#851,#852,#853,#854,
#855,#856,#857));
#156=EDGE_LOOP('',(#858,#859,#860,#861));
#157=EDGE_LOOP('',(#862,#863,#864,#865));
#158=EDGE_LOOP('',(#866,#867,#868,#869));
#159=EDGE_LOOP('',(#870,#871,#872,#873));
#160=EDGE_LOOP('',(#874,#875,#876,#877));
#161=EDGE_LOOP('',(#878,#879,#880,#881));
#162=EDGE_LOOP('',(#882,#883,#884,#885));
#163=EDGE_LOOP('',(#886,#887,#888,#889));
#164=EDGE_LOOP('',(#890,#891,#892,#893));
#165=EDGE_LOOP('',(#894,#895,#896,#897,#898,#899));
#166=EDGE_LOOP('',(#900,#901,#902,#903));
#167=EDGE_LOOP('',(#904,#905,#906,#907));
#168=EDGE_LOOP('',(#908,#909,#910,#911));
#169=EDGE_LOOP('',(#912,#913,#914,#915));
#170=EDGE_LOOP('',(#916,#917,#918,#919));
#171=EDGE_LOOP('',(#920,#921,#922,#923));
#172=EDGE_LOOP('',(#924,#925,#926,#927));
#173=EDGE_LOOP('',(#928,#929,#930,#931));
#174=EDGE_LOOP('',(#932,#933,#934,#935));
#175=EDGE_LOOP('',(#936,#937,#938,#939));
#176=EDGE_LOOP('',(#940,#941,#942,#943));
#177=EDGE_LOOP('',(#944,#945,#946,#947));
#178=EDGE_LOOP('',(#948,#949,#950,#951));
#179=EDGE_LOOP('',(#952,#953,#954,#955));
#180=EDGE_LOOP('',(#956));
#181=EDGE_LOOP('',(#957));
#182=EDGE_LOOP('',(#958));
#183=EDGE_LOOP('',(#959));
#184=EDGE_LOOP('',(#960,#961,#962,#963));
#185=EDGE_LOOP('',(#964,#965,#966,#967));
#186=EDGE_LOOP('',(#968,#969,#970,#971));
#187=EDGE_LOOP('',(#972,#973,#974,#975,#976,#977,#978,#979));
#188=EDGE_LOOP('',(#980,#981,#982,#983));
#189=EDGE_LOOP('',(#984,#985,#986,#987,#988,#989,#990,#991));
#190=CIRCLE('',#1069,0.8);
#191=CIRCLE('',#1073,1.);
#192=CIRCLE('',#1074,1.);
#193=CIRCLE('',#1077,1.);
#194=CIRCLE('',#1078,1.);
#195=CIRCLE('',#1081,0.999999999999996);
#196=CIRCLE('',#1082,0.999999999999996);
#197=CIRCLE('',#1085,1.);
#198=CIRCLE('',#1086,1.);
#199=CIRCLE('',#1103,1.);
#200=CIRCLE('',#1104,1.);
#201=CIRCLE('',#1107,1.);
#202=CIRCLE('',#1110,1.);
#203=LINE('',#1409,#333);
#204=LINE('',#1412,#334);
#205=LINE('',#1414,#335);
#206=LINE('',#1417,#336);
#207=LINE('',#1419,#337);
#208=LINE('',#1421,#338);
#209=LINE('',#1423,#339);
#210=LINE('',#1425,#340);
#211=LINE('',#1427,#341);
#212=LINE('',#1428,#342);
#213=LINE('',#1433,#343);
#214=LINE('',#1440,#344);
#215=LINE('',#1447,#345);
#216=LINE('',#1454,#346);
#217=LINE('',#1460,#347);
#218=LINE('',#1462,#348);
#219=LINE('',#1464,#349);
#220=LINE('',#1465,#350);
#221=LINE('',#1468,#351);
#222=LINE('',#1470,#352);
#223=LINE('',#1471,#353);
#224=LINE('',#1474,#354);
#225=LINE('',#1476,#355);
#226=LINE('',#1477,#356);
#227=LINE('',#1479,#357);
#228=LINE('',#1480,#358);
#229=LINE('',#1484,#359);
#230=LINE('',#1486,#360);
#231=LINE('',#1488,#361);
#232=LINE('',#1489,#362);
#233=LINE('',#1492,#363);
#234=LINE('',#1494,#364);
#235=LINE('',#1495,#365);
#236=LINE('',#1498,#366);
#237=LINE('',#1500,#367);
#238=LINE('',#1501,#368);
#239=LINE('',#1503,#369);
#240=LINE('',#1504,#370);
#241=LINE('',#1508,#371);
#242=LINE('',#1510,#372);
#243=LINE('',#1512,#373);
#244=LINE('',#1513,#374);
#245=LINE('',#1516,#375);
#246=LINE('',#1518,#376);
#247=LINE('',#1519,#377);
#248=LINE('',#1522,#378);
#249=LINE('',#1524,#379);
#250=LINE('',#1525,#380);
#251=LINE('',#1527,#381);
#252=LINE('',#1528,#382);
#253=LINE('',#1531,#383);
#254=LINE('',#1533,#384);
#255=LINE('',#1534,#385);
#256=LINE('',#1537,#386);
#257=LINE('',#1538,#387);
#258=LINE('',#1541,#388);
#259=LINE('',#1543,#389);
#260=LINE('',#1545,#390);
#261=LINE('',#1547,#391);
#262=LINE('',#1549,#392);
#263=LINE('',#1551,#393);
#264=LINE('',#1553,#394);
#265=LINE('',#1555,#395);
#266=LINE('',#1559,#396);
#267=LINE('',#1561,#397);
#268=LINE('',#1563,#398);
#269=LINE('',#1565,#399);
#270=LINE('',#1567,#400);
#271=LINE('',#1571,#401);
#272=LINE('',#1573,#402);
#273=LINE('',#1575,#403);
#274=LINE('',#1577,#404);
#275=LINE('',#1579,#405);
#276=LINE('',#1581,#406);
#277=LINE('',#1582,#407);
#278=LINE('',#1585,#408);
#279=LINE('',#1587,#409);
#280=LINE('',#1588,#410);
#281=LINE('',#1592,#411);
#282=LINE('',#1595,#412);
#283=LINE('',#1597,#413);
#284=LINE('',#1599,#414);
#285=LINE('',#1601,#415);
#286=LINE('',#1603,#416);
#287=LINE('',#1605,#417);
#288=LINE('',#1607,#418);
#289=LINE('',#1609,#419);
#290=LINE('',#1611,#420);
#291=LINE('',#1613,#421);
#292=LINE('',#1615,#422);
#293=LINE('',#1616,#423);
#294=LINE('',#1622,#424);
#295=LINE('',#1624,#425);
#296=LINE('',#1626,#426);
#297=LINE('',#1628,#427);
#298=LINE('',#1629,#428);
#299=LINE('',#1631,#429);
#300=LINE('',#1633,#430);
#301=LINE('',#1635,#431);
#302=LINE('',#1637,#432);
#303=LINE('',#1639,#433);
#304=LINE('',#1641,#434);
#305=LINE('',#1642,#435);
#306=LINE('',#1644,#436);
#307=LINE('',#1645,#437);
#308=LINE('',#1647,#438);
#309=LINE('',#1649,#439);
#310=LINE('',#1651,#440);
#311=LINE('',#1653,#441);
#312=LINE('',#1655,#442);
#313=LINE('',#1657,#443);
#314=LINE('',#1659,#444);
#315=LINE('',#1661,#445);
#316=LINE('',#1663,#446);
#317=LINE('',#1664,#447);
#318=LINE('',#1666,#448);
#319=LINE('',#1668,#449);
#320=LINE('',#1671,#450);
#321=LINE('',#1673,#451);
#322=LINE('',#1674,#452);
#323=LINE('',#1677,#453);
#324=LINE('',#1679,#454);
#325=LINE('',#1680,#455);
#326=LINE('',#1682,#456);
#327=LINE('',#1683,#457);
#328=LINE('',#1687,#458);
#329=LINE('',#1688,#459);
#330=LINE('',#1690,#460);
#331=LINE('',#1694,#461);
#332=LINE('',#1696,#462);
#333=VECTOR('',#1141,10.);
#334=VECTOR('',#1144,10.);
#335=VECTOR('',#1147,10.);
#336=VECTOR('',#1150,10.);
#337=VECTOR('',#1151,10.);
#338=VECTOR('',#1152,10.);
#339=VECTOR('',#1153,10.);
#340=VECTOR('',#1154,10.);
#341=VECTOR('',#1155,10.);
#342=VECTOR('',#1156,10.);
#343=VECTOR('',#1161,1.);
#344=VECTOR('',#1170,1.);
#345=VECTOR('',#1179,0.999999999999996);
#346=VECTOR('',#1188,1.);
#347=VECTOR('',#1195,10.);
#348=VECTOR('',#1196,10.);
#349=VECTOR('',#1197,10.);
#350=VECTOR('',#1198,10.);
#351=VECTOR('',#1201,10.);
#352=VECTOR('',#1202,10.);
#353=VECTOR('',#1203,10.);
#354=VECTOR('',#1206,10.);
#355=VECTOR('',#1207,10.);
#356=VECTOR('',#1208,10.);
#357=VECTOR('',#1211,10.);
#358=VECTOR('',#1212,10.);
#359=VECTOR('',#1215,10.);
#360=VECTOR('',#1216,10.);
#361=VECTOR('',#1217,10.);
#362=VECTOR('',#1218,10.);
#363=VECTOR('',#1221,10.);
#364=VECTOR('',#1222,10.);
#365=VECTOR('',#1223,10.);
#366=VECTOR('',#1226,10.);
#367=VECTOR('',#1227,10.);
#368=VECTOR('',#1228,10.);
#369=VECTOR('',#1231,10.);
#370=VECTOR('',#1232,10.);
#371=VECTOR('',#1235,10.);
#372=VECTOR('',#1236,10.);
#373=VECTOR('',#1237,10.);
#374=VECTOR('',#1238,10.);
#375=VECTOR('',#1241,10.);
#376=VECTOR('',#1242,10.);
#377=VECTOR('',#1243,10.);
#378=VECTOR('',#1246,10.);
#379=VECTOR('',#1247,10.);
#380=VECTOR('',#1248,10.);
#381=VECTOR('',#1251,10.);
#382=VECTOR('',#1252,10.);
#383=VECTOR('',#1255,10.);
#384=VECTOR('',#1256,10.);
#385=VECTOR('',#1257,10.);
#386=VECTOR('',#1260,10.);
#387=VECTOR('',#1261,10.);
#388=VECTOR('',#1264,10.);
#389=VECTOR('',#1265,10.);
#390=VECTOR('',#1266,10.);
#391=VECTOR('',#1267,10.);
#392=VECTOR('',#1268,10.);
#393=VECTOR('',#1269,10.);
#394=VECTOR('',#1270,10.);
#395=VECTOR('',#1271,10.);
#396=VECTOR('',#1274,10.);
#397=VECTOR('',#1275,10.);
#398=VECTOR('',#1276,10.);
#399=VECTOR('',#1277,10.);
#400=VECTOR('',#1278,10.);
#401=VECTOR('',#1281,10.);
#402=VECTOR('',#1282,10.);
#403=VECTOR('',#1283,10.);
#404=VECTOR('',#1284,10.);
#405=VECTOR('',#1285,10.);
#406=VECTOR('',#1286,10.);
#407=VECTOR('',#1287,10.);
#408=VECTOR('',#1290,10.);
#409=VECTOR('',#1291,10.);
#410=VECTOR('',#1292,10.);
#411=VECTOR('',#1297,10.);
#412=VECTOR('',#1300,10.);
#413=VECTOR('',#1301,10.);
#414=VECTOR('',#1302,10.);
#415=VECTOR('',#1303,10.);
#416=VECTOR('',#1304,10.);
#417=VECTOR('',#1305,10.);
#418=VECTOR('',#1306,10.);
#419=VECTOR('',#1307,10.);
#420=VECTOR('',#1308,10.);
#421=VECTOR('',#1309,10.);
#422=VECTOR('',#1310,10.);
#423=VECTOR('',#1311,10.);
#424=VECTOR('',#1316,10.);
#425=VECTOR('',#1317,10.);
#426=VECTOR('',#1318,10.);
#427=VECTOR('',#1319,10.);
#428=VECTOR('',#1320,10.);
#429=VECTOR('',#1321,10.);
#430=VECTOR('',#1322,10.);
#431=VECTOR('',#1323,10.);
#432=VECTOR('',#1324,10.);
#433=VECTOR('',#1325,10.);
#434=VECTOR('',#1326,10.);
#435=VECTOR('',#1327,10.);
#436=VECTOR('',#1330,10.);
#437=VECTOR('',#1331,10.);
#438=VECTOR('',#1334,10.);
#439=VECTOR('',#1337,10.);
#440=VECTOR('',#1340,10.);
#441=VECTOR('',#1343,10.);
#442=VECTOR('',#1346,10.);
#443=VECTOR('',#1349,10.);
#444=VECTOR('',#1352,10.);
#445=VECTOR('',#1355,10.);
#446=VECTOR('',#1358,10.);
#447=VECTOR('',#1359,10.);
#448=VECTOR('',#1362,10.);
#449=VECTOR('',#1365,10.);
#450=VECTOR('',#1368,10.);
#451=VECTOR('',#1369,10.);
#452=VECTOR('',#1370,10.);
#453=VECTOR('',#1373,10.);
#454=VECTOR('',#1374,10.);
#455=VECTOR('',#1375,10.);
#456=VECTOR('',#1378,10.);
#457=VECTOR('',#1379,10.);
#458=VECTOR('',#1386,10.);
#459=VECTOR('',#1387,10.);
#460=VECTOR('',#1390,10.);
#461=VECTOR('',#1397,10.);
#462=VECTOR('',#1400,10.);
#463=ELLIPSE('',#1068,0.800001814025368,0.8);
#464=VERTEX_POINT('',#1405);
#465=VERTEX_POINT('',#1406);
#466=VERTEX_POINT('',#1408);
#467=VERTEX_POINT('',#1410);
#468=VERTEX_POINT('',#1416);
#469=VERTEX_POINT('',#1418);
#470=VERTEX_POINT('',#1420);
#471=VERTEX_POINT('',#1422);
#472=VERTEX_POINT('',#1424);
#473=VERTEX_POINT('',#1426);
#474=VERTEX_POINT('',#1430);
#475=VERTEX_POINT('',#1432);
#476=VERTEX_POINT('',#1437);
#477=VERTEX_POINT('',#1439);
#478=VERTEX_POINT('',#1444);
#479=VERTEX_POINT('',#1446);
#480=VERTEX_POINT('',#1451);
#481=VERTEX_POINT('',#1453);
#482=VERTEX_POINT('',#1458);
#483=VERTEX_POINT('',#1459);
#484=VERTEX_POINT('',#1461);
#485=VERTEX_POINT('',#1463);
#486=VERTEX_POINT('',#1467);
#487=VERTEX_POINT('',#1469);
#488=VERTEX_POINT('',#1473);
#489=VERTEX_POINT('',#1475);
#490=VERTEX_POINT('',#1482);
#491=VERTEX_POINT('',#1483);
#492=VERTEX_POINT('',#1485);
#493=VERTEX_POINT('',#1487);
#494=VERTEX_POINT('',#1491);
#495=VERTEX_POINT('',#1493);
#496=VERTEX_POINT('',#1497);
#497=VERTEX_POINT('',#1499);
#498=VERTEX_POINT('',#1506);
#499=VERTEX_POINT('',#1507);
#500=VERTEX_POINT('',#1509);
#501=VERTEX_POINT('',#1511);
#502=VERTEX_POINT('',#1515);
#503=VERTEX_POINT('',#1517);
#504=VERTEX_POINT('',#1521);
#505=VERTEX_POINT('',#1523);
#506=VERTEX_POINT('',#1530);
#507=VERTEX_POINT('',#1532);
#508=VERTEX_POINT('',#1536);
#509=VERTEX_POINT('',#1540);
#510=VERTEX_POINT('',#1542);
#511=VERTEX_POINT('',#1544);
#512=VERTEX_POINT('',#1546);
#513=VERTEX_POINT('',#1548);
#514=VERTEX_POINT('',#1550);
#515=VERTEX_POINT('',#1552);
#516=VERTEX_POINT('',#1554);
#517=VERTEX_POINT('',#1556);
#518=VERTEX_POINT('',#1558);
#519=VERTEX_POINT('',#1560);
#520=VERTEX_POINT('',#1562);
#521=VERTEX_POINT('',#1564);
#522=VERTEX_POINT('',#1566);
#523=VERTEX_POINT('',#1568);
#524=VERTEX_POINT('',#1570);
#525=VERTEX_POINT('',#1572);
#526=VERTEX_POINT('',#1574);
#527=VERTEX_POINT('',#1576);
#528=VERTEX_POINT('',#1578);
#529=VERTEX_POINT('',#1580);
#530=VERTEX_POINT('',#1584);
#531=VERTEX_POINT('',#1586);
#532=VERTEX_POINT('',#1590);
#533=VERTEX_POINT('',#1594);
#534=VERTEX_POINT('',#1596);
#535=VERTEX_POINT('',#1598);
#536=VERTEX_POINT('',#1600);
#537=VERTEX_POINT('',#1602);
#538=VERTEX_POINT('',#1604);
#539=VERTEX_POINT('',#1606);
#540=VERTEX_POINT('',#1608);
#541=VERTEX_POINT('',#1610);
#542=VERTEX_POINT('',#1612);
#543=VERTEX_POINT('',#1614);
#544=VERTEX_POINT('',#1618);
#545=VERTEX_POINT('',#1619);
#546=VERTEX_POINT('',#1621);
#547=VERTEX_POINT('',#1623);
#548=VERTEX_POINT('',#1625);
#549=VERTEX_POINT('',#1627);
#550=VERTEX_POINT('',#1630);
#551=VERTEX_POINT('',#1632);
#552=VERTEX_POINT('',#1634);
#553=VERTEX_POINT('',#1636);
#554=VERTEX_POINT('',#1638);
#555=VERTEX_POINT('',#1640);
#556=VERTEX_POINT('',#1670);
#557=VERTEX_POINT('',#1672);
#558=VERTEX_POINT('',#1676);
#559=VERTEX_POINT('',#1678);
#560=EDGE_CURVE('',#464,#465,#463,.T.);
#561=EDGE_CURVE('',#466,#464,#203,.T.);
#562=EDGE_CURVE('',#466,#467,#190,.T.);
#563=EDGE_CURVE('',#465,#467,#204,.T.);
#564=EDGE_CURVE('',#467,#466,#205,.T.);
#565=EDGE_CURVE('',#465,#468,#206,.T.);
#566=EDGE_CURVE('',#469,#468,#207,.T.);
#567=EDGE_CURVE('',#470,#469,#208,.T.);
#568=EDGE_CURVE('',#470,#471,#209,.T.);
#569=EDGE_CURVE('',#471,#472,#210,.T.);
#570=EDGE_CURVE('',#472,#473,#211,.T.);
#571=EDGE_CURVE('',#473,#464,#212,.T.);
#572=EDGE_CURVE('',#474,#474,#191,.T.);
#573=EDGE_CURVE('',#474,#475,#213,.T.);
#574=EDGE_CURVE('',#475,#475,#192,.T.);
#575=EDGE_CURVE('',#476,#476,#193,.T.);
#576=EDGE_CURVE('',#476,#477,#214,.T.);
#577=EDGE_CURVE('',#477,#477,#194,.T.);
#578=EDGE_CURVE('',#478,#478,#195,.T.);
#579=EDGE_CURVE('',#478,#479,#215,.T.);
#580=EDGE_CURVE('',#479,#479,#196,.T.);
#581=EDGE_CURVE('',#480,#480,#197,.T.);
#582=EDGE_CURVE('',#480,#481,#216,.T.);
#583=EDGE_CURVE('',#481,#481,#198,.T.);
#584=EDGE_CURVE('',#482,#483,#217,.T.);
#585=EDGE_CURVE('',#484,#482,#218,.T.);
#586=EDGE_CURVE('',#485,#484,#219,.T.);
#587=EDGE_CURVE('',#485,#483,#220,.T.);
#588=EDGE_CURVE('',#483,#486,#221,.T.);
#589=EDGE_CURVE('',#487,#485,#222,.T.);
#590=EDGE_CURVE('',#487,#486,#223,.T.);
#591=EDGE_CURVE('',#486,#488,#224,.T.);
#592=EDGE_CURVE('',#489,#487,#225,.T.);
#593=EDGE_CURVE('',#489,#488,#226,.T.);
#594=EDGE_CURVE('',#488,#482,#227,.T.);
#595=EDGE_CURVE('',#484,#489,#228,.T.);
#596=EDGE_CURVE('',#490,#491,#229,.T.);
#597=EDGE_CURVE('',#492,#490,#230,.T.);
#598=EDGE_CURVE('',#493,#492,#231,.T.);
#599=EDGE_CURVE('',#493,#491,#232,.T.);
#600=EDGE_CURVE('',#491,#494,#233,.T.);
#601=EDGE_CURVE('',#495,#493,#234,.T.);
#602=EDGE_CURVE('',#495,#494,#235,.T.);
#603=EDGE_CURVE('',#494,#496,#236,.T.);
#604=EDGE_CURVE('',#497,#495,#237,.T.);
#605=EDGE_CURVE('',#497,#496,#238,.T.);
#606=EDGE_CURVE('',#496,#490,#239,.T.);
#607=EDGE_CURVE('',#492,#497,#240,.T.);
#608=EDGE_CURVE('',#498,#499,#241,.T.);
#609=EDGE_CURVE('',#500,#498,#242,.T.);
#610=EDGE_CURVE('',#501,#500,#243,.T.);
#611=EDGE_CURVE('',#501,#499,#244,.T.);
#612=EDGE_CURVE('',#499,#502,#245,.T.);
#613=EDGE_CURVE('',#503,#501,#246,.T.);
#614=EDGE_CURVE('',#503,#502,#247,.T.);
#615=EDGE_CURVE('',#502,#504,#248,.T.);
#616=EDGE_CURVE('',#505,#503,#249,.T.);
#617=EDGE_CURVE('',#505,#504,#250,.T.);
#618=EDGE_CURVE('',#504,#498,#251,.T.);
#619=EDGE_CURVE('',#500,#505,#252,.T.);
#620=EDGE_CURVE('',#472,#506,#253,.T.);
#621=EDGE_CURVE('',#507,#506,#254,.T.);
#622=EDGE_CURVE('',#473,#507,#255,.T.);
#623=EDGE_CURVE('',#508,#507,#256,.T.);
#624=EDGE_CURVE('',#468,#508,#257,.T.);
#625=EDGE_CURVE('',#508,#509,#258,.T.);
#626=EDGE_CURVE('',#509,#510,#259,.T.);
#627=EDGE_CURVE('',#510,#511,#260,.T.);
#628=EDGE_CURVE('',#511,#512,#261,.T.);
#629=EDGE_CURVE('',#512,#513,#262,.T.);
#630=EDGE_CURVE('',#513,#514,#263,.T.);
#631=EDGE_CURVE('',#514,#515,#264,.T.);
#632=EDGE_CURVE('',#515,#516,#265,.T.);
#633=EDGE_CURVE('',#517,#516,#199,.F.);
#634=EDGE_CURVE('',#517,#518,#266,.T.);
#635=EDGE_CURVE('',#518,#519,#267,.T.);
#636=EDGE_CURVE('',#519,#520,#268,.F.);
#637=EDGE_CURVE('',#521,#520,#269,.T.);
#638=EDGE_CURVE('',#521,#522,#270,.T.);
#639=EDGE_CURVE('',#523,#522,#200,.F.);
#640=EDGE_CURVE('',#523,#524,#271,.T.);
#641=EDGE_CURVE('',#525,#524,#272,.T.);
#642=EDGE_CURVE('',#525,#526,#273,.T.);
#643=EDGE_CURVE('',#526,#527,#274,.T.);
#644=EDGE_CURVE('',#527,#528,#275,.T.);
#645=EDGE_CURVE('',#529,#528,#276,.T.);
#646=EDGE_CURVE('',#529,#469,#277,.T.);
#647=EDGE_CURVE('',#516,#530,#278,.T.);
#648=EDGE_CURVE('',#531,#515,#279,.T.);
#649=EDGE_CURVE('',#531,#530,#280,.T.);
#650=EDGE_CURVE('',#530,#532,#201,.T.);
#651=EDGE_CURVE('',#532,#517,#281,.T.);
#652=EDGE_CURVE('',#533,#531,#282,.T.);
#653=EDGE_CURVE('',#534,#533,#283,.T.);
#654=EDGE_CURVE('',#535,#534,#284,.T.);
#655=EDGE_CURVE('',#536,#535,#285,.T.);
#656=EDGE_CURVE('',#537,#536,#286,.T.);
#657=EDGE_CURVE('',#537,#538,#287,.T.);
#658=EDGE_CURVE('',#538,#539,#288,.T.);
#659=EDGE_CURVE('',#540,#539,#289,.T.);
#660=EDGE_CURVE('',#540,#541,#290,.T.);
#661=EDGE_CURVE('',#541,#542,#291,.F.);
#662=EDGE_CURVE('',#543,#542,#292,.T.);
#663=EDGE_CURVE('',#543,#532,#293,.T.);
#664=EDGE_CURVE('',#544,#545,#202,.T.);
#665=EDGE_CURVE('',#544,#546,#294,.T.);
#666=EDGE_CURVE('',#547,#546,#295,.T.);
#667=EDGE_CURVE('',#547,#548,#296,.F.);
#668=EDGE_CURVE('',#549,#548,#297,.T.);
#669=EDGE_CURVE('',#549,#471,#298,.T.);
#670=EDGE_CURVE('',#470,#550,#299,.T.);
#671=EDGE_CURVE('',#551,#550,#300,.T.);
#672=EDGE_CURVE('',#552,#551,#301,.T.);
#673=EDGE_CURVE('',#552,#553,#302,.T.);
#674=EDGE_CURVE('',#554,#553,#303,.T.);
#675=EDGE_CURVE('',#555,#554,#304,.T.);
#676=EDGE_CURVE('',#545,#555,#305,.T.);
#677=EDGE_CURVE('',#545,#523,#306,.T.);
#678=EDGE_CURVE('',#522,#544,#307,.T.);
#679=EDGE_CURVE('',#546,#521,#308,.T.);
#680=EDGE_CURVE('',#524,#555,#309,.T.);
#681=EDGE_CURVE('',#520,#547,#310,.F.);
#682=EDGE_CURVE('',#518,#543,#311,.T.);
#683=EDGE_CURVE('',#542,#519,#312,.F.);
#684=EDGE_CURVE('',#514,#533,#313,.T.);
#685=EDGE_CURVE('',#550,#529,#314,.T.);
#686=EDGE_CURVE('',#528,#551,#315,.T.);
#687=EDGE_CURVE('',#506,#539,#316,.T.);
#688=EDGE_CURVE('',#509,#538,#317,.T.);
#689=EDGE_CURVE('',#510,#537,#318,.T.);
#690=EDGE_CURVE('',#536,#511,#319,.T.);
#691=EDGE_CURVE('',#556,#540,#320,.T.);
#692=EDGE_CURVE('',#556,#557,#321,.T.);
#693=EDGE_CURVE('',#557,#541,#322,.F.);
#694=EDGE_CURVE('',#558,#556,#323,.T.);
#695=EDGE_CURVE('',#558,#559,#324,.T.);
#696=EDGE_CURVE('',#559,#557,#325,.F.);
#697=EDGE_CURVE('',#512,#535,#326,.T.);
#698=EDGE_CURVE('',#513,#534,#327,.T.);
#699=EDGE_CURVE('',#552,#527,#328,.T.);
#700=EDGE_CURVE('',#553,#526,#329,.T.);
#701=EDGE_CURVE('',#554,#525,#330,.T.);
#702=EDGE_CURVE('',#549,#558,#331,.T.);
#703=EDGE_CURVE('',#548,#559,#332,.F.);
#704=ORIENTED_EDGE('',*,*,#560,.F.);
#705=ORIENTED_EDGE('',*,*,#561,.F.);
#706=ORIENTED_EDGE('',*,*,#562,.T.);
#707=ORIENTED_EDGE('',*,*,#563,.F.);
#708=ORIENTED_EDGE('',*,*,#562,.F.);
#709=ORIENTED_EDGE('',*,*,#564,.F.);
#710=ORIENTED_EDGE('',*,*,#560,.T.);
#711=ORIENTED_EDGE('',*,*,#565,.T.);
#712=ORIENTED_EDGE('',*,*,#566,.F.);
#713=ORIENTED_EDGE('',*,*,#567,.F.);
#714=ORIENTED_EDGE('',*,*,#568,.T.);
#715=ORIENTED_EDGE('',*,*,#569,.T.);
#716=ORIENTED_EDGE('',*,*,#570,.T.);
#717=ORIENTED_EDGE('',*,*,#571,.T.);
#718=ORIENTED_EDGE('',*,*,#572,.T.);
#719=ORIENTED_EDGE('',*,*,#573,.T.);
#720=ORIENTED_EDGE('',*,*,#574,.F.);
#721=ORIENTED_EDGE('',*,*,#573,.F.);
#722=ORIENTED_EDGE('',*,*,#572,.F.);
#723=ORIENTED_EDGE('',*,*,#575,.T.);
#724=ORIENTED_EDGE('',*,*,#576,.T.);
#725=ORIENTED_EDGE('',*,*,#577,.F.);
#726=ORIENTED_EDGE('',*,*,#576,.F.);
#727=ORIENTED_EDGE('',*,*,#575,.F.);
#728=ORIENTED_EDGE('',*,*,#578,.T.);
#729=ORIENTED_EDGE('',*,*,#579,.T.);
#730=ORIENTED_EDGE('',*,*,#580,.F.);
#731=ORIENTED_EDGE('',*,*,#579,.F.);
#732=ORIENTED_EDGE('',*,*,#578,.F.);
#733=ORIENTED_EDGE('',*,*,#581,.T.);
#734=ORIENTED_EDGE('',*,*,#582,.T.);
#735=ORIENTED_EDGE('',*,*,#583,.F.);
#736=ORIENTED_EDGE('',*,*,#582,.F.);
#737=ORIENTED_EDGE('',*,*,#581,.F.);
#738=ORIENTED_EDGE('',*,*,#584,.F.);
#739=ORIENTED_EDGE('',*,*,#585,.F.);
#740=ORIENTED_EDGE('',*,*,#586,.F.);
#741=ORIENTED_EDGE('',*,*,#587,.T.);
#742=ORIENTED_EDGE('',*,*,#588,.F.);
#743=ORIENTED_EDGE('',*,*,#587,.F.);
#744=ORIENTED_EDGE('',*,*,#589,.F.);
#745=ORIENTED_EDGE('',*,*,#590,.T.);
#746=ORIENTED_EDGE('',*,*,#591,.F.);
#747=ORIENTED_EDGE('',*,*,#590,.F.);
#748=ORIENTED_EDGE('',*,*,#592,.F.);
#749=ORIENTED_EDGE('',*,*,#593,.T.);
#750=ORIENTED_EDGE('',*,*,#594,.F.);
#751=ORIENTED_EDGE('',*,*,#593,.F.);
#752=ORIENTED_EDGE('',*,*,#595,.F.);
#753=ORIENTED_EDGE('',*,*,#585,.T.);
#754=ORIENTED_EDGE('',*,*,#596,.F.);
#755=ORIENTED_EDGE('',*,*,#597,.F.);
#756=ORIENTED_EDGE('',*,*,#598,.F.);
#757=ORIENTED_EDGE('',*,*,#599,.T.);
#758=ORIENTED_EDGE('',*,*,#600,.F.);
#759=ORIENTED_EDGE('',*,*,#599,.F.);
#760=ORIENTED_EDGE('',*,*,#601,.F.);
#761=ORIENTED_EDGE('',*,*,#602,.T.);
#762=ORIENTED_EDGE('',*,*,#603,.F.);
#763=ORIENTED_EDGE('',*,*,#602,.F.);
#764=ORIENTED_EDGE('',*,*,#604,.F.);
#765=ORIENTED_EDGE('',*,*,#605,.T.);
#766=ORIENTED_EDGE('',*,*,#606,.F.);
#767=ORIENTED_EDGE('',*,*,#605,.F.);
#768=ORIENTED_EDGE('',*,*,#607,.F.);
#769=ORIENTED_EDGE('',*,*,#597,.T.);
#770=ORIENTED_EDGE('',*,*,#608,.F.);
#771=ORIENTED_EDGE('',*,*,#609,.F.);
#772=ORIENTED_EDGE('',*,*,#610,.F.);
#773=ORIENTED_EDGE('',*,*,#611,.T.);
#774=ORIENTED_EDGE('',*,*,#612,.F.);
#775=ORIENTED_EDGE('',*,*,#611,.F.);
#776=ORIENTED_EDGE('',*,*,#613,.F.);
#777=ORIENTED_EDGE('',*,*,#614,.T.);
#778=ORIENTED_EDGE('',*,*,#615,.F.);
#779=ORIENTED_EDGE('',*,*,#614,.F.);
#780=ORIENTED_EDGE('',*,*,#616,.F.);
#781=ORIENTED_EDGE('',*,*,#617,.T.);
#782=ORIENTED_EDGE('',*,*,#618,.F.);
#783=ORIENTED_EDGE('',*,*,#617,.F.);
#784=ORIENTED_EDGE('',*,*,#619,.F.);
#785=ORIENTED_EDGE('',*,*,#609,.T.);
#786=ORIENTED_EDGE('',*,*,#620,.T.);
#787=ORIENTED_EDGE('',*,*,#621,.F.);
#788=ORIENTED_EDGE('',*,*,#622,.F.);
#789=ORIENTED_EDGE('',*,*,#570,.F.);
#790=ORIENTED_EDGE('',*,*,#561,.T.);
#791=ORIENTED_EDGE('',*,*,#571,.F.);
#792=ORIENTED_EDGE('',*,*,#622,.T.);
#793=ORIENTED_EDGE('',*,*,#623,.F.);
#794=ORIENTED_EDGE('',*,*,#624,.F.);
#795=ORIENTED_EDGE('',*,*,#565,.F.);
#796=ORIENTED_EDGE('',*,*,#563,.T.);
#797=ORIENTED_EDGE('',*,*,#564,.T.);
#798=ORIENTED_EDGE('',*,*,#624,.T.);
#799=ORIENTED_EDGE('',*,*,#625,.T.);
#800=ORIENTED_EDGE('',*,*,#626,.T.);
#801=ORIENTED_EDGE('',*,*,#627,.T.);
#802=ORIENTED_EDGE('',*,*,#628,.T.);
#803=ORIENTED_EDGE('',*,*,#629,.T.);
#804=ORIENTED_EDGE('',*,*,#630,.T.);
#805=ORIENTED_EDGE('',*,*,#631,.T.);
#806=ORIENTED_EDGE('',*,*,#632,.T.);
#807=ORIENTED_EDGE('',*,*,#633,.F.);
#808=ORIENTED_EDGE('',*,*,#634,.T.);
#809=ORIENTED_EDGE('',*,*,#635,.T.);
#810=ORIENTED_EDGE('',*,*,#636,.T.);
#811=ORIENTED_EDGE('',*,*,#637,.F.);
#812=ORIENTED_EDGE('',*,*,#638,.T.);
#813=ORIENTED_EDGE('',*,*,#639,.F.);
#814=ORIENTED_EDGE('',*,*,#640,.T.);
#815=ORIENTED_EDGE('',*,*,#641,.F.);
#816=ORIENTED_EDGE('',*,*,#642,.T.);
#817=ORIENTED_EDGE('',*,*,#643,.T.);
#818=ORIENTED_EDGE('',*,*,#644,.T.);
#819=ORIENTED_EDGE('',*,*,#645,.F.);
#820=ORIENTED_EDGE('',*,*,#646,.T.);
#821=ORIENTED_EDGE('',*,*,#566,.T.);
#822=ORIENTED_EDGE('',*,*,#647,.F.);
#823=ORIENTED_EDGE('',*,*,#632,.F.);
#824=ORIENTED_EDGE('',*,*,#648,.F.);
#825=ORIENTED_EDGE('',*,*,#649,.T.);
#826=ORIENTED_EDGE('',*,*,#650,.T.);
#827=ORIENTED_EDGE('',*,*,#651,.T.);
#828=ORIENTED_EDGE('',*,*,#633,.T.);
#829=ORIENTED_EDGE('',*,*,#647,.T.);
#830=ORIENTED_EDGE('',*,*,#650,.F.);
#831=ORIENTED_EDGE('',*,*,#649,.F.);
#832=ORIENTED_EDGE('',*,*,#652,.F.);
#833=ORIENTED_EDGE('',*,*,#653,.F.);
#834=ORIENTED_EDGE('',*,*,#654,.F.);
#835=ORIENTED_EDGE('',*,*,#655,.F.);
#836=ORIENTED_EDGE('',*,*,#656,.F.);
#837=ORIENTED_EDGE('',*,*,#657,.T.);
#838=ORIENTED_EDGE('',*,*,#658,.T.);
#839=ORIENTED_EDGE('',*,*,#659,.F.);
#840=ORIENTED_EDGE('',*,*,#660,.T.);
#841=ORIENTED_EDGE('',*,*,#661,.T.);
#842=ORIENTED_EDGE('',*,*,#662,.F.);
#843=ORIENTED_EDGE('',*,*,#663,.T.);
#844=ORIENTED_EDGE('',*,*,#664,.F.);
#845=ORIENTED_EDGE('',*,*,#665,.T.);
#846=ORIENTED_EDGE('',*,*,#666,.F.);
#847=ORIENTED_EDGE('',*,*,#667,.T.);
#848=ORIENTED_EDGE('',*,*,#668,.F.);
#849=ORIENTED_EDGE('',*,*,#669,.T.);
#850=ORIENTED_EDGE('',*,*,#568,.F.);
#851=ORIENTED_EDGE('',*,*,#670,.T.);
#852=ORIENTED_EDGE('',*,*,#671,.F.);
#853=ORIENTED_EDGE('',*,*,#672,.F.);
#854=ORIENTED_EDGE('',*,*,#673,.T.);
#855=ORIENTED_EDGE('',*,*,#674,.F.);
#856=ORIENTED_EDGE('',*,*,#675,.F.);
#857=ORIENTED_EDGE('',*,*,#676,.F.);
#858=ORIENTED_EDGE('',*,*,#664,.T.);
#859=ORIENTED_EDGE('',*,*,#677,.T.);
#860=ORIENTED_EDGE('',*,*,#639,.T.);
#861=ORIENTED_EDGE('',*,*,#678,.T.);
#862=ORIENTED_EDGE('',*,*,#678,.F.);
#863=ORIENTED_EDGE('',*,*,#638,.F.);
#864=ORIENTED_EDGE('',*,*,#679,.F.);
#865=ORIENTED_EDGE('',*,*,#665,.F.);
#866=ORIENTED_EDGE('',*,*,#677,.F.);
#867=ORIENTED_EDGE('',*,*,#676,.T.);
#868=ORIENTED_EDGE('',*,*,#680,.F.);
#869=ORIENTED_EDGE('',*,*,#640,.F.);
#870=ORIENTED_EDGE('',*,*,#679,.T.);
#871=ORIENTED_EDGE('',*,*,#637,.T.);
#872=ORIENTED_EDGE('',*,*,#681,.T.);
#873=ORIENTED_EDGE('',*,*,#666,.T.);
#874=ORIENTED_EDGE('',*,*,#651,.F.);
#875=ORIENTED_EDGE('',*,*,#663,.F.);
#876=ORIENTED_EDGE('',*,*,#682,.F.);
#877=ORIENTED_EDGE('',*,*,#634,.F.);
#878=ORIENTED_EDGE('',*,*,#682,.T.);
#879=ORIENTED_EDGE('',*,*,#662,.T.);
#880=ORIENTED_EDGE('',*,*,#683,.T.);
#881=ORIENTED_EDGE('',*,*,#635,.F.);
#882=ORIENTED_EDGE('',*,*,#648,.T.);
#883=ORIENTED_EDGE('',*,*,#631,.F.);
#884=ORIENTED_EDGE('',*,*,#684,.T.);
#885=ORIENTED_EDGE('',*,*,#652,.T.);
#886=ORIENTED_EDGE('',*,*,#670,.F.);
#887=ORIENTED_EDGE('',*,*,#567,.T.);
#888=ORIENTED_EDGE('',*,*,#646,.F.);
#889=ORIENTED_EDGE('',*,*,#685,.F.);
#890=ORIENTED_EDGE('',*,*,#685,.T.);
#891=ORIENTED_EDGE('',*,*,#645,.T.);
#892=ORIENTED_EDGE('',*,*,#686,.T.);
#893=ORIENTED_EDGE('',*,*,#671,.T.);
#894=ORIENTED_EDGE('',*,*,#621,.T.);
#895=ORIENTED_EDGE('',*,*,#687,.T.);
#896=ORIENTED_EDGE('',*,*,#658,.F.);
#897=ORIENTED_EDGE('',*,*,#688,.F.);
#898=ORIENTED_EDGE('',*,*,#625,.F.);
#899=ORIENTED_EDGE('',*,*,#623,.T.);
#900=ORIENTED_EDGE('',*,*,#688,.T.);
#901=ORIENTED_EDGE('',*,*,#657,.F.);
#902=ORIENTED_EDGE('',*,*,#689,.F.);
#903=ORIENTED_EDGE('',*,*,#626,.F.);
#904=ORIENTED_EDGE('',*,*,#689,.T.);
#905=ORIENTED_EDGE('',*,*,#656,.T.);
#906=ORIENTED_EDGE('',*,*,#690,.T.);
#907=ORIENTED_EDGE('',*,*,#627,.F.);
#908=ORIENTED_EDGE('',*,*,#691,.F.);
#909=ORIENTED_EDGE('',*,*,#692,.T.);
#910=ORIENTED_EDGE('',*,*,#693,.T.);
#911=ORIENTED_EDGE('',*,*,#660,.F.);
#912=ORIENTED_EDGE('',*,*,#592,.T.);
#913=ORIENTED_EDGE('',*,*,#589,.T.);
#914=ORIENTED_EDGE('',*,*,#586,.T.);
#915=ORIENTED_EDGE('',*,*,#595,.T.);
#916=ORIENTED_EDGE('',*,*,#604,.T.);
#917=ORIENTED_EDGE('',*,*,#601,.T.);
#918=ORIENTED_EDGE('',*,*,#598,.T.);
#919=ORIENTED_EDGE('',*,*,#607,.T.);
#920=ORIENTED_EDGE('',*,*,#616,.T.);
#921=ORIENTED_EDGE('',*,*,#613,.T.);
#922=ORIENTED_EDGE('',*,*,#610,.T.);
#923=ORIENTED_EDGE('',*,*,#619,.T.);
#924=ORIENTED_EDGE('',*,*,#692,.F.);
#925=ORIENTED_EDGE('',*,*,#694,.F.);
#926=ORIENTED_EDGE('',*,*,#695,.T.);
#927=ORIENTED_EDGE('',*,*,#696,.T.);
#928=ORIENTED_EDGE('',*,*,#697,.T.);
#929=ORIENTED_EDGE('',*,*,#654,.T.);
#930=ORIENTED_EDGE('',*,*,#698,.F.);
#931=ORIENTED_EDGE('',*,*,#629,.F.);
#932=ORIENTED_EDGE('',*,*,#591,.T.);
#933=ORIENTED_EDGE('',*,*,#594,.T.);
#934=ORIENTED_EDGE('',*,*,#584,.T.);
#935=ORIENTED_EDGE('',*,*,#588,.T.);
#936=ORIENTED_EDGE('',*,*,#603,.T.);
#937=ORIENTED_EDGE('',*,*,#606,.T.);
#938=ORIENTED_EDGE('',*,*,#596,.T.);
#939=ORIENTED_EDGE('',*,*,#600,.T.);
#940=ORIENTED_EDGE('',*,*,#615,.T.);
#941=ORIENTED_EDGE('',*,*,#618,.T.);
#942=ORIENTED_EDGE('',*,*,#608,.T.);
#943=ORIENTED_EDGE('',*,*,#612,.T.);
#944=ORIENTED_EDGE('',*,*,#698,.T.);
#945=ORIENTED_EDGE('',*,*,#653,.T.);
#946=ORIENTED_EDGE('',*,*,#684,.F.);
#947=ORIENTED_EDGE('',*,*,#630,.F.);
#948=ORIENTED_EDGE('',*,*,#697,.F.);
#949=ORIENTED_EDGE('',*,*,#628,.F.);
#950=ORIENTED_EDGE('',*,*,#690,.F.);
#951=ORIENTED_EDGE('',*,*,#655,.T.);
#952=ORIENTED_EDGE('',*,*,#699,.T.);
#953=ORIENTED_EDGE('',*,*,#643,.F.);
#954=ORIENTED_EDGE('',*,*,#700,.F.);
#955=ORIENTED_EDGE('',*,*,#673,.F.);
#956=ORIENTED_EDGE('',*,*,#574,.T.);
#957=ORIENTED_EDGE('',*,*,#577,.T.);
#958=ORIENTED_EDGE('',*,*,#580,.T.);
#959=ORIENTED_EDGE('',*,*,#583,.T.);
#960=ORIENTED_EDGE('',*,*,#674,.T.);
#961=ORIENTED_EDGE('',*,*,#700,.T.);
#962=ORIENTED_EDGE('',*,*,#642,.F.);
#963=ORIENTED_EDGE('',*,*,#701,.F.);
#964=ORIENTED_EDGE('',*,*,#672,.T.);
#965=ORIENTED_EDGE('',*,*,#686,.F.);
#966=ORIENTED_EDGE('',*,*,#644,.F.);
#967=ORIENTED_EDGE('',*,*,#699,.F.);
#968=ORIENTED_EDGE('',*,*,#680,.T.);
#969=ORIENTED_EDGE('',*,*,#675,.T.);
#970=ORIENTED_EDGE('',*,*,#701,.T.);
#971=ORIENTED_EDGE('',*,*,#641,.T.);
#972=ORIENTED_EDGE('',*,*,#691,.T.);
#973=ORIENTED_EDGE('',*,*,#659,.T.);
#974=ORIENTED_EDGE('',*,*,#687,.F.);
#975=ORIENTED_EDGE('',*,*,#620,.F.);
#976=ORIENTED_EDGE('',*,*,#569,.F.);
#977=ORIENTED_EDGE('',*,*,#669,.F.);
#978=ORIENTED_EDGE('',*,*,#702,.T.);
#979=ORIENTED_EDGE('',*,*,#694,.T.);
#980=ORIENTED_EDGE('',*,*,#703,.T.);
#981=ORIENTED_EDGE('',*,*,#695,.F.);
#982=ORIENTED_EDGE('',*,*,#702,.F.);
#983=ORIENTED_EDGE('',*,*,#668,.T.);
#984=ORIENTED_EDGE('',*,*,#667,.F.);
#985=ORIENTED_EDGE('',*,*,#681,.F.);
#986=ORIENTED_EDGE('',*,*,#636,.F.);
#987=ORIENTED_EDGE('',*,*,#683,.F.);
#988=ORIENTED_EDGE('',*,*,#661,.F.);
#989=ORIENTED_EDGE('',*,*,#693,.F.);
#990=ORIENTED_EDGE('',*,*,#696,.F.);
#991=ORIENTED_EDGE('',*,*,#703,.F.);
#992=CYLINDRICAL_SURFACE('',#1067,0.8);
#993=CYLINDRICAL_SURFACE('',#1072,1.);
#994=CYLINDRICAL_SURFACE('',#1076,1.);
#995=CYLINDRICAL_SURFACE('',#1080,0.999999999999996);
#996=CYLINDRICAL_SURFACE('',#1084,1.);
#997=CYLINDRICAL_SURFACE('',#1106,1.);
#998=CYLINDRICAL_SURFACE('',#1111,1.);
#999=ADVANCED_FACE('',(#72),#992,.T.);
#1000=ADVANCED_FACE('',(#73),#25,.T.);
#1001=ADVANCED_FACE('',(#74),#26,.T.);
#1002=ADVANCED_FACE('',(#75),#993,.F.);
#1003=ADVANCED_FACE('',(#76),#27,.F.);
#1004=ADVANCED_FACE('',(#77),#994,.F.);
#1005=ADVANCED_FACE('',(#78),#28,.F.);
#1006=ADVANCED_FACE('',(#79),#995,.F.);
#1007=ADVANCED_FACE('',(#80),#29,.F.);
#1008=ADVANCED_FACE('',(#81),#996,.F.);
#1009=ADVANCED_FACE('',(#82),#30,.F.);
#1010=ADVANCED_FACE('',(#83),#31,.F.);
#1011=ADVANCED_FACE('',(#84),#32,.F.);
#1012=ADVANCED_FACE('',(#85),#33,.F.);
#1013=ADVANCED_FACE('',(#86),#34,.F.);
#1014=ADVANCED_FACE('',(#87),#35,.F.);
#1015=ADVANCED_FACE('',(#88),#36,.F.);
#1016=ADVANCED_FACE('',(#89),#37,.F.);
#1017=ADVANCED_FACE('',(#90),#38,.F.);
#1018=ADVANCED_FACE('',(#91),#39,.F.);
#1019=ADVANCED_FACE('',(#92),#40,.F.);
#1020=ADVANCED_FACE('',(#93),#41,.F.);
#1021=ADVANCED_FACE('',(#94),#42,.F.);
#1022=ADVANCED_FACE('',(#95),#43,.T.);
#1023=ADVANCED_FACE('',(#96),#44,.T.);
#1024=ADVANCED_FACE('',(#97),#45,.T.);
#1025=ADVANCED_FACE('',(#98),#46,.T.);
#1026=ADVANCED_FACE('',(#99),#997,.T.);
#1027=ADVANCED_FACE('',(#100),#47,.T.);
#1028=ADVANCED_FACE('',(#101),#48,.T.);
#1029=ADVANCED_FACE('',(#102),#998,.T.);
#1030=ADVANCED_FACE('',(#103),#49,.T.);
#1031=ADVANCED_FACE('',(#104),#50,.T.);
#1032=ADVANCED_FACE('',(#105),#51,.T.);
#1033=ADVANCED_FACE('',(#106),#52,.T.);
#1034=ADVANCED_FACE('',(#107),#53,.T.);
#1035=ADVANCED_FACE('',(#108),#54,.T.);
#1036=ADVANCED_FACE('',(#109),#55,.T.);
#1037=ADVANCED_FACE('',(#110),#56,.T.);
#1038=ADVANCED_FACE('',(#111),#57,.T.);
#1039=ADVANCED_FACE('',(#112),#58,.T.);
#1040=ADVANCED_FACE('',(#113),#59,.T.);
#1041=ADVANCED_FACE('',(#114,#15,#16,#17),#60,.T.);
#1042=ADVANCED_FACE('',(#115),#61,.T.);
#1043=ADVANCED_FACE('',(#116,#18,#19,#20),#62,.T.);
#1044=ADVANCED_FACE('',(#117),#63,.T.);
#1045=ADVANCED_FACE('',(#118),#64,.F.);
#1046=ADVANCED_FACE('',(#119,#21,#22,#23,#24),#65,.T.);
#1047=ADVANCED_FACE('',(#120),#66,.T.);
#1048=ADVANCED_FACE('',(#121),#67,.F.);
#1049=ADVANCED_FACE('',(#122),#68,.T.);
#1050=ADVANCED_FACE('',(#123),#69,.T.);
#1051=ADVANCED_FACE('',(#124),#70,.T.);
#1052=ADVANCED_FACE('',(#125),#71,.T.);
#1053=CLOSED_SHELL('',(#999,#1000,#1001,#1002,#1003,#1004,#1005,#1006,#1007,
#1008,#1009,#1010,#1011,#1012,#1013,#1014,#1015,#1016,#1017,#1018,#1019,
#1020,#1021,#1022,#1023,#1024,#1025,#1026,#1027,#1028,#1029,#1030,#1031,
#1032,#1033,#1034,#1035,#1036,#1037,#1038,#1039,#1040,#1041,#1042,#1043,
#1044,#1045,#1046,#1047,#1048,#1049,#1050,#1051,#1052));
#1054=DERIVED_UNIT_ELEMENT(#1056,1.);
#1055=DERIVED_UNIT_ELEMENT(#1703,-3.);
#1056=(
MASS_UNIT()
NAMED_UNIT(*)
SI_UNIT(.KILO.,.GRAM.)
);
#1057=DERIVED_UNIT((#1054,#1055));
#1058=MEASURE_REPRESENTATION_ITEM('density measure',
POSITIVE_RATIO_MEASURE(7850.),#1057);
#1059=PROPERTY_DEFINITION_REPRESENTATION(#1064,#1061);
#1060=PROPERTY_DEFINITION_REPRESENTATION(#1065,#1062);
#1061=REPRESENTATION('material name',(#1063),#1700);
#1062=REPRESENTATION('density',(#1058),#1700);
#1063=DESCRIPTIVE_REPRESENTATION_ITEM('Steel','Steel');
#1064=PROPERTY_DEFINITION('material property','material name',#1710);
#1065=PROPERTY_DEFINITION('material property','density of part',#1710);
#1066=AXIS2_PLACEMENT_3D('',#1403,#1135,#1136);
#1067=AXIS2_PLACEMENT_3D('',#1404,#1137,#1138);
#1068=AXIS2_PLACEMENT_3D('',#1407,#1139,#1140);
#1069=AXIS2_PLACEMENT_3D('',#1411,#1142,#1143);
#1070=AXIS2_PLACEMENT_3D('',#1413,#1145,#1146);
#1071=AXIS2_PLACEMENT_3D('',#1415,#1148,#1149);
#1072=AXIS2_PLACEMENT_3D('',#1429,#1157,#1158);
#1073=AXIS2_PLACEMENT_3D('',#1431,#1159,#1160);
#1074=AXIS2_PLACEMENT_3D('',#1434,#1162,#1163);
#1075=AXIS2_PLACEMENT_3D('',#1435,#1164,#1165);
#1076=AXIS2_PLACEMENT_3D('',#1436,#1166,#1167);
#1077=AXIS2_PLACEMENT_3D('',#1438,#1168,#1169);
#1078=AXIS2_PLACEMENT_3D('',#1441,#1171,#1172);
#1079=AXIS2_PLACEMENT_3D('',#1442,#1173,#1174);
#1080=AXIS2_PLACEMENT_3D('',#1443,#1175,#1176);
#1081=AXIS2_PLACEMENT_3D('',#1445,#1177,#1178);
#1082=AXIS2_PLACEMENT_3D('',#1448,#1180,#1181);
#1083=AXIS2_PLACEMENT_3D('',#1449,#1182,#1183);
#1084=AXIS2_PLACEMENT_3D('',#1450,#1184,#1185);
#1085=AXIS2_PLACEMENT_3D('',#1452,#1186,#1187);
#1086=AXIS2_PLACEMENT_3D('',#1455,#1189,#1190);
#1087=AXIS2_PLACEMENT_3D('',#1456,#1191,#1192);
#1088=AXIS2_PLACEMENT_3D('',#1457,#1193,#1194);
#1089=AXIS2_PLACEMENT_3D('',#1466,#1199,#1200);
#1090=AXIS2_PLACEMENT_3D('',#1472,#1204,#1205);
#1091=AXIS2_PLACEMENT_3D('',#1478,#1209,#1210);
#1092=AXIS2_PLACEMENT_3D('',#1481,#1213,#1214);
#1093=AXIS2_PLACEMENT_3D('',#1490,#1219,#1220);
#1094=AXIS2_PLACEMENT_3D('',#1496,#1224,#1225);
#1095=AXIS2_PLACEMENT_3D('',#1502,#1229,#1230);
#1096=AXIS2_PLACEMENT_3D('',#1505,#1233,#1234);
#1097=AXIS2_PLACEMENT_3D('',#1514,#1239,#1240);
#1098=AXIS2_PLACEMENT_3D('',#1520,#1244,#1245);
#1099=AXIS2_PLACEMENT_3D('',#1526,#1249,#1250);
#1100=AXIS2_PLACEMENT_3D('',#1529,#1253,#1254);
#1101=AXIS2_PLACEMENT_3D('',#1535,#1258,#1259);
#1102=AXIS2_PLACEMENT_3D('',#1539,#1262,#1263);
#1103=AXIS2_PLACEMENT_3D('',#1557,#1272,#1273);
#1104=AXIS2_PLACEMENT_3D('',#1569,#1279,#1280);
#1105=AXIS2_PLACEMENT_3D('',#1583,#1288,#1289);
#1106=AXIS2_PLACEMENT_3D('',#1589,#1293,#1294);
#1107=AXIS2_PLACEMENT_3D('',#1591,#1295,#1296);
#1108=AXIS2_PLACEMENT_3D('',#1593,#1298,#1299);
#1109=AXIS2_PLACEMENT_3D('',#1617,#1312,#1313);
#1110=AXIS2_PLACEMENT_3D('',#1620,#1314,#1315);
#1111=AXIS2_PLACEMENT_3D('',#1643,#1328,#1329);
#1112=AXIS2_PLACEMENT_3D('',#1646,#1332,#1333);
#1113=AXIS2_PLACEMENT_3D('',#1648,#1335,#1336);
#1114=AXIS2_PLACEMENT_3D('',#1650,#1338,#1339);
#1115=AXIS2_PLACEMENT_3D('',#1652,#1341,#1342);
#1116=AXIS2_PLACEMENT_3D('',#1654,#1344,#1345);
#1117=AXIS2_PLACEMENT_3D('',#1656,#1347,#1348);
#1118=AXIS2_PLACEMENT_3D('',#1658,#1350,#1351);
#1119=AXIS2_PLACEMENT_3D('',#1660,#1353,#1354);
#1120=AXIS2_PLACEMENT_3D('',#1662,#1356,#1357);
#1121=AXIS2_PLACEMENT_3D('',#1665,#1360,#1361);
#1122=AXIS2_PLACEMENT_3D('',#1667,#1363,#1364);
#1123=AXIS2_PLACEMENT_3D('',#1669,#1366,#1367);
#1124=AXIS2_PLACEMENT_3D('',#1675,#1371,#1372);
#1125=AXIS2_PLACEMENT_3D('',#1681,#1376,#1377);
#1126=AXIS2_PLACEMENT_3D('',#1684,#1380,#1381);
#1127=AXIS2_PLACEMENT_3D('',#1685,#1382,#1383);
#1128=AXIS2_PLACEMENT_3D('',#1686,#1384,#1385);
#1129=AXIS2_PLACEMENT_3D('',#1689,#1388,#1389);
#1130=AXIS2_PLACEMENT_3D('',#1691,#1391,#1392);
#1131=AXIS2_PLACEMENT_3D('',#1692,#1393,#1394);
#1132=AXIS2_PLACEMENT_3D('',#1693,#1395,#1396);
#1133=AXIS2_PLACEMENT_3D('',#1695,#1398,#1399);
#1134=AXIS2_PLACEMENT_3D('',#1697,#1401,#1402);
#1135=DIRECTION('axis',(0.,0.,1.));
#1136=DIRECTION('refdir',(1.,0.,0.));
#1137=DIRECTION('center_axis',(-0.00192338959195719,0.999998150284528,0.));
#1138=DIRECTION('ref_axis',(-0.937498265891744,-0.00180317774245986,0.347985272676878));
#1139=DIRECTION('center_axis',(-0.000206176043073624,-0.999999978745719,
0.));
#1140=DIRECTION('ref_axis',(-0.999999978745719,0.000206176043073624,-1.67118110240432E-11));
#1141=DIRECTION('',(0.00192338959195532,-0.999998150284528,0.));
#1142=DIRECTION('center_axis',(0.00192338959195126,-0.999998150284528,0.));
#1143=DIRECTION('ref_axis',(-0.937498265891744,-0.00180317774245986,0.347985272676878));
#1144=DIRECTION('',(-0.00192338959195532,0.999998150284528,0.));
#1145=DIRECTION('center_axis',(-0.00192338959195126,0.999998150284528,0.));
#1146=DIRECTION('ref_axis',(-0.999998150284528,-0.00192338959195126,0.));
#1147=DIRECTION('',(0.999998150284528,0.00192338959195126,0.));
#1148=DIRECTION('center_axis',(0.000206176043073624,0.999999978745719,0.));
#1149=DIRECTION('ref_axis',(0.999999978745719,-0.000206176043073624,0.));
#1150=DIRECTION('',(-0.999999978745719,0.000206176043073624,0.));
#1151=DIRECTION('',(0.,0.,-1.));
#1152=DIRECTION('',(-0.999999978745719,0.000206176043073624,0.));
#1153=DIRECTION('',(0.,0.,-1.));
#1154=DIRECTION('',(-0.999999978745719,0.000206176043073624,0.));
#1155=DIRECTION('',(0.,0.,1.));
#1156=DIRECTION('',(-0.999999978745719,0.000206176043073624,0.));
#1157=DIRECTION('center_axis',(0.000206176043072674,0.999999978745719,0.));
#1158=DIRECTION('ref_axis',(0.999999978745719,-0.000206176043072674,0.));
#1159=DIRECTION('center_axis',(-0.000206176043073571,-0.999999978745719,
0.));
#1160=DIRECTION('ref_axis',(0.999999978745719,-0.000206176043073571,0.));
#1161=DIRECTION('',(0.000206176043072674,0.99999997874572,0.));
#1162=DIRECTION('center_axis',(-0.000206176043073624,-0.999999978745719,
0.));
#1163=DIRECTION('ref_axis',(0.999999978745719,-0.000206176043072674,0.));
#1164=DIRECTION('center_axis',(-0.000206176043073571,-0.999999978745719,
0.));
#1165=DIRECTION('ref_axis',(0.999999978745719,-0.000206176043073571,0.));
#1166=DIRECTION('center_axis',(0.000206176043073898,0.999999978745719,0.));
#1167=DIRECTION('ref_axis',(0.999999978745719,-0.000206176043073898,0.));
#1168=DIRECTION('center_axis',(-0.000206176043073571,-0.999999978745719,
0.));
#1169=DIRECTION('ref_axis',(0.999999978745719,-0.000206176043073571,0.));
#1170=DIRECTION('',(0.000206176043073898,0.99999997874572,0.));
#1171=DIRECTION('center_axis',(-0.000206176043073624,-0.999999978745719,
0.));
#1172=DIRECTION('ref_axis',(0.999999978745719,-0.000206176043073898,0.));
#1173=DIRECTION('center_axis',(-0.000206176043073571,-0.999999978745719,
0.));
#1174=DIRECTION('ref_axis',(0.999999978745719,-0.000206176043073571,0.));
#1175=DIRECTION('center_axis',(0.000206176043072674,0.999999978745719,0.));
#1176=DIRECTION('ref_axis',(0.999999978745719,-0.000206176043072674,0.));
#1177=DIRECTION('center_axis',(-0.000206176043073571,-0.999999978745719,
0.));
#1178=DIRECTION('ref_axis',(0.999999978745719,-0.000206176043073571,0.));
#1179=DIRECTION('',(0.000206176043072674,0.999999978745719,0.));
#1180=DIRECTION('center_axis',(-0.000206176043073624,-0.999999978745719,
0.));
#1181=DIRECTION('ref_axis',(0.999999978745719,-0.000206176043072674,0.));
#1182=DIRECTION('center_axis',(-0.000206176043073571,-0.999999978745719,
0.));
#1183=DIRECTION('ref_axis',(0.999999978745719,-0.000206176043073571,0.));
#1184=DIRECTION('center_axis',(0.000206176043073898,0.999999978745719,0.));
#1185=DIRECTION('ref_axis',(0.999999978745719,-0.000206176043073898,0.));
#1186=DIRECTION('center_axis',(-0.000206176043073571,-0.999999978745719,
0.));
#1187=DIRECTION('ref_axis',(0.999999978745719,-0.000206176043073571,0.));
#1188=DIRECTION('',(0.000206176043073898,0.99999997874572,0.));
#1189=DIRECTION('center_axis',(-0.000206176043073624,-0.999999978745719,
0.));
#1190=DIRECTION('ref_axis',(0.999999978745719,-0.000206176043073898,0.));
#1191=DIRECTION('center_axis',(-0.000206176043073571,-0.999999978745719,
0.));
#1192=DIRECTION('ref_axis',(0.999999978745719,-0.000206176043073571,0.));
#1193=DIRECTION('center_axis',(-0.999999978745719,0.000206176043073825,
-4.43711041530329E-16));
#1194=DIRECTION('ref_axis',(4.43711026515916E-16,-1.18564558984894E-19,
-1.));
#1195=DIRECTION('',(-4.4371103209957E-16,9.14825868108476E-20,1.));
#1196=DIRECTION('',(-0.000206176043073825,-0.999999978745719,0.));
#1197=DIRECTION('',(4.4371103209957E-16,-9.14825868108476E-20,-1.));
#1198=DIRECTION('',(-0.000206176043073825,-0.999999978745719,0.));
#1199=DIRECTION('center_axis',(5.78757648933368E-15,-1.19325964491979E-18,
1.));
#1200=DIRECTION('ref_axis',(-0.999999978745719,0.000206176043073732,5.78757661234445E-15));
#1201=DIRECTION('',(0.999999978745719,-0.000206176043073732,-5.78757661234445E-15));
#1202=DIRECTION('',(-0.999999978745719,0.000206176043073732,5.78757661234445E-15));
#1203=DIRECTION('',(-0.000206176043073825,-0.999999978745719,0.));
#1204=DIRECTION('center_axis',(0.999999978745719,-0.000206176043073825,
0.));
#1205=DIRECTION('ref_axis',(0.,0.,1.));
#1206=DIRECTION('',(0.,0.,-1.));
#1207=DIRECTION('',(0.,0.,1.));
#1208=DIRECTION('',(-0.000206176043073825,-0.999999978745719,0.));
#1209=DIRECTION('center_axis',(-3.14542200507265E-17,6.48510676586843E-21,
-1.));
#1210=DIRECTION('ref_axis',(0.999999978745719,-0.000206176043073732,-3.14542207192633E-17));
#1211=DIRECTION('',(-0.999999978745719,0.000206176043073732,3.14542207192633E-17));
#1212=DIRECTION('',(0.999999978745719,-0.000206176043073732,-3.14542207192633E-17));
#1213=DIRECTION('center_axis',(-0.999999978745719,0.000206176043073825,
2.21855520765165E-16));
#1214=DIRECTION('ref_axis',(-2.21489591286195E-16,1.77486278771951E-15,
-1.));
#1215=DIRECTION('',(2.21855516049785E-16,-4.57412934054238E-20,1.));
#1216=DIRECTION('',(-0.000206176043073825,-0.999999978745719,0.));
#1217=DIRECTION('',(-2.21855516049785E-16,4.57412934054238E-20,-1.));
#1218=DIRECTION('',(-0.000206176043073825,-0.999999978745719,0.));
#1219=DIRECTION('center_axis',(5.78757648933365E-15,-1.19325964491978E-18,
1.));
#1220=DIRECTION('ref_axis',(-0.999999978745719,0.000206176043071719,5.78757661234442E-15));
#1221=DIRECTION('',(0.999999978745719,-0.000206176043073732,-5.78757661234443E-15));
#1222=DIRECTION('',(-0.999999978745719,0.000206176043073732,5.78757661234443E-15));
#1223=DIRECTION('',(-0.000206176043073825,-0.999999978745719,0.));
#1224=DIRECTION('center_axis',(0.999999978745719,-0.000206176043073825,
0.));
#1225=DIRECTION('ref_axis',(0.,0.,1.));
#1226=DIRECTION('',(0.,0.,-1.));
#1227=DIRECTION('',(0.,0.,1.));
#1228=DIRECTION('',(-0.000206176043073825,-0.999999978745719,0.));
#1229=DIRECTION('center_axis',(-3.14542200507263E-17,6.48510676586839E-21,
-1.));
#1230=DIRECTION('ref_axis',(0.999999978745719,-0.000206176043073732,-3.14542207192632E-17));
#1231=DIRECTION('',(-0.999999978745719,0.000206176043073732,3.14542207192632E-17));
#1232=DIRECTION('',(0.999999978745719,-0.000206176043073732,-3.14542207192632E-17));
#1233=DIRECTION('center_axis',(-0.999999978745719,0.000206176043073825,
-1.64185527759012E-31));
#1234=DIRECTION('ref_axis',(-3.6593034724339E-19,-1.77484412839828E-15,
-1.));
#1235=DIRECTION('',(-1.64185524269367E-31,3.38511224433255E-35,1.));
#1236=DIRECTION('',(-0.000206176043073825,-0.999999978745719,0.));
#1237=DIRECTION('',(1.64185524269367E-31,-3.38511224433255E-35,-1.));
#1238=DIRECTION('',(-0.000206176043073825,-0.999999978745719,0.));
#1239=DIRECTION('center_axis',(5.78757647705601E-15,-1.19325964238843E-18,
1.));
#1240=DIRECTION('ref_axis',(-0.999999978745719,0.000206176043075745,5.78757660006678E-15));
#1241=DIRECTION('',(0.999999978745719,-0.000206176043073732,-5.78757660006678E-15));
#1242=DIRECTION('',(-0.999999978745719,0.000206176043073732,5.78757660006678E-15));
#1243=DIRECTION('',(-0.000206176043073825,-0.999999978745719,0.));
#1244=DIRECTION('center_axis',(0.999999978745719,-0.000206176043073825,
0.));
#1245=DIRECTION('ref_axis',(0.,0.,1.));
#1246=DIRECTION('',(0.,0.,-1.));
#1247=DIRECTION('',(0.,0.,1.));
#1248=DIRECTION('',(-0.000206176043073825,-0.999999978745719,0.));
#1249=DIRECTION('center_axis',(-3.1454219984E-17,6.48510675211102E-21,-1.));
#1250=DIRECTION('ref_axis',(0.999999978745719,-0.000206176043073732,-3.14542206525369E-17));
#1251=DIRECTION('',(-0.999999978745719,0.000206176043073732,3.14542206525369E-17));
#1252=DIRECTION('',(0.999999978745719,-0.000206176043073732,-3.14542206525369E-17));
#1253=DIRECTION('center_axis',(0.999998150284528,0.00192338959195553,0.));
#1254=DIRECTION('ref_axis',(-0.00192338959195553,0.999998150284528,0.));
#1255=DIRECTION('',(-0.00192338959195553,0.999998150284528,0.));
#1256=DIRECTION('',(0.,0.,-1.));
#1257=DIRECTION('',(-0.00192338959195553,0.999998150284528,0.));
#1258=DIRECTION('center_axis',(0.,0.,1.));
#1259=DIRECTION('ref_axis',(1.,0.,0.));
#1260=DIRECTION('',(0.999999978745719,-0.000206176043073732,0.));
#1261=DIRECTION('',(0.000206176043073613,0.999999978745719,0.));
#1262=DIRECTION('center_axis',(0.999999978745719,-0.000206176043073613,
0.));
#1263=DIRECTION('ref_axis',(0.000206176043073613,0.999999978745719,0.));
#1264=DIRECTION('',(0.,0.,1.));
#1265=DIRECTION('',(0.000206176043073613,0.999999978745719,0.));
#1266=DIRECTION('',(0.,0.,1.));
#1267=DIRECTION('',(-0.000206176043073613,-0.999999978745719,0.));
#1268=DIRECTION('',(0.,0.,1.));
#1269=DIRECTION('',(0.000206176043073613,0.999999978745719,0.));
#1270=DIRECTION('',(0.,0.,1.));
#1271=DIRECTION('',(-0.000206176043073613,-0.999999978745719,0.));
#1272=DIRECTION('center_axis',(-0.999999978745719,0.000206176043073613,
0.));
#1273=DIRECTION('ref_axis',(-0.000145788478175711,-0.707106766157501,0.707106781186548));
#1274=DIRECTION('',(0.000206176043073613,0.999999978745719,-1.73118789941387E-35));
#1275=DIRECTION('',(0.,0.,1.));
#1276=DIRECTION('',(0.000206176043073613,0.999999978745719,-1.73118789941387E-35));
#1277=DIRECTION('',(0.,0.,1.));
#1278=DIRECTION('',(0.000206176043073613,0.999999978745719,-1.73118789941387E-35));
#1279=DIRECTION('center_axis',(-0.999999978745719,0.000206176043073613,
0.));
#1280=DIRECTION('ref_axis',(0.000145788478181991,0.707106766157501,-0.707106781186548));
#1281=DIRECTION('',(-0.000206176043073613,-0.999999978745719,0.));
#1282=DIRECTION('',(0.,0.,1.));
#1283=DIRECTION('',(0.000206176043073613,0.999999978745719,0.));
#1284=DIRECTION('',(0.,0.,-1.));
#1285=DIRECTION('',(-0.000206176043073613,-0.999999978745719,0.));
#1286=DIRECTION('',(0.,0.,1.));
#1287=DIRECTION('',(0.000206176043073613,0.999999978745719,0.));
#1288=DIRECTION('center_axis',(0.,0.,-1.));
#1289=DIRECTION('ref_axis',(-1.,0.,0.));
#1290=DIRECTION('',(0.999999978745719,-0.000206176043073732,0.));
#1291=DIRECTION('',(-0.999999978745719,0.000206176043073732,0.));
#1292=DIRECTION('',(-0.000206173188216653,-0.999999978746308,1.73116392818156E-35));
#1293=DIRECTION('center_axis',(-0.999999978745719,0.000206176043073732,
8.39664898411291E-32));
#1294=DIRECTION('ref_axis',(-0.000145788478175711,-0.707106766157501,0.707106781186548));
#1295=DIRECTION('center_axis',(-0.999999978746308,0.000206173188216653,
0.));
#1296=DIRECTION('ref_axis',(-0.000145786459486845,-0.707106766157916,-0.70710678118655));
#1297=DIRECTION('',(-0.999999978745719,0.000206176043073732,8.39664898411291E-32));
#1298=DIRECTION('center_axis',(0.999999978746308,-0.000206173188216653,
0.));
#1299=DIRECTION('ref_axis',(0.000206173188216653,0.999999978746308,0.));
#1300=DIRECTION('',(0.,0.,1.));
#1301=DIRECTION('',(0.000206173188216653,0.999999978746308,0.));
#1302=DIRECTION('',(0.,0.,1.));
#1303=DIRECTION('',(-0.000206173188216653,-0.999999978746308,0.));
#1304=DIRECTION('',(0.,0.,1.));
#1305=DIRECTION('',(-0.000206173188216653,-0.999999978746308,0.));
#1306=DIRECTION('',(0.,0.,-1.));
#1307=DIRECTION('',(-0.000206173188216653,-0.999999978746308,0.));
#1308=DIRECTION('',(0.,0.,1.));
#1309=DIRECTION('',(0.000206173188216653,0.999999978746308,-1.73116392818156E-35));
#1310=DIRECTION('',(0.,0.,1.));
#1311=DIRECTION('',(-0.000206173188216653,-0.999999978746308,1.73116392818156E-35));
#1312=DIRECTION('center_axis',(0.999999978746308,-0.000206173188216653,
0.));
#1313=DIRECTION('ref_axis',(0.000206173188216653,0.999999978746308,0.));
#1314=DIRECTION('center_axis',(-0.999999978746308,0.000206173188216653,
0.));
#1315=DIRECTION('ref_axis',(0.000145786459486845,0.707106766157917,-0.707106781186548));
#1316=DIRECTION('',(-0.000206173188216653,-0.999999978746308,1.73116392818156E-35));
#1317=DIRECTION('',(0.,0.,-1.));
#1318=DIRECTION('',(0.000206173188216653,0.999999978746308,-1.73116392818156E-35));
#1319=DIRECTION('',(0.,0.,1.));
#1320=DIRECTION('',(0.000206173188216653,0.999999978746308,0.));
#1321=DIRECTION('',(-0.000206173188216653,-0.999999978746308,0.));
#1322=DIRECTION('',(0.,0.,-1.));
#1323=DIRECTION('',(-0.000206173188216653,-0.999999978746308,0.));
#1324=DIRECTION('',(0.,0.,1.));
#1325=DIRECTION('',(0.000206173188216653,0.999999978746308,0.));
#1326=DIRECTION('',(0.,0.,-1.));
#1327=DIRECTION('',(-0.000206173188216653,-0.999999978746308,1.73116392818156E-35));
#1328=DIRECTION('center_axis',(0.999999978745719,-0.000206176043073624,
-8.39664898411291E-32));
#1329=DIRECTION('ref_axis',(0.000145788478181991,0.707106766157502,0.707106781186547));
#1330=DIRECTION('',(-0.999999978745719,0.000206176043073624,0.));
#1331=DIRECTION('',(0.999999978745719,-0.000206176043073624,-8.39664898411291E-32));
#1332=DIRECTION('center_axis',(8.39664916257765E-32,-3.75871831147408E-47,
1.));
#1333=DIRECTION('ref_axis',(1.,0.,-8.39664916257765E-32));
#1334=DIRECTION('',(-0.999999978745719,0.000206176043073624,8.39664898411291E-32));
#1335=DIRECTION('center_axis',(0.,0.,-1.));
#1336=DIRECTION('ref_axis',(-1.,0.,0.));
#1337=DIRECTION('',(0.999999978745719,-0.000206176043073624,0.));
#1338=DIRECTION('center_axis',(0.000206176043073624,0.999999978745719,0.));
#1339=DIRECTION('ref_axis',(-0.999999978745719,0.000206176043073624,0.));
#1340=DIRECTION('',(-0.999999978745719,0.000206176043073624,8.39664898411291E-32));
#1341=DIRECTION('center_axis',(8.39664916257765E-32,-3.75871831147408E-47,
1.));
#1342=DIRECTION('ref_axis',(1.,0.,-8.39664916257765E-32));
#1343=DIRECTION('',(0.999999978745719,-0.000206176043073732,-8.39664898411291E-32));
#1344=DIRECTION('center_axis',(-0.000206176043073732,-0.999999978745719,
0.));
#1345=DIRECTION('ref_axis',(0.999999978745719,-0.000206176043073732,0.));
#1346=DIRECTION('',(0.999999978745719,-0.000206176043073732,-8.39664898411291E-32));
#1347=DIRECTION('center_axis',(-0.000206176043073732,-0.999999978745719,
0.));
#1348=DIRECTION('ref_axis',(0.999999978745719,-0.000206176043073732,0.));
#1349=DIRECTION('',(0.999999978745719,-0.000206176043073732,0.));
#1350=DIRECTION('center_axis',(0.,0.,1.));
#1351=DIRECTION('ref_axis',(1.,0.,0.));
#1352=DIRECTION('',(-0.999999978745719,0.000206176043073624,0.));
#1353=DIRECTION('center_axis',(0.000206176043073624,0.999999978745719,0.));
#1354=DIRECTION('ref_axis',(-0.999999978745719,0.000206176043073624,0.));
#1355=DIRECTION('',(0.999999978745719,-0.000206176043073624,0.));
#1356=DIRECTION('center_axis',(-0.000206176043073732,-0.999999978745719,
0.));
#1357=DIRECTION('ref_axis',(-0.999999978745719,0.000206176043073732,0.));
#1358=DIRECTION('',(0.999999978745719,-0.000206176043073732,0.));
#1359=DIRECTION('',(0.999999978745719,-0.000206176043073732,0.));
#1360=DIRECTION('center_axis',(0.,0.,1.));
#1361=DIRECTION('ref_axis',(1.,0.,0.));
#1362=DIRECTION('',(0.999999978745719,-0.000206176043073732,0.));
#1363=DIRECTION('center_axis',(-0.000206176043073732,-0.999999978745719,
0.));
#1364=DIRECTION('ref_axis',(0.999999978745719,-0.000206176043073732,0.));
#1365=DIRECTION('',(-0.999999978745719,0.000206176043073732,0.));
#1366=DIRECTION('center_axis',(0.000206176043073732,0.999999978745719,0.));
#1367=DIRECTION('ref_axis',(-0.999999978745719,0.000206176043073732,0.));
#1368=DIRECTION('',(0.999999978745719,-0.000206176043073732,0.));
#1369=DIRECTION('',(0.,0.,1.));
#1370=DIRECTION('',(-0.999999978745719,0.000206176043073732,8.39664898411291E-32));
#1371=DIRECTION('center_axis',(-0.999999999999985,-1.7580483203978E-7,0.));
#1372=DIRECTION('ref_axis',(1.7580483203978E-7,-0.999999999999985,0.));
#1373=DIRECTION('',(-1.7580483203978E-7,0.999999999999985,0.));
#1374=DIRECTION('',(0.,0.,1.));
#1375=DIRECTION('',(1.7580483203978E-7,-0.999999999999985,-1.47617149948264E-38));
#1376=DIRECTION('center_axis',(-0.000206176043073732,-0.999999978745719,
0.));
#1377=DIRECTION('ref_axis',(0.999999978745719,-0.000206176043073732,0.));
#1378=DIRECTION('',(0.999999978745719,-0.000206176043073732,0.));
#1379=DIRECTION('',(0.999999978745719,-0.000206176043073732,0.));
#1380=DIRECTION('center_axis',(0.,0.,1.));
#1381=DIRECTION('ref_axis',(1.,0.,0.));
#1382=DIRECTION('center_axis',(0.,0.,1.));
#1383=DIRECTION('ref_axis',(1.,0.,0.));
#1384=DIRECTION('center_axis',(0.000206176043073624,0.999999978745719,0.));
#1385=DIRECTION('ref_axis',(-0.999999978745719,0.000206176043073624,0.));
#1386=DIRECTION('',(-0.999999978745719,0.000206176043073624,0.));
#1387=DIRECTION('',(-0.999999978745719,0.000206176043073624,0.));
#1388=DIRECTION('center_axis',(0.,0.,1.));
#1389=DIRECTION('ref_axis',(1.,0.,0.));
#1390=DIRECTION('',(-0.999999978745719,0.000206176043073624,0.));
#1391=DIRECTION('center_axis',(0.,0.,1.));
#1392=DIRECTION('ref_axis',(1.,0.,0.));
#1393=DIRECTION('center_axis',(0.000206176043073624,0.999999978745719,0.));
#1394=DIRECTION('ref_axis',(-0.999999978745719,0.000206176043073624,0.));
#1395=DIRECTION('center_axis',(0.,0.,-1.));
#1396=DIRECTION('ref_axis',(-1.,0.,0.));
#1397=DIRECTION('',(-0.999999978745719,0.000206176043073571,0.));
#1398=DIRECTION('center_axis',(-0.000206176043073571,-0.999999978745719,
0.));
#1399=DIRECTION('ref_axis',(0.999999978745719,-0.000206176043073571,0.));
#1400=DIRECTION('',(0.999999978745719,-0.000206176043073571,-8.39664898411291E-32));
#1401=DIRECTION('center_axis',(8.39664916257765E-32,-3.75871831147408E-47,
1.));
#1402=DIRECTION('ref_axis',(1.,0.,-8.39664916257765E-32));
#1403=CARTESIAN_POINT('',(0.,0.,0.));
#1404=CARTESIAN_POINT('Origin',(4.8648915930676,25.637443948299,-4.7783882181415));
#1405=CARTESIAN_POINT('',(5.68706132265955,-11.8839241165659,-4.5));
#1406=CARTESIAN_POINT('',(4.18705795324348,-11.8836148518,-4.5));
#1407=CARTESIAN_POINT('Origin',(4.93705963795159,-11.883769484183,-4.7783882181415));
#1408=CARTESIAN_POINT('',(5.59092990571612,38.09619407152,-4.5));
#1409=CARTESIAN_POINT('',(5.66295591425271,0.648827396450013,-4.5));
#1410=CARTESIAN_POINT('',(4.09093268028933,38.0933089871321,-4.5));
#1411=CARTESIAN_POINT('Origin',(4.8409312930027,38.094751529326,-4.7783882181415));
#1412=CARTESIAN_POINT('',(4.1148929803542,25.636001406105,-4.5));
#1413=CARTESIAN_POINT('Origin',(5.59092990571612,38.09619407152,-4.5));
#1414=CARTESIAN_POINT('',(-11.8727387738725,38.0626045708134,-4.5));
#1415=CARTESIAN_POINT('Origin',(-65.2640372755998,-11.8692956994943,-2.));
#1416=CARTESIAN_POINT('',(-65.2640372755998,-11.8692956994943,-4.5));
#1417=CARTESIAN_POINT('',(-47.2788383487962,-11.8730038167217,-4.5));
#1418=CARTESIAN_POINT('',(-65.2640372755998,-11.8692956994943,-2.));
#1419=CARTESIAN_POINT('',(-65.2640372755998,-11.8692956994943,-1.));
#1420=CARTESIAN_POINT('',(8.07797865555485,-11.8844170664514,-2.));
#1421=CARTESIAN_POINT('',(8.08900739627302,-11.8844193403136,-2.));
#1422=CARTESIAN_POINT('',(8.07797865555485,-11.8844170664514,-6.));
#1423=CARTESIAN_POINT('',(8.07797865555485,-11.8844170664514,-2.));
#1424=CARTESIAN_POINT('',(6.68706356893694,-11.8841302930765,-6.));
#1425=CARTESIAN_POINT('',(-47.4258024131985,-11.8729735162518,-6.));
#1426=CARTESIAN_POINT('',(6.68706356893694,-11.8841302930765,-4.5));
#1427=CARTESIAN_POINT('',(6.68706356893694,-11.8841302930765,-4.));
#1428=CARTESIAN_POINT('',(-47.2788383487962,-11.8730038167217,-4.5));
#1429=CARTESIAN_POINT('Origin',(-39.426983964155,-15.174622751163,1.06264356575535));
#1430=CARTESIAN_POINT('',(-40.4269839429007,-15.17441657512,1.06264356575535));
#1431=CARTESIAN_POINT('Origin',(-39.426983964155,-15.174622751163,1.06264356575535));
#1432=CARTESIAN_POINT('',(-40.4263035619586,-11.8744166452591,1.06264356575535));
#1433=CARTESIAN_POINT('',(-40.4269839429007,-15.17441657512,1.06264356575535));
#1434=CARTESIAN_POINT('Origin',(-39.4263035832129,-11.8746228213022,1.06264356575535));
#1435=CARTESIAN_POINT('Origin',(-39.426983964155,-15.174622751163,1.06264356575535));
#1436=CARTESIAN_POINT('Origin',(-32.6502642522237,-15.176019948448,1.06264356575535));
#1437=CARTESIAN_POINT('',(-33.6502642309694,-15.1758137724049,1.06264356575535));
#1438=CARTESIAN_POINT('Origin',(-32.6502642522237,-15.176019948448,1.06264356575535));
#1439=CARTESIAN_POINT('',(-33.6495838500272,-11.875813842544,1.06264356575535));
#1440=CARTESIAN_POINT('',(-33.6502642309694,-15.1758137724049,1.06264356575535));
#1441=CARTESIAN_POINT('Origin',(-32.6495838712815,-11.8760200185871,1.06264356575535));
#1442=CARTESIAN_POINT('Origin',(-32.6502642522237,-15.176019948448,1.06264356575535));
#1443=CARTESIAN_POINT('Origin',(-46.2037036760864,-15.1732255538781,1.06264356575535));
#1444=CARTESIAN_POINT('',(-47.2037036548321,-15.1730193778351,1.06264356575535));
#1445=CARTESIAN_POINT('Origin',(-46.2037036760864,-15.1732255538781,1.06264356575535));
#1446=CARTESIAN_POINT('',(-47.20302327389,-11.8730194479742,1.06264356575535));
#1447=CARTESIAN_POINT('',(-47.2037036548321,-15.1730193778351,1.06264356575535));
#1448=CARTESIAN_POINT('Origin',(-46.2030232951443,-11.8732256240173,1.06264356575535));
#1449=CARTESIAN_POINT('Origin',(-46.2037036760864,-15.1732255538781,1.06264356575535));
#1450=CARTESIAN_POINT('Origin',(-25.8735445402923,-15.1774171457329,1.06264356575536));
#1451=CARTESIAN_POINT('',(-26.873544519038,-15.1772109696898,1.06264356575536));
#1452=CARTESIAN_POINT('Origin',(-25.8735445402923,-15.1774171457329,1.06264356575536));
#1453=CARTESIAN_POINT('',(-26.8728641380958,-11.8772110398289,1.06264356575536));
#1454=CARTESIAN_POINT('',(-26.873544519038,-15.1772109696898,1.06264356575536));
#1455=CARTESIAN_POINT('Origin',(-25.8728641593501,-11.877417215872,1.06264356575536));
#1456=CARTESIAN_POINT('Origin',(-25.8735445402923,-15.1774171457329,1.06264356575536));
#1457=CARTESIAN_POINT('Origin',(-18.2929105731001,41.603247986996,5.41654758591072));
#1458=CARTESIAN_POINT('',(-18.2936321892509,38.103248061386,0.412286160294286));
#1459=CARTESIAN_POINT('',(-18.2936321892509,38.103248061386,5.41654758591072));
#1460=CARTESIAN_POINT('',(-18.2936321892509,38.103248061386,2.70827379295537));
#1461=CARTESIAN_POINT('',(-18.2929105731001,41.603247986996,0.412286160294286));
#1462=CARTESIAN_POINT('',(-18.2929105731001,41.603247986996,0.412286160294286));
#1463=CARTESIAN_POINT('',(-18.2929105731001,41.603247986996,5.41654758591072));
#1464=CARTESIAN_POINT('',(-18.2929105731001,41.603247986996,2.70827379295535));
#1465=CARTESIAN_POINT('',(-18.2929105731001,41.603247986996,5.41654758591072));
#1466=CARTESIAN_POINT('Origin',(-13.8808516520686,41.6023383261265,5.41654758591069));
#1467=CARTESIAN_POINT('',(-13.8815732682194,38.1023384005165,5.41654758591069));
#1468=CARTESIAN_POINT('',(-39.5676527030294,38.107634254849,5.41654758591084));
#1469=CARTESIAN_POINT('',(-13.8808516520686,41.6023383261265,5.41654758591069));
#1470=CARTESIAN_POINT('',(-2.89592319764341,41.6000734969962,5.41654758591062));
#1471=CARTESIAN_POINT('',(-13.8808516520686,41.6023383261265,5.41654758591069));
#1472=CARTESIAN_POINT('Origin',(-13.8808516520686,41.6023383261265,0.412286160294286));
#1473=CARTESIAN_POINT('',(-13.8815732682194,38.1023384005165,0.412286160294286));
#1474=CARTESIAN_POINT('',(-13.8815732682194,38.1023384005165,0.206143080147143));
#1475=CARTESIAN_POINT('',(-13.8808516520686,41.6023383261265,0.412286160294286));
#1476=CARTESIAN_POINT('',(-13.8808516520686,41.6023383261265,0.206143080147143));
#1477=CARTESIAN_POINT('',(-13.8808516520686,41.6023383261265,0.412286160294286));
#1478=CARTESIAN_POINT('Origin',(-18.2929105731001,41.603247986996,0.412286160294286));
#1479=CARTESIAN_POINT('',(-41.7736821635452,38.1080890852838,0.412286160294287));
#1480=CARTESIAN_POINT('',(-5.10195265815919,41.600528327431,0.412286160294286));
#1481=CARTESIAN_POINT('Origin',(-8.32606947048991,41.6011930630919,5.41654758591072));
#1482=CARTESIAN_POINT('',(-8.32679108664067,38.1011931374819,0.412286160294286));
#1483=CARTESIAN_POINT('',(-8.32679108664067,38.1011931374819,5.41654758591072));
#1484=CARTESIAN_POINT('',(-8.32679108664067,38.1011931374819,2.70827379295535));
#1485=CARTESIAN_POINT('',(-8.32606947048991,41.6011930630919,0.412286160294286));
#1486=CARTESIAN_POINT('',(-8.32606947048991,41.6011930630919,0.412286160294286));
#1487=CARTESIAN_POINT('',(-8.32606947048991,41.6011930630919,5.41654758591072));
#1488=CARTESIAN_POINT('',(-8.32606947048991,41.6011930630919,2.70827379295536));
#1489=CARTESIAN_POINT('',(-8.32606947048991,41.6011930630919,5.41654758591072));
#1490=CARTESIAN_POINT('Origin',(-3.91401054945836,41.6002834022224,5.41654758591069));
#1491=CARTESIAN_POINT('',(-3.91473216560911,38.1002834766124,5.41654758591069));
#1492=CARTESIAN_POINT('',(-34.5842321517243,38.106606792897,5.41654758591087));
#1493=CARTESIAN_POINT('',(-3.91401054945835,41.6002834022224,5.41654758591069));
#1494=CARTESIAN_POINT('',(2.08749735366172,41.5990460350441,5.41654758591065));
#1495=CARTESIAN_POINT('',(-3.91401054945835,41.6002834022224,5.41654758591069));
#1496=CARTESIAN_POINT('Origin',(-3.91401054945835,41.6002834022224,0.412286160294286));
#1497=CARTESIAN_POINT('',(-3.91473216560911,38.1002834766124,0.412286160294286));
#1498=CARTESIAN_POINT('',(-3.91473216560912,38.1002834766124,0.206143080147143));
#1499=CARTESIAN_POINT('',(-3.91401054945835,41.6002834022224,0.412286160294286));
#1500=CARTESIAN_POINT('',(-3.91401054945836,41.6002834022224,0.206143080147143));
#1501=CARTESIAN_POINT('',(-3.91401054945835,41.6002834022224,0.412286160294286));
#1502=CARTESIAN_POINT('Origin',(-8.32606947048991,41.6011930630919,0.412286160294286));
#1503=CARTESIAN_POINT('',(-36.7902616122401,38.1070616233317,0.412286160294287));
#1504=CARTESIAN_POINT('',(-0.118532106854069,41.5995008654789,0.412286160294286));
#1505=CARTESIAN_POINT('Origin',(-39.1937573453714,41.607557240972,5.41654758591072));
#1506=CARTESIAN_POINT('',(-39.1944789615221,38.107557315362,0.412286160294286));
#1507=CARTESIAN_POINT('',(-39.1944789615221,38.107557315362,5.41654758591072));
#1508=CARTESIAN_POINT('',(-39.1944789615221,38.107557315362,2.70827379295536));
#1509=CARTESIAN_POINT('',(-39.1937573453714,41.607557240972,0.412286160294286));
#1510=CARTESIAN_POINT('',(-39.1937573453714,41.607557240972,0.412286160294286));
#1511=CARTESIAN_POINT('',(-39.1937573453714,41.607557240972,5.41654758591072));
#1512=CARTESIAN_POINT('',(-39.1937573453714,41.607557240972,2.70827379295536));
#1513=CARTESIAN_POINT('',(-39.1937573453714,41.607557240972,5.41654758591072));
#1514=CARTESIAN_POINT('Origin',(-34.7816984149802,41.6066475801006,5.41654758591069));
#1515=CARTESIAN_POINT('',(-34.7824200311309,38.1066476544906,5.41654758591069));
#1516=CARTESIAN_POINT('',(-50.0180760844852,38.1097888818361,5.41654758591078));
#1517=CARTESIAN_POINT('',(-34.7816984149802,41.6066475801006,5.41654758591069));
#1518=CARTESIAN_POINT('',(-13.3463465790992,41.6022281239833,5.41654758591056));
#1519=CARTESIAN_POINT('',(-34.7816984149802,41.6066475801006,5.41654758591069));
#1520=CARTESIAN_POINT('Origin',(-34.7816984149802,41.6066475801006,0.412286160294286));
#1521=CARTESIAN_POINT('',(-34.7824200311309,38.1066476544906,0.412286160294286));
#1522=CARTESIAN_POINT('',(-34.7824200311309,38.1066476544906,0.206143080147143));
#1523=CARTESIAN_POINT('',(-34.7816984149802,41.6066475801006,0.412286160294286));
#1524=CARTESIAN_POINT('',(-34.7816984149802,41.6066475801006,0.206143080147143));
#1525=CARTESIAN_POINT('',(-34.7816984149802,41.6066475801006,0.412286160294286));
#1526=CARTESIAN_POINT('Origin',(-39.1937573453714,41.607557240972,0.412286160294286));
#1527=CARTESIAN_POINT('',(-52.2241055496809,38.1102437122718,0.412286160294287));
#1528=CARTESIAN_POINT('',(-15.5523760442948,41.602682954419,0.412286160294286));
#1529=CARTESIAN_POINT('Origin',(6.68706356893694,-11.8841302930765,-6.));
#1530=CARTESIAN_POINT('',(6.59092805600065,38.098117461112,-6.));
#1531=CARTESIAN_POINT('',(6.61488835606552,25.6408098800849,-6.));
#1532=CARTESIAN_POINT('',(6.59092805600065,38.098117461112,-4.5));
#1533=CARTESIAN_POINT('',(6.59092805600064,38.098117461112,-4.));
#1534=CARTESIAN_POINT('',(6.61488835606552,25.6408098800849,-4.5));
#1535=CARTESIAN_POINT('Origin',(-29.2884868533315,13.1143999080525,-4.5));
#1536=CARTESIAN_POINT('',(-65.2537321378396,38.1129301091815,-4.5));
#1537=CARTESIAN_POINT('',(-10.5975253218006,38.1016613084913,-4.5));
#1538=CARTESIAN_POINT('',(-65.2616156233016,-0.123739762552725,-4.5));
#1539=CARTESIAN_POINT('Origin',(-65.2643465396645,-13.3692956676128,0.));
#1540=CARTESIAN_POINT('',(-65.2537321378396,38.1129301091815,-2.));
#1541=CARTESIAN_POINT('',(-65.2537321378396,38.1129301091815,-1.));
#1542=CARTESIAN_POINT('',(-65.253422873775,39.6129300773001,-2.));
#1543=CARTESIAN_POINT('',(-65.2589620227359,12.7468172128138,-2.));
#1544=CARTESIAN_POINT('',(-65.253422873775,39.6129300773001,0.));
#1545=CARTESIAN_POINT('',(-65.253422873775,39.6129300773001,0.));
#1546=CARTESIAN_POINT('',(-65.2537321378396,38.1129301091815,0.));
#1547=CARTESIAN_POINT('',(-65.2589620227359,12.7468172128138,0.));
#1548=CARTESIAN_POINT('',(-65.2537321378396,38.1129301091815,10.));
#1549=CARTESIAN_POINT('',(-65.2537321378396,38.1129301091815,0.));
#1550=CARTESIAN_POINT('',(-65.253422873775,39.6129300773001,10.));
#1551=CARTESIAN_POINT('',(-65.2589620227359,12.7468172128138,10.));
#1552=CARTESIAN_POINT('',(-65.253422873775,39.6129300773001,13.3023140983607));
#1553=CARTESIAN_POINT('',(-65.253422873775,39.6129300773001,0.));
#1554=CARTESIAN_POINT('',(-65.2535259617965,39.1129300879273,13.3023140983607));
#1555=CARTESIAN_POINT('',(-65.2616156231921,-0.123739231392402,13.3023140983607));
#1556=CARTESIAN_POINT('',(-65.2535259617965,39.1129300879273,15.3023140983607));
#1557=CARTESIAN_POINT('Origin',(-65.2535259617965,39.1129300879273,14.3023140983607));
#1558=CARTESIAN_POINT('',(-65.253422873775,39.6129300773001,15.3023140983607));
#1559=CARTESIAN_POINT('',(-65.2616156231921,-0.123739231392402,15.3023140983607));
#1560=CARTESIAN_POINT('',(-65.253422873775,39.6129300773001,16.8023140983607));
#1561=CARTESIAN_POINT('',(-65.253422873775,39.6129300773001,0.));
#1562=CARTESIAN_POINT('',(-65.2643465396645,-13.3692956676128,16.8023140983607));
#1563=CARTESIAN_POINT('',(-65.2616156230672,-0.123738625834888,16.8023140983607));
#1564=CARTESIAN_POINT('',(-65.2643465396645,-13.3692956676128,15.3023140983607));
#1565=CARTESIAN_POINT('',(-65.2643465396645,-13.3692956676128,0.));
#1566=CARTESIAN_POINT('',(-65.2642434516429,-12.86929567824,15.3023140983607));
#1567=CARTESIAN_POINT('',(-65.2616156231921,-0.123739231392402,15.3023140983607));
#1568=CARTESIAN_POINT('',(-65.2642434516429,-12.86929567824,13.3023140983607));
#1569=CARTESIAN_POINT('Origin',(-65.2642434516429,-12.86929567824,14.3023140983607));
#1570=CARTESIAN_POINT('',(-65.2643465396645,-13.3692956676128,13.3023140983607));
#1571=CARTESIAN_POINT('',(-65.2616156231921,-0.123739231392402,13.3023140983607));
#1572=CARTESIAN_POINT('',(-65.2643465396645,-13.3692956676128,10.));
#1573=CARTESIAN_POINT('',(-65.2643465396645,-13.3692956676128,0.));
#1574=CARTESIAN_POINT('',(-65.2640372755998,-11.8692956994943,10.));
#1575=CARTESIAN_POINT('',(-65.2642692236483,-12.9942956755834,10.));
#1576=CARTESIAN_POINT('',(-65.2640372755998,-11.8692956994943,0.));
#1577=CARTESIAN_POINT('',(-65.2640372755998,-11.8692956994943,0.));
#1578=CARTESIAN_POINT('',(-65.2643465396645,-13.3692956676128,0.));
#1579=CARTESIAN_POINT('',(-65.2642692236483,-12.9942956755834,0.));
#1580=CARTESIAN_POINT('',(-65.2643465396645,-13.3692956676128,-2.));
#1581=CARTESIAN_POINT('',(-65.2643465396645,-13.3692956676128,0.));
#1582=CARTESIAN_POINT('',(-65.2642692236483,-12.9942956755834,-2.));
#1583=CARTESIAN_POINT('Origin',(-28.5878768146296,13.1142565213646,13.3023140983607));
#1584=CARTESIAN_POINT('',(8.08848982381123,39.0978087210001,13.3023140983607));
#1585=CARTESIAN_POINT('',(-10.2470141265161,39.1015890627327,13.3023140983607));
#1586=CARTESIAN_POINT('',(8.08859290469562,39.5978087103745,13.3023140983607));
#1587=CARTESIAN_POINT('',(-46.9179189277299,39.6091497355684,13.3023140983607));
#1588=CARTESIAN_POINT('',(8.08570740186676,25.602252342415,13.3023140983607));
#1589=CARTESIAN_POINT('Origin',(-10.2470141265161,39.1015890627327,14.3023140983607));
#1590=CARTESIAN_POINT('',(8.08848982381123,39.0978087210001,15.3023140983607));
#1591=CARTESIAN_POINT('Origin',(8.08848982381123,39.0978087210001,14.3023140983607));
#1592=CARTESIAN_POINT('',(-10.2470141265161,39.1015890627327,15.3023140983607));
#1593=CARTESIAN_POINT('Origin',(8.08859291040534,39.5978087103733,0.));
#1594=CARTESIAN_POINT('',(8.08859290469562,39.5978087103745,10.));
#1595=CARTESIAN_POINT('',(8.08859290469562,39.5978087103745,0.));
#1596=CARTESIAN_POINT('',(8.08828364063102,38.0978087422559,10.));
#1597=CARTESIAN_POINT('',(8.08900525678177,41.5978086678659,10.));
#1598=CARTESIAN_POINT('',(8.08828364063102,38.0978087422559,0.));
#1599=CARTESIAN_POINT('',(8.08828364063102,38.0978087422559,0.));
#1600=CARTESIAN_POINT('',(8.08859290469562,39.5978087103745,0.));
#1601=CARTESIAN_POINT('',(8.08900525678177,41.5978086678659,0.));
#1602=CARTESIAN_POINT('',(8.08859290469562,39.5978087103745,-2.));
#1603=CARTESIAN_POINT('',(8.08859290469562,39.5978087103745,0.));
#1604=CARTESIAN_POINT('',(8.08828364063102,38.0978087422559,-2.));
#1605=CARTESIAN_POINT('',(8.08900525678177,41.5978086678659,-2.));
#1606=CARTESIAN_POINT('',(8.08828364063102,38.0978087422559,-6.));
#1607=CARTESIAN_POINT('',(8.08828364063102,38.0978087422559,-2.));
#1608=CARTESIAN_POINT('',(8.08900525678177,41.5978086678659,-6.));
#1609=CARTESIAN_POINT('',(8.08900525678177,41.5978086678659,-6.));
#1610=CARTESIAN_POINT('',(8.08900525678177,41.5978086678659,16.8023140983607));
#1611=CARTESIAN_POINT('',(8.08900525678177,41.5978086678659,0.));
#1612=CARTESIAN_POINT('',(8.08859290469562,39.5978087103745,16.8023140983607));
#1613=CARTESIAN_POINT('',(8.08586203188306,26.3522529334513,16.8023140983607));
#1614=CARTESIAN_POINT('',(8.08859290469562,39.5978087103745,15.3023140983607));
#1615=CARTESIAN_POINT('',(8.08859290469562,39.5978087103745,0.));
#1616=CARTESIAN_POINT('',(8.08570740186676,25.602252342415,15.3023140983607));
#1617=CARTESIAN_POINT('Origin',(8.07725704939609,-15.3844169920635,0.));
#1618=CARTESIAN_POINT('',(8.07777248236664,-12.8844170451977,15.3023140983607));
#1619=CARTESIAN_POINT('',(8.07777248236664,-12.8844170451977,13.3023140983607));
#1620=CARTESIAN_POINT('Origin',(8.07777248236663,-12.8844170451977,14.3023140983607));
#1621=CARTESIAN_POINT('',(8.07766939577252,-13.3844170345709,15.3023140983607));
#1622=CARTESIAN_POINT('',(8.08040027444152,-0.138860545997363,15.3023140983607));
#1623=CARTESIAN_POINT('',(8.07766939577252,-13.3844170345709,16.8023140983607));
#1624=CARTESIAN_POINT('',(8.07766939577252,-13.3844170345709,0.));
#1625=CARTESIAN_POINT('',(8.07725704939609,-15.3844169920635,16.8023140983607));
#1626=CARTESIAN_POINT('',(8.08019410137844,-1.13885991776711,16.8023140983607));
#1627=CARTESIAN_POINT('',(8.07725704939609,-15.3844169920635,-6.));
#1628=CARTESIAN_POINT('',(8.07725704939609,-15.3844169920635,0.));
#1629=CARTESIAN_POINT('',(8.08065799104317,1.11113999190469,-6.));
#1630=CARTESIAN_POINT('',(8.07766939577252,-13.3844170345709,-2.));
#1631=CARTESIAN_POINT('',(8.08900525678177,41.5978086678659,-2.));
#1632=CARTESIAN_POINT('',(8.07766939577252,-13.3844170345709,0.));
#1633=CARTESIAN_POINT('',(8.07766939577252,-13.3844170345709,0.));
#1634=CARTESIAN_POINT('',(8.07797865555485,-11.8844170664514,0.));
#1635=CARTESIAN_POINT('',(8.08900525678177,41.5978086678659,0.));
#1636=CARTESIAN_POINT('',(8.07797865555485,-11.8844170664514,10.));
#1637=CARTESIAN_POINT('',(8.07797865555485,-11.8844170664514,0.));
#1638=CARTESIAN_POINT('',(8.07766939577252,-13.3844170345709,10.));
#1639=CARTESIAN_POINT('',(8.08900525678177,41.5978086678659,10.));
#1640=CARTESIAN_POINT('',(8.07766939577252,-13.3844170345709,13.3023140983607));
#1641=CARTESIAN_POINT('',(8.07766939577252,-13.3844170345709,0.));
#1642=CARTESIAN_POINT('',(8.08040027444152,-0.138860545997363,13.3023140983607));
#1643=CARTESIAN_POINT('Origin',(-46.9287395055979,-12.8730760199717,14.3023140983607));
#1644=CARTESIAN_POINT('',(-46.9287395055979,-12.8730760199717,13.3023140983607));
#1645=CARTESIAN_POINT('',(-46.9287395055979,-12.8730760199717,15.3023140983607));
#1646=CARTESIAN_POINT('Origin',(-28.5878768146296,13.1142565213646,15.3023140983607));
#1647=CARTESIAN_POINT('',(-10.2578346259009,-13.3806366928236,15.3023140983607));
#1648=CARTESIAN_POINT('Origin',(-28.5878768146296,13.1142565213646,13.3023140983607));
#1649=CARTESIAN_POINT('',(-10.2578346259009,-13.3806366928236,13.3023140983607));
#1650=CARTESIAN_POINT('Origin',(8.07766939577252,-13.3844170345709,0.));
#1651=CARTESIAN_POINT('',(-10.7548975349377,-13.3805342103576,16.8023140983607));
#1652=CARTESIAN_POINT('Origin',(-28.5878768146296,13.1142565213646,15.3023140983607));
#1653=CARTESIAN_POINT('',(-46.9179189277299,39.6091497355684,15.3023140983607));
#1654=CARTESIAN_POINT('Origin',(-65.253422873775,39.6129300773001,0.));
#1655=CARTESIAN_POINT('',(-47.4149818367667,39.6092522180343,16.8023140983607));
#1656=CARTESIAN_POINT('Origin',(-65.253422873775,39.6129300773001,0.));
#1657=CARTESIAN_POINT('',(-46.9179189277299,39.6091497355684,10.));
#1658=CARTESIAN_POINT('Origin',(-28.5931839420548,-12.6268563670326,-2.));
#1659=CARTESIAN_POINT('',(-10.2578345891573,-13.3806366928311,-2.));
#1660=CARTESIAN_POINT('Origin',(8.07766939577252,-13.3844170345709,0.));
#1661=CARTESIAN_POINT('',(-10.2578345891573,-13.3806366928311,0.));
#1662=CARTESIAN_POINT('Origin',(8.08828364063102,38.0978087422559,-2.));
#1663=CARTESIAN_POINT('',(-10.7444893862029,38.1016916089612,-6.));
#1664=CARTESIAN_POINT('',(-67.2537321378396,38.1133424612764,-2.));
#1665=CARTESIAN_POINT('Origin',(-28.5825696137171,38.855369409777,-2.));
#1666=CARTESIAN_POINT('',(-46.9179189277299,39.6091497355684,-2.));
#1667=CARTESIAN_POINT('Origin',(-65.253422873775,39.6129300773001,0.));
#1668=CARTESIAN_POINT('',(-46.9179189277299,39.6091497355684,0.));
#1669=CARTESIAN_POINT('Origin',(8.08900525678177,41.5978086678659,0.));
#1670=CARTESIAN_POINT('',(-67.2530105216888,41.6133423868865,-6.));
#1671=CARTESIAN_POINT('',(-67.2530105216888,41.6133423868865,-6.));
#1672=CARTESIAN_POINT('',(-67.2530105216888,41.6133423868865,16.8023140983607));
#1673=CARTESIAN_POINT('',(-67.2530105216888,41.6133423868865,0.));
#1674=CARTESIAN_POINT('',(-10.7435615954453,41.601691492063,16.8023140983607));
#1675=CARTESIAN_POINT('Origin',(-67.2530105216888,41.6133423868865,0.));
#1676=CARTESIAN_POINT('',(-67.2530005039378,-15.3688856973073,-6.));
#1677=CARTESIAN_POINT('',(-67.2530005039378,-15.3688856973073,-6.));
#1678=CARTESIAN_POINT('',(-67.2530005039378,-15.3688856973073,16.8023140983607));
#1679=CARTESIAN_POINT('',(-67.2530005039378,-15.3688856973073,0.));
#1680=CARTESIAN_POINT('',(-67.2530080165679,27.3638992307768,16.8023140983607));
#1681=CARTESIAN_POINT('Origin',(-65.2537321378396,38.1129301091815,0.));
#1682=CARTESIAN_POINT('',(-67.2537321378396,38.1133424612764,0.));
#1683=CARTESIAN_POINT('',(-67.2537321378396,38.1133424612764,10.));
#1684=CARTESIAN_POINT('Origin',(-28.5825696137171,38.855369409777,10.));
#1685=CARTESIAN_POINT('Origin',(-28.5825696137171,38.855369409777,0.));
#1686=CARTESIAN_POINT('Origin',(8.07797865555485,-11.8844170664514,0.));
#1687=CARTESIAN_POINT('',(8.08900739627302,-11.8844193403136,0.));
#1688=CARTESIAN_POINT('',(8.08900739627302,-11.8844193403136,10.));
#1689=CARTESIAN_POINT('Origin',(-28.5931839420548,-12.6268563670326,10.));
#1690=CARTESIAN_POINT('',(-10.2578345891573,-13.3806366928311,10.));
#1691=CARTESIAN_POINT('Origin',(-28.5931839420548,-12.6268563670326,0.));
#1692=CARTESIAN_POINT('Origin',(8.07766939577252,-13.3844170345709,0.));
#1693=CARTESIAN_POINT('Origin',(-29.5820026324535,13.1144626974115,-6.));
#1694=CARTESIAN_POINT('',(8.07725704939609,-15.3844169920635,-6.));
#1695=CARTESIAN_POINT('Origin',(-67.2530005039378,-15.3688856973073,0.));
#1696=CARTESIAN_POINT('',(-48.4204386608359,-15.3727685204716,16.8023140983607));
#1697=CARTESIAN_POINT('Origin',(-29.5820026324535,13.1144626974115,16.8023140983607));
#1698=UNCERTAINTY_MEASURE_WITH_UNIT(LENGTH_MEASURE(0.01),#1702,
'DISTANCE_ACCURACY_VALUE',
'Maximum model space distance between geometric entities at asserted c
onnectivities');
#1699=UNCERTAINTY_MEASURE_WITH_UNIT(LENGTH_MEASURE(0.01),#1702,
'DISTANCE_ACCURACY_VALUE',
'Maximum model space distance between geometric entities at asserted c
onnectivities');
#1700=(
GEOMETRIC_REPRESENTATION_CONTEXT(3)
GLOBAL_UNCERTAINTY_ASSIGNED_CONTEXT((#1698))
GLOBAL_UNIT_ASSIGNED_CONTEXT((#1702,#1704,#1705))
REPRESENTATION_CONTEXT('','3D')
);
#1701=(
GEOMETRIC_REPRESENTATION_CONTEXT(3)
GLOBAL_UNCERTAINTY_ASSIGNED_CONTEXT((#1699))
GLOBAL_UNIT_ASSIGNED_CONTEXT((#1702,#1704,#1705))
REPRESENTATION_CONTEXT('','3D')
);
#1702=(
LENGTH_UNIT()
NAMED_UNIT(*)
SI_UNIT(.MILLI.,.METRE.)
);
#1703=(
LENGTH_UNIT()
NAMED_UNIT(*)
SI_UNIT($,.METRE.)
);
#1704=(
NAMED_UNIT(*)
PLANE_ANGLE_UNIT()
SI_UNIT($,.RADIAN.)
);
#1705=(
NAMED_UNIT(*)
SI_UNIT($,.STERADIAN.)
SOLID_ANGLE_UNIT()
);
#1706=SHAPE_DEFINITION_REPRESENTATION(#1707,#1708);
#1707=PRODUCT_DEFINITION_SHAPE('',$,#1710);
#1708=SHAPE_REPRESENTATION('',(#1066),#1700);
#1709=PRODUCT_DEFINITION_CONTEXT('part definition',#1714,'design');
#1710=PRODUCT_DEFINITION('Box','Box',#1711,#1709);
#1711=PRODUCT_DEFINITION_FORMATION('',$,#1716);
#1712=PRODUCT_RELATED_PRODUCT_CATEGORY('Box','Box',(#1716));
#1713=APPLICATION_PROTOCOL_DEFINITION('international standard',
'automotive_design',2009,#1714);
#1714=APPLICATION_CONTEXT(
'Core Data for Automotive Mechanical Design Process');
#1715=PRODUCT_CONTEXT('part definition',#1714,'mechanical');
#1716=PRODUCT('Box','Box',$,(#1715));
#1717=PRESENTATION_STYLE_ASSIGNMENT((#1719));
#1718=PRESENTATION_STYLE_ASSIGNMENT((#1720));
#1719=SURFACE_STYLE_USAGE(.BOTH.,#1721);
#1720=SURFACE_STYLE_USAGE(.BOTH.,#1722);
#1721=SURFACE_SIDE_STYLE('',(#1723));
#1722=SURFACE_SIDE_STYLE('',(#1724));
#1723=SURFACE_STYLE_FILL_AREA(#1725);
#1724=SURFACE_STYLE_FILL_AREA(#1726);
#1725=FILL_AREA_STYLE('Steel - Satin',(#1727));
#1726=FILL_AREA_STYLE('Nylon 6-6 (White)',(#1728));
#1727=FILL_AREA_STYLE_COLOUR('Steel - Satin',#1729);
#1728=FILL_AREA_STYLE_COLOUR('Nylon 6-6 (White)',#1730);
#1729=COLOUR_RGB('Steel - Satin',0.627450980392157,0.627450980392157,0.627450980392157);
#1730=COLOUR_RGB('Nylon 6-6 (White)',0.972549019607843,0.968627450980392,
0.929411764705882);
ENDSEC;
END-ISO-10303-21;
