ISO-10303-21;
HEADER;
/* Generated by software containing ST-Developer
 * from STEP Tools, Inc. (www.steptools.com) 
 */

FILE_DESCRIPTION(
/* description */ (''),
/* implementation_level */ '2;1');

FILE_NAME(
/* name */ 'Lid.step',
/* time_stamp */ '2026-04-11T15:10:51+01:00',
/* author */ (''),
/* organization */ (''),
/* preprocessor_version */ 'ST-DEVELOPER v20.1',
/* originating_system */ 'Autodesk Translation Framework v14.24.0.0',
/* authorisation */ '');

FILE_SCHEMA (('AUTOMOTIVE_DESIGN { 1 0 10303 214 3 1 1 }'));
ENDSEC;

DATA;
#10=MECHANICAL_DESIGN_GEOMETRIC_PRESENTATION_REPRESENTATION('',(#13),#1880);
#11=SHAPE_REPRESENTATION_RELATIONSHIP('SRR','None',#1887,#12);
#12=ADVANCED_BREP_SHAPE_REPRESENTATION('',(#14),#1879);
#13=STYLED_ITEM('',(#1896),#14);
#14=MANIFOLD_SOLID_BREP('Body3',#1151);
#15=FACE_BOUND('',#158,.T.);
#16=FACE_BOUND('',#159,.T.);
#17=FACE_BOUND('',#160,.T.);
#18=FACE_BOUND('',#161,.T.);
#19=FACE_BOUND('',#166,.T.);
#20=FACE_BOUND('',#175,.T.);
#21=FACE_BOUND('',#179,.T.);
#22=FACE_BOUND('',#180,.T.);
#23=FACE_BOUND('',#181,.T.);
#24=FACE_BOUND('',#182,.T.);
#25=CYLINDRICAL_SURFACE('',#1192,0.95);
#26=CYLINDRICAL_SURFACE('',#1197,1.15);
#27=CYLINDRICAL_SURFACE('',#1199,1.15);
#28=CYLINDRICAL_SURFACE('',#1226,2.71806201209584);
#29=CYLINDRICAL_SURFACE('',#1228,2.71806201209584);
#30=CYLINDRICAL_SURFACE('',#1230,2.71806201209584);
#31=CYLINDRICAL_SURFACE('',#1232,0.755801434511114);
#32=ELLIPSE('',#1182,0.950002154155125,0.95);
#33=(
BOUNDED_CURVE()
B_SPLINE_CURVE(2,(#1604,#1605,#1606),.UNSPECIFIED.,.F.,.F.)
B_SPLINE_CURVE_WITH_KNOTS((3,3),(2.42153906815556E-6,4.99776917102587),
 .UNSPECIFIED.)
CURVE()
GEOMETRIC_REPRESENTATION_ITEM()
RATIONAL_B_SPLINE_CURVE((0.99999999439472,0.994215683525776,0.999999364021452))
REPRESENTATION_ITEM('')
);
#34=CIRCLE('',#1166,1.25);
#35=CIRCLE('',#1167,1.25);
#36=CIRCLE('',#1169,1.25);
#37=CIRCLE('',#1170,1.25);
#38=CIRCLE('',#1172,1.25);
#39=CIRCLE('',#1173,1.25);
#40=CIRCLE('',#1175,1.25);
#41=CIRCLE('',#1176,1.25);
#42=CIRCLE('',#1189,1.15);
#43=CIRCLE('',#1191,1.15);
#44=CIRCLE('',#1193,0.95);
#45=CIRCLE('',#1198,1.15);
#46=CIRCLE('',#1200,1.15);
#47=CIRCLE('',#1217,0.755801434511114);
#48=CIRCLE('',#1218,2.71806201209584);
#49=CIRCLE('',#1219,2.71806201209584);
#50=CIRCLE('',#1220,2.71806201209584);
#51=CIRCLE('',#1227,2.71806201209584);
#52=CIRCLE('',#1229,2.71806201209584);
#53=CIRCLE('',#1231,2.71806201209584);
#54=CIRCLE('',#1233,0.755801434511114);
#55=(
BOUNDED_SURFACE()
B_SPLINE_SURFACE(1,2,((#1540,#1541,#1542),(#1543,#1544,#1545)),
 .UNSPECIFIED.,.F.,.F.,.F.)
B_SPLINE_SURFACE_WITH_KNOTS((2,2),(3,3),(0.,1.6),(2.22024576330301E-16,
1.5707963267949),.UNSPECIFIED.)
GEOMETRIC_REPRESENTATION_ITEM()
RATIONAL_B_SPLINE_SURFACE(((1.,0.707106781186547,1.),(1.,0.707106781186547,
1.)))
REPRESENTATION_ITEM('')
SURFACE()
);
#56=(
BOUNDED_SURFACE()
B_SPLINE_SURFACE(1,2,((#1557,#1558,#1559),(#1560,#1561,#1562)),
 .UNSPECIFIED.,.F.,.F.,.F.)
B_SPLINE_SURFACE_WITH_KNOTS((2,2),(3,3),(0.,1.6),(-1.57079632679489,6.66316933355481E-16),
 .UNSPECIFIED.)
GEOMETRIC_REPRESENTATION_ITEM()
RATIONAL_B_SPLINE_SURFACE(((1.,0.707106781186548,1.),(1.,0.707106781186548,
1.)))
REPRESENTATION_ITEM('')
SURFACE()
);
#57=(
BOUNDED_SURFACE()
B_SPLINE_SURFACE(1,2,((#1574,#1575,#1576),(#1577,#1578,#1579)),
 .UNSPECIFIED.,.F.,.F.,.F.)
B_SPLINE_SURFACE_WITH_KNOTS((2,2),(3,3),(-8.1545800358123E-16,1.6),(-3.66237160772979E-19,
1.5707963267949),.UNSPECIFIED.)
GEOMETRIC_REPRESENTATION_ITEM()
RATIONAL_B_SPLINE_SURFACE(((1.,0.707106781186547,1.),(1.,0.707106781186547,
1.)))
REPRESENTATION_ITEM('')
SURFACE()
);
#58=(
BOUNDED_SURFACE()
B_SPLINE_SURFACE(1,2,((#1591,#1592,#1593),(#1594,#1595,#1596)),
 .UNSPECIFIED.,.F.,.F.,.F.)
B_SPLINE_SURFACE_WITH_KNOTS((2,2),(3,3),(0.,1.6),(-1.5707963267949,6.66480023341137E-16),
 .UNSPECIFIED.)
GEOMETRIC_REPRESENTATION_ITEM()
RATIONAL_B_SPLINE_SURFACE(((1.,0.707106781186547,1.),(1.,0.707106781186547,
1.)))
REPRESENTATION_ITEM('')
SURFACE()
);
#59=FACE_OUTER_BOUND('',#116,.T.);
#60=FACE_OUTER_BOUND('',#117,.T.);
#61=FACE_OUTER_BOUND('',#118,.T.);
#62=FACE_OUTER_BOUND('',#119,.T.);
#63=FACE_OUTER_BOUND('',#120,.T.);
#64=FACE_OUTER_BOUND('',#121,.T.);
#65=FACE_OUTER_BOUND('',#122,.T.);
#66=FACE_OUTER_BOUND('',#123,.T.);
#67=FACE_OUTER_BOUND('',#124,.T.);
#68=FACE_OUTER_BOUND('',#125,.T.);
#69=FACE_OUTER_BOUND('',#126,.T.);
#70=FACE_OUTER_BOUND('',#127,.T.);
#71=FACE_OUTER_BOUND('',#128,.T.);
#72=FACE_OUTER_BOUND('',#129,.T.);
#73=FACE_OUTER_BOUND('',#130,.T.);
#74=FACE_OUTER_BOUND('',#131,.T.);
#75=FACE_OUTER_BOUND('',#132,.T.);
#76=FACE_OUTER_BOUND('',#133,.T.);
#77=FACE_OUTER_BOUND('',#134,.T.);
#78=FACE_OUTER_BOUND('',#135,.T.);
#79=FACE_OUTER_BOUND('',#136,.T.);
#80=FACE_OUTER_BOUND('',#137,.T.);
#81=FACE_OUTER_BOUND('',#138,.T.);
#82=FACE_OUTER_BOUND('',#139,.T.);
#83=FACE_OUTER_BOUND('',#140,.T.);
#84=FACE_OUTER_BOUND('',#141,.T.);
#85=FACE_OUTER_BOUND('',#142,.T.);
#86=FACE_OUTER_BOUND('',#143,.T.);
#87=FACE_OUTER_BOUND('',#144,.T.);
#88=FACE_OUTER_BOUND('',#145,.T.);
#89=FACE_OUTER_BOUND('',#146,.T.);
#90=FACE_OUTER_BOUND('',#147,.T.);
#91=FACE_OUTER_BOUND('',#148,.T.);
#92=FACE_OUTER_BOUND('',#149,.T.);
#93=FACE_OUTER_BOUND('',#150,.T.);
#94=FACE_OUTER_BOUND('',#151,.T.);
#95=FACE_OUTER_BOUND('',#152,.T.);
#96=FACE_OUTER_BOUND('',#153,.T.);
#97=FACE_OUTER_BOUND('',#154,.T.);
#98=FACE_OUTER_BOUND('',#155,.T.);
#99=FACE_OUTER_BOUND('',#156,.T.);
#100=FACE_OUTER_BOUND('',#157,.T.);
#101=FACE_OUTER_BOUND('',#162,.T.);
#102=FACE_OUTER_BOUND('',#163,.T.);
#103=FACE_OUTER_BOUND('',#164,.T.);
#104=FACE_OUTER_BOUND('',#165,.T.);
#105=FACE_OUTER_BOUND('',#167,.T.);
#106=FACE_OUTER_BOUND('',#168,.T.);
#107=FACE_OUTER_BOUND('',#169,.T.);
#108=FACE_OUTER_BOUND('',#170,.T.);
#109=FACE_OUTER_BOUND('',#171,.T.);
#110=FACE_OUTER_BOUND('',#172,.T.);
#111=FACE_OUTER_BOUND('',#173,.T.);
#112=FACE_OUTER_BOUND('',#174,.T.);
#113=FACE_OUTER_BOUND('',#176,.T.);
#114=FACE_OUTER_BOUND('',#177,.T.);
#115=FACE_OUTER_BOUND('',#178,.T.);
#116=EDGE_LOOP('',(#726,#727,#728,#729));
#117=EDGE_LOOP('',(#730,#731,#732,#733));
#118=EDGE_LOOP('',(#734,#735,#736,#737));
#119=EDGE_LOOP('',(#738,#739,#740,#741));
#120=EDGE_LOOP('',(#742,#743,#744,#745));
#121=EDGE_LOOP('',(#746,#747,#748,#749));
#122=EDGE_LOOP('',(#750,#751,#752,#753));
#123=EDGE_LOOP('',(#754,#755,#756,#757));
#124=EDGE_LOOP('',(#758,#759,#760,#761,#762,#763));
#125=EDGE_LOOP('',(#764,#765,#766,#767));
#126=EDGE_LOOP('',(#768,#769,#770,#771,#772,#773,#774,#775));
#127=EDGE_LOOP('',(#776,#777,#778,#779,#780,#781));
#128=EDGE_LOOP('',(#782,#783,#784,#785,#786,#787,#788,#789,#790));
#129=EDGE_LOOP('',(#791,#792,#793,#794));
#130=EDGE_LOOP('',(#795,#796,#797,#798));
#131=EDGE_LOOP('',(#799,#800,#801,#802));
#132=EDGE_LOOP('',(#803,#804,#805,#806));
#133=EDGE_LOOP('',(#807,#808,#809,#810));
#134=EDGE_LOOP('',(#811,#812,#813,#814,#815,#816,#817,#818));
#135=EDGE_LOOP('',(#819,#820,#821,#822,#823,#824,#825,#826));
#136=EDGE_LOOP('',(#827,#828,#829,#830));
#137=EDGE_LOOP('',(#831,#832,#833));
#138=EDGE_LOOP('',(#834,#835,#836,#837));
#139=EDGE_LOOP('',(#838,#839,#840,#841));
#140=EDGE_LOOP('',(#842,#843,#844,#845));
#141=EDGE_LOOP('',(#846,#847,#848,#849));
#142=EDGE_LOOP('',(#850,#851,#852,#853));
#143=EDGE_LOOP('',(#854,#855,#856,#857));
#144=EDGE_LOOP('',(#858,#859,#860,#861));
#145=EDGE_LOOP('',(#862,#863,#864,#865));
#146=EDGE_LOOP('',(#866,#867,#868,#869));
#147=EDGE_LOOP('',(#870,#871,#872,#873));
#148=EDGE_LOOP('',(#874,#875,#876,#877));
#149=EDGE_LOOP('',(#878,#879,#880,#881));
#150=EDGE_LOOP('',(#882,#883,#884,#885));
#151=EDGE_LOOP('',(#886,#887,#888,#889));
#152=EDGE_LOOP('',(#890,#891,#892,#893,#894,#895,#896,#897));
#153=EDGE_LOOP('',(#898,#899,#900,#901,#902));
#154=EDGE_LOOP('',(#903,#904,#905,#906));
#155=EDGE_LOOP('',(#907,#908,#909,#910));
#156=EDGE_LOOP('',(#911,#912,#913,#914));
#157=EDGE_LOOP('',(#915,#916,#917,#918,#919,#920,#921,#922,#923,#924,#925,
#926));
#158=EDGE_LOOP('',(#927));
#159=EDGE_LOOP('',(#928));
#160=EDGE_LOOP('',(#929));
#161=EDGE_LOOP('',(#930));
#162=EDGE_LOOP('',(#931,#932,#933,#934));
#163=EDGE_LOOP('',(#935,#936,#937,#938));
#164=EDGE_LOOP('',(#939,#940,#941,#942,#943,#944,#945,#946,#947,#948));
#165=EDGE_LOOP('',(#949,#950,#951,#952,#953,#954,#955,#956,#957,#958,#959,
#960,#961,#962,#963,#964,#965,#966,#967,#968,#969,#970,#971,#972,#973,#974,
#975,#976,#977,#978,#979,#980));
#166=EDGE_LOOP('',(#981,#982,#983,#984,#985,#986,#987,#988));
#167=EDGE_LOOP('',(#989,#990,#991,#992));
#168=EDGE_LOOP('',(#993,#994,#995,#996));
#169=EDGE_LOOP('',(#997,#998,#999,#1000));
#170=EDGE_LOOP('',(#1001,#1002,#1003,#1004));
#171=EDGE_LOOP('',(#1005,#1006,#1007,#1008));
#172=EDGE_LOOP('',(#1009,#1010,#1011,#1012));
#173=EDGE_LOOP('',(#1013,#1014,#1015,#1016));
#174=EDGE_LOOP('',(#1017,#1018,#1019,#1020));
#175=EDGE_LOOP('',(#1021,#1022,#1023,#1024,#1025,#1026,#1027,#1028));
#176=EDGE_LOOP('',(#1029,#1030,#1031,#1032,#1033));
#177=EDGE_LOOP('',(#1034,#1035,#1036,#1037));
#178=EDGE_LOOP('',(#1038,#1039,#1040,#1041,#1042,#1043));
#179=EDGE_LOOP('',(#1044));
#180=EDGE_LOOP('',(#1045));
#181=EDGE_LOOP('',(#1046));
#182=EDGE_LOOP('',(#1047));
#183=LINE('',#1534,#321);
#184=LINE('',#1536,#322);
#185=LINE('',#1538,#323);
#186=LINE('',#1539,#324);
#187=LINE('',#1550,#325);
#188=LINE('',#1553,#326);
#189=LINE('',#1555,#327);
#190=LINE('',#1556,#328);
#191=LINE('',#1567,#329);
#192=LINE('',#1570,#330);
#193=LINE('',#1572,#331);
#194=LINE('',#1573,#332);
#195=LINE('',#1584,#333);
#196=LINE('',#1587,#334);
#197=LINE('',#1589,#335);
#198=LINE('',#1590,#336);
#199=LINE('',#1602,#337);
#200=LINE('',#1608,#338);
#201=LINE('',#1610,#339);
#202=LINE('',#1612,#340);
#203=LINE('',#1613,#341);
#204=LINE('',#1616,#342);
#205=LINE('',#1618,#343);
#206=LINE('',#1619,#344);
#207=LINE('',#1622,#345);
#208=LINE('',#1624,#346);
#209=LINE('',#1626,#347);
#210=LINE('',#1628,#348);
#211=LINE('',#1630,#349);
#212=LINE('',#1631,#350);
#213=LINE('',#1634,#351);
#214=LINE('',#1636,#352);
#215=LINE('',#1638,#353);
#216=LINE('',#1639,#354);
#217=LINE('',#1643,#355);
#218=LINE('',#1645,#356);
#219=LINE('',#1647,#357);
#220=LINE('',#1649,#358);
#221=LINE('',#1650,#359);
#222=LINE('',#1653,#360);
#223=LINE('',#1655,#361);
#224=LINE('',#1656,#362);
#225=LINE('',#1659,#363);
#226=LINE('',#1661,#364);
#227=LINE('',#1662,#365);
#228=LINE('',#1665,#366);
#229=LINE('',#1667,#367);
#230=LINE('',#1668,#368);
#231=LINE('',#1671,#369);
#232=LINE('',#1673,#370);
#233=LINE('',#1674,#371);
#234=LINE('',#1677,#372);
#235=LINE('',#1679,#373);
#236=LINE('',#1680,#374);
#237=LINE('',#1684,#375);
#238=LINE('',#1686,#376);
#239=LINE('',#1688,#377);
#240=LINE('',#1690,#378);
#241=LINE('',#1692,#379);
#242=LINE('',#1696,#380);
#243=LINE('',#1697,#381);
#244=LINE('',#1701,#382);
#245=LINE('',#1703,#383);
#246=LINE('',#1705,#384);
#247=LINE('',#1709,#385);
#248=LINE('',#1711,#386);
#249=LINE('',#1713,#387);
#250=LINE('',#1714,#388);
#251=LINE('',#1719,#389);
#252=LINE('',#1722,#390);
#253=LINE('',#1724,#391);
#254=LINE('',#1725,#392);
#255=LINE('',#1729,#393);
#256=LINE('',#1734,#394);
#257=LINE('',#1735,#395);
#258=LINE('',#1738,#396);
#259=LINE('',#1739,#397);
#260=LINE('',#1742,#398);
#261=LINE('',#1743,#399);
#262=LINE('',#1746,#400);
#263=LINE('',#1747,#401);
#264=LINE('',#1750,#402);
#265=LINE('',#1751,#403);
#266=LINE('',#1754,#404);
#267=LINE('',#1755,#405);
#268=LINE('',#1758,#406);
#269=LINE('',#1759,#407);
#270=LINE('',#1762,#408);
#271=LINE('',#1764,#409);
#272=LINE('',#1765,#410);
#273=LINE('',#1769,#411);
#274=LINE('',#1771,#412);
#275=LINE('',#1773,#413);
#276=LINE('',#1774,#414);
#277=LINE('',#1776,#415);
#278=LINE('',#1777,#416);
#279=LINE('',#1780,#417);
#280=LINE('',#1781,#418);
#281=LINE('',#1784,#419);
#282=LINE('',#1786,#420);
#283=LINE('',#1788,#421);
#284=LINE('',#1790,#422);
#285=LINE('',#1791,#423);
#286=LINE('',#1794,#424);
#287=LINE('',#1796,#425);
#288=LINE('',#1798,#426);
#289=LINE('',#1799,#427);
#290=LINE('',#1802,#428);
#291=LINE('',#1803,#429);
#292=LINE('',#1806,#430);
#293=LINE('',#1807,#431);
#294=LINE('',#1810,#432);
#295=LINE('',#1812,#433);
#296=LINE('',#1813,#434);
#297=LINE('',#1816,#435);
#298=LINE('',#1817,#436);
#299=LINE('',#1819,#437);
#300=LINE('',#1821,#438);
#301=LINE('',#1822,#439);
#302=LINE('',#1823,#440);
#303=LINE('',#1834,#441);
#304=LINE('',#1835,#442);
#305=LINE('',#1837,#443);
#306=LINE('',#1838,#444);
#307=LINE('',#1840,#445);
#308=LINE('',#1842,#446);
#309=LINE('',#1844,#447);
#310=LINE('',#1845,#448);
#311=LINE('',#1850,#449);
#312=LINE('',#1854,#450);
#313=LINE('',#1858,#451);
#314=LINE('',#1862,#452);
#315=LINE('',#1864,#453);
#316=LINE('',#1868,#454);
#317=LINE('',#1869,#455);
#318=LINE('',#1872,#456);
#319=LINE('',#1873,#457);
#320=LINE('',#1875,#458);
#321=VECTOR('',#1244,10.);
#322=VECTOR('',#1245,10.);
#323=VECTOR('',#1246,10.);
#324=VECTOR('',#1247,10.);
#325=VECTOR('',#1252,10.);
#326=VECTOR('',#1255,10.);
#327=VECTOR('',#1256,10.);
#328=VECTOR('',#1257,10.);
#329=VECTOR('',#1262,10.);
#330=VECTOR('',#1265,10.);
#331=VECTOR('',#1266,10.);
#332=VECTOR('',#1267,10.);
#333=VECTOR('',#1272,10.);
#334=VECTOR('',#1275,10.);
#335=VECTOR('',#1276,10.);
#336=VECTOR('',#1277,10.);
#337=VECTOR('',#1284,10.);
#338=VECTOR('',#1285,10.);
#339=VECTOR('',#1286,10.);
#340=VECTOR('',#1287,10.);
#341=VECTOR('',#1288,10.);
#342=VECTOR('',#1291,10.);
#343=VECTOR('',#1292,10.);
#344=VECTOR('',#1293,10.);
#345=VECTOR('',#1296,10.);
#346=VECTOR('',#1297,10.);
#347=VECTOR('',#1298,10.);
#348=VECTOR('',#1299,10.);
#349=VECTOR('',#1300,10.);
#350=VECTOR('',#1301,10.);
#351=VECTOR('',#1304,10.);
#352=VECTOR('',#1305,10.);
#353=VECTOR('',#1306,10.);
#354=VECTOR('',#1307,10.);
#355=VECTOR('',#1312,10.);
#356=VECTOR('',#1313,10.);
#357=VECTOR('',#1314,10.);
#358=VECTOR('',#1315,10.);
#359=VECTOR('',#1316,10.);
#360=VECTOR('',#1319,10.);
#361=VECTOR('',#1320,10.);
#362=VECTOR('',#1321,10.);
#363=VECTOR('',#1324,10.);
#364=VECTOR('',#1325,10.);
#365=VECTOR('',#1326,10.);
#366=VECTOR('',#1329,10.);
#367=VECTOR('',#1330,10.);
#368=VECTOR('',#1331,10.);
#369=VECTOR('',#1334,10.);
#370=VECTOR('',#1335,10.);
#371=VECTOR('',#1336,10.);
#372=VECTOR('',#1339,10.);
#373=VECTOR('',#1340,10.);
#374=VECTOR('',#1341,10.);
#375=VECTOR('',#1344,10.);
#376=VECTOR('',#1345,10.);
#377=VECTOR('',#1346,10.);
#378=VECTOR('',#1347,10.);
#379=VECTOR('',#1348,10.);
#380=VECTOR('',#1351,10.);
#381=VECTOR('',#1352,10.);
#382=VECTOR('',#1355,10.);
#383=VECTOR('',#1356,10.);
#384=VECTOR('',#1357,10.);
#385=VECTOR('',#1360,10.);
#386=VECTOR('',#1361,10.);
#387=VECTOR('',#1362,10.);
#388=VECTOR('',#1363,10.);
#389=VECTOR('',#1372,10.);
#390=VECTOR('',#1375,10.);
#391=VECTOR('',#1376,10.);
#392=VECTOR('',#1377,10.);
#393=VECTOR('',#1382,10.);
#394=VECTOR('',#1387,10.);
#395=VECTOR('',#1388,10.);
#396=VECTOR('',#1391,10.);
#397=VECTOR('',#1392,10.);
#398=VECTOR('',#1395,10.);
#399=VECTOR('',#1396,10.);
#400=VECTOR('',#1399,10.);
#401=VECTOR('',#1400,10.);
#402=VECTOR('',#1403,10.);
#403=VECTOR('',#1404,10.);
#404=VECTOR('',#1407,10.);
#405=VECTOR('',#1408,10.);
#406=VECTOR('',#1411,10.);
#407=VECTOR('',#1412,10.);
#408=VECTOR('',#1415,10.);
#409=VECTOR('',#1416,10.);
#410=VECTOR('',#1417,10.);
#411=VECTOR('',#1420,10.);
#412=VECTOR('',#1421,10.);
#413=VECTOR('',#1422,10.);
#414=VECTOR('',#1423,10.);
#415=VECTOR('',#1426,10.);
#416=VECTOR('',#1427,10.);
#417=VECTOR('',#1430,10.);
#418=VECTOR('',#1431,10.);
#419=VECTOR('',#1434,10.);
#420=VECTOR('',#1435,10.);
#421=VECTOR('',#1436,10.);
#422=VECTOR('',#1437,10.);
#423=VECTOR('',#1438,10.);
#424=VECTOR('',#1441,10.);
#425=VECTOR('',#1442,10.);
#426=VECTOR('',#1443,10.);
#427=VECTOR('',#1444,10.);
#428=VECTOR('',#1447,10.);
#429=VECTOR('',#1448,10.);
#430=VECTOR('',#1451,10.);
#431=VECTOR('',#1452,10.);
#432=VECTOR('',#1455,10.);
#433=VECTOR('',#1456,10.);
#434=VECTOR('',#1457,10.);
#435=VECTOR('',#1460,10.);
#436=VECTOR('',#1461,10.);
#437=VECTOR('',#1462,10.);
#438=VECTOR('',#1463,10.);
#439=VECTOR('',#1464,10.);
#440=VECTOR('',#1465,10.);
#441=VECTOR('',#1476,10.);
#442=VECTOR('',#1477,10.);
#443=VECTOR('',#1480,10.);
#444=VECTOR('',#1481,10.);
#445=VECTOR('',#1484,10.);
#446=VECTOR('',#1487,10.);
#447=VECTOR('',#1488,10.);
#448=VECTOR('',#1489,10.);
#449=VECTOR('',#1496,2.71806201209584);
#450=VECTOR('',#1501,2.71806201209584);
#451=VECTOR('',#1506,2.71806201209584);
#452=VECTOR('',#1511,0.755801434511114);
#453=VECTOR('',#1514,10.);
#454=VECTOR('',#1519,10.);
#455=VECTOR('',#1520,10.);
#456=VECTOR('',#1523,10.);
#457=VECTOR('',#1524,10.);
#458=VECTOR('',#1527,10.);
#459=VERTEX_POINT('',#1532);
#460=VERTEX_POINT('',#1533);
#461=VERTEX_POINT('',#1535);
#462=VERTEX_POINT('',#1537);
#463=VERTEX_POINT('',#1546);
#464=VERTEX_POINT('',#1548);
#465=VERTEX_POINT('',#1552);
#466=VERTEX_POINT('',#1554);
#467=VERTEX_POINT('',#1563);
#468=VERTEX_POINT('',#1565);
#469=VERTEX_POINT('',#1569);
#470=VERTEX_POINT('',#1571);
#471=VERTEX_POINT('',#1580);
#472=VERTEX_POINT('',#1582);
#473=VERTEX_POINT('',#1586);
#474=VERTEX_POINT('',#1588);
#475=VERTEX_POINT('',#1600);
#476=VERTEX_POINT('',#1601);
#477=VERTEX_POINT('',#1603);
#478=VERTEX_POINT('',#1607);
#479=VERTEX_POINT('',#1609);
#480=VERTEX_POINT('',#1611);
#481=VERTEX_POINT('',#1615);
#482=VERTEX_POINT('',#1617);
#483=VERTEX_POINT('',#1621);
#484=VERTEX_POINT('',#1623);
#485=VERTEX_POINT('',#1625);
#486=VERTEX_POINT('',#1627);
#487=VERTEX_POINT('',#1629);
#488=VERTEX_POINT('',#1633);
#489=VERTEX_POINT('',#1635);
#490=VERTEX_POINT('',#1637);
#491=VERTEX_POINT('',#1642);
#492=VERTEX_POINT('',#1644);
#493=VERTEX_POINT('',#1646);
#494=VERTEX_POINT('',#1648);
#495=VERTEX_POINT('',#1652);
#496=VERTEX_POINT('',#1654);
#497=VERTEX_POINT('',#1658);
#498=VERTEX_POINT('',#1660);
#499=VERTEX_POINT('',#1664);
#500=VERTEX_POINT('',#1666);
#501=VERTEX_POINT('',#1670);
#502=VERTEX_POINT('',#1672);
#503=VERTEX_POINT('',#1676);
#504=VERTEX_POINT('',#1678);
#505=VERTEX_POINT('',#1682);
#506=VERTEX_POINT('',#1683);
#507=VERTEX_POINT('',#1685);
#508=VERTEX_POINT('',#1687);
#509=VERTEX_POINT('',#1689);
#510=VERTEX_POINT('',#1691);
#511=VERTEX_POINT('',#1693);
#512=VERTEX_POINT('',#1695);
#513=VERTEX_POINT('',#1699);
#514=VERTEX_POINT('',#1700);
#515=VERTEX_POINT('',#1702);
#516=VERTEX_POINT('',#1704);
#517=VERTEX_POINT('',#1706);
#518=VERTEX_POINT('',#1708);
#519=VERTEX_POINT('',#1710);
#520=VERTEX_POINT('',#1712);
#521=VERTEX_POINT('',#1721);
#522=VERTEX_POINT('',#1723);
#523=VERTEX_POINT('',#1727);
#524=VERTEX_POINT('',#1731);
#525=VERTEX_POINT('',#1732);
#526=VERTEX_POINT('',#1737);
#527=VERTEX_POINT('',#1741);
#528=VERTEX_POINT('',#1745);
#529=VERTEX_POINT('',#1749);
#530=VERTEX_POINT('',#1753);
#531=VERTEX_POINT('',#1757);
#532=VERTEX_POINT('',#1761);
#533=VERTEX_POINT('',#1763);
#534=VERTEX_POINT('',#1767);
#535=VERTEX_POINT('',#1768);
#536=VERTEX_POINT('',#1770);
#537=VERTEX_POINT('',#1772);
#538=VERTEX_POINT('',#1779);
#539=VERTEX_POINT('',#1783);
#540=VERTEX_POINT('',#1785);
#541=VERTEX_POINT('',#1787);
#542=VERTEX_POINT('',#1789);
#543=VERTEX_POINT('',#1793);
#544=VERTEX_POINT('',#1795);
#545=VERTEX_POINT('',#1797);
#546=VERTEX_POINT('',#1801);
#547=VERTEX_POINT('',#1805);
#548=VERTEX_POINT('',#1809);
#549=VERTEX_POINT('',#1811);
#550=VERTEX_POINT('',#1815);
#551=VERTEX_POINT('',#1818);
#552=VERTEX_POINT('',#1820);
#553=VERTEX_POINT('',#1824);
#554=VERTEX_POINT('',#1826);
#555=VERTEX_POINT('',#1828);
#556=VERTEX_POINT('',#1830);
#557=VERTEX_POINT('',#1833);
#558=VERTEX_POINT('',#1843);
#559=VERTEX_POINT('',#1848);
#560=VERTEX_POINT('',#1852);
#561=VERTEX_POINT('',#1856);
#562=VERTEX_POINT('',#1860);
#563=VERTEX_POINT('',#1867);
#564=VERTEX_POINT('',#1871);
#565=EDGE_CURVE('',#459,#460,#183,.T.);
#566=EDGE_CURVE('',#461,#459,#184,.T.);
#567=EDGE_CURVE('',#462,#461,#185,.T.);
#568=EDGE_CURVE('',#462,#460,#186,.T.);
#569=EDGE_CURVE('',#460,#463,#34,.T.);
#570=EDGE_CURVE('',#464,#462,#35,.T.);
#571=EDGE_CURVE('',#464,#463,#187,.T.);
#572=EDGE_CURVE('',#463,#465,#188,.T.);
#573=EDGE_CURVE('',#466,#464,#189,.T.);
#574=EDGE_CURVE('',#466,#465,#190,.T.);
#575=EDGE_CURVE('',#465,#467,#36,.T.);
#576=EDGE_CURVE('',#468,#466,#37,.T.);
#577=EDGE_CURVE('',#468,#467,#191,.T.);
#578=EDGE_CURVE('',#467,#469,#192,.T.);
#579=EDGE_CURVE('',#470,#468,#193,.T.);
#580=EDGE_CURVE('',#470,#469,#194,.T.);
#581=EDGE_CURVE('',#469,#471,#38,.T.);
#582=EDGE_CURVE('',#472,#470,#39,.T.);
#583=EDGE_CURVE('',#472,#471,#195,.T.);
#584=EDGE_CURVE('',#471,#473,#196,.T.);
#585=EDGE_CURVE('',#474,#472,#197,.T.);
#586=EDGE_CURVE('',#474,#473,#198,.T.);
#587=EDGE_CURVE('',#473,#459,#40,.T.);
#588=EDGE_CURVE('',#461,#474,#41,.T.);
#589=EDGE_CURVE('',#475,#476,#199,.T.);
#590=EDGE_CURVE('',#477,#475,#33,.T.);
#591=EDGE_CURVE('',#477,#478,#200,.T.);
#592=EDGE_CURVE('',#479,#478,#201,.T.);
#593=EDGE_CURVE('',#479,#480,#202,.T.);
#594=EDGE_CURVE('',#480,#476,#203,.T.);
#595=EDGE_CURVE('',#481,#479,#204,.T.);
#596=EDGE_CURVE('',#478,#482,#205,.T.);
#597=EDGE_CURVE('',#482,#481,#206,.T.);
#598=EDGE_CURVE('',#483,#481,#207,.T.);
#599=EDGE_CURVE('',#483,#484,#208,.T.);
#600=EDGE_CURVE('',#484,#485,#209,.T.);
#601=EDGE_CURVE('',#486,#485,#210,.T.);
#602=EDGE_CURVE('',#487,#486,#211,.T.);
#603=EDGE_CURVE('',#480,#487,#212,.T.);
#604=EDGE_CURVE('',#476,#488,#213,.T.);
#605=EDGE_CURVE('',#489,#487,#214,.T.);
#606=EDGE_CURVE('',#489,#490,#215,.T.);
#607=EDGE_CURVE('',#488,#490,#216,.T.);
#608=EDGE_CURVE('',#490,#477,#32,.T.);
#609=EDGE_CURVE('',#491,#489,#217,.T.);
#610=EDGE_CURVE('',#492,#491,#218,.T.);
#611=EDGE_CURVE('',#493,#492,#219,.T.);
#612=EDGE_CURVE('',#493,#494,#220,.T.);
#613=EDGE_CURVE('',#482,#494,#221,.T.);
#614=EDGE_CURVE('',#483,#495,#222,.T.);
#615=EDGE_CURVE('',#495,#496,#223,.T.);
#616=EDGE_CURVE('',#496,#484,#224,.T.);
#617=EDGE_CURVE('',#497,#494,#225,.T.);
#618=EDGE_CURVE('',#493,#498,#226,.T.);
#619=EDGE_CURVE('',#498,#497,#227,.T.);
#620=EDGE_CURVE('',#497,#499,#228,.T.);
#621=EDGE_CURVE('',#500,#498,#229,.T.);
#622=EDGE_CURVE('',#499,#500,#230,.T.);
#623=EDGE_CURVE('',#499,#501,#231,.T.);
#624=EDGE_CURVE('',#502,#500,#232,.T.);
#625=EDGE_CURVE('',#502,#501,#233,.T.);
#626=EDGE_CURVE('',#501,#503,#234,.T.);
#627=EDGE_CURVE('',#502,#504,#235,.T.);
#628=EDGE_CURVE('',#503,#504,#236,.T.);
#629=EDGE_CURVE('',#505,#506,#237,.T.);
#630=EDGE_CURVE('',#507,#505,#238,.T.);
#631=EDGE_CURVE('',#508,#507,#239,.T.);
#632=EDGE_CURVE('',#509,#508,#240,.F.);
#633=EDGE_CURVE('',#510,#509,#241,.F.);
#634=EDGE_CURVE('',#510,#511,#42,.T.);
#635=EDGE_CURVE('',#512,#511,#242,.F.);
#636=EDGE_CURVE('',#506,#512,#243,.F.);
#637=EDGE_CURVE('',#513,#514,#244,.T.);
#638=EDGE_CURVE('',#513,#515,#245,.T.);
#639=EDGE_CURVE('',#516,#515,#246,.F.);
#640=EDGE_CURVE('',#516,#517,#43,.T.);
#641=EDGE_CURVE('',#518,#517,#247,.F.);
#642=EDGE_CURVE('',#518,#519,#248,.T.);
#643=EDGE_CURVE('',#520,#519,#249,.T.);
#644=EDGE_CURVE('',#514,#520,#250,.T.);
#645=EDGE_CURVE('',#488,#475,#44,.T.);
#646=EDGE_CURVE('',#491,#486,#251,.T.);
#647=EDGE_CURVE('',#511,#521,#252,.T.);
#648=EDGE_CURVE('',#522,#521,#253,.F.);
#649=EDGE_CURVE('',#522,#512,#254,.T.);
#650=EDGE_CURVE('',#521,#523,#45,.F.);
#651=EDGE_CURVE('',#523,#510,#255,.T.);
#652=EDGE_CURVE('',#524,#525,#46,.F.);
#653=EDGE_CURVE('',#517,#524,#256,.T.);
#654=EDGE_CURVE('',#525,#516,#257,.T.);
#655=EDGE_CURVE('',#524,#526,#258,.T.);
#656=EDGE_CURVE('',#526,#518,#259,.T.);
#657=EDGE_CURVE('',#515,#527,#260,.T.);
#658=EDGE_CURVE('',#525,#527,#261,.F.);
#659=EDGE_CURVE('',#528,#526,#262,.T.);
#660=EDGE_CURVE('',#519,#528,#263,.F.);
#661=EDGE_CURVE('',#509,#529,#264,.T.);
#662=EDGE_CURVE('',#529,#523,#265,.T.);
#663=EDGE_CURVE('',#530,#508,#266,.F.);
#664=EDGE_CURVE('',#529,#530,#267,.T.);
#665=EDGE_CURVE('',#506,#531,#268,.T.);
#666=EDGE_CURVE('',#531,#522,#269,.T.);
#667=EDGE_CURVE('',#532,#495,#270,.T.);
#668=EDGE_CURVE('',#533,#532,#271,.T.);
#669=EDGE_CURVE('',#496,#533,#272,.T.);
#670=EDGE_CURVE('',#534,#535,#273,.T.);
#671=EDGE_CURVE('',#536,#534,#274,.T.);
#672=EDGE_CURVE('',#537,#536,#275,.T.);
#673=EDGE_CURVE('',#535,#537,#276,.T.);
#674=EDGE_CURVE('',#535,#532,#277,.T.);
#675=EDGE_CURVE('',#533,#537,#278,.T.);
#676=EDGE_CURVE('',#538,#513,#279,.T.);
#677=EDGE_CURVE('',#527,#538,#280,.T.);
#678=EDGE_CURVE('',#539,#492,#281,.T.);
#679=EDGE_CURVE('',#485,#540,#282,.T.);
#680=EDGE_CURVE('',#541,#540,#283,.T.);
#681=EDGE_CURVE('',#542,#541,#284,.T.);
#682=EDGE_CURVE('',#542,#539,#285,.T.);
#683=EDGE_CURVE('',#540,#543,#286,.T.);
#684=EDGE_CURVE('',#543,#544,#287,.T.);
#685=EDGE_CURVE('',#545,#544,#288,.T.);
#686=EDGE_CURVE('',#545,#541,#289,.T.);
#687=EDGE_CURVE('',#514,#546,#290,.T.);
#688=EDGE_CURVE('',#546,#538,#291,.T.);
#689=EDGE_CURVE('',#547,#520,#292,.T.);
#690=EDGE_CURVE('',#547,#546,#293,.T.);
#691=EDGE_CURVE('',#543,#548,#294,.T.);
#692=EDGE_CURVE('',#548,#549,#295,.T.);
#693=EDGE_CURVE('',#544,#549,#296,.T.);
#694=EDGE_CURVE('',#507,#550,#297,.T.);
#695=EDGE_CURVE('',#550,#547,#298,.T.);
#696=EDGE_CURVE('',#528,#551,#299,.F.);
#697=EDGE_CURVE('',#552,#551,#300,.T.);
#698=EDGE_CURVE('',#552,#548,#301,.T.);
#699=EDGE_CURVE('',#543,#530,#302,.F.);
#700=EDGE_CURVE('',#553,#553,#47,.T.);
#701=EDGE_CURVE('',#554,#554,#48,.T.);
#702=EDGE_CURVE('',#555,#555,#49,.T.);
#703=EDGE_CURVE('',#556,#556,#50,.T.);
#704=EDGE_CURVE('',#552,#557,#303,.T.);
#705=EDGE_CURVE('',#549,#557,#304,.T.);
#706=EDGE_CURVE('',#503,#534,#305,.T.);
#707=EDGE_CURVE('',#536,#504,#306,.T.);
#708=EDGE_CURVE('',#494,#483,#307,.T.);
#709=EDGE_CURVE('',#551,#539,#308,.T.);
#710=EDGE_CURVE('',#550,#558,#309,.T.);
#711=EDGE_CURVE('',#531,#558,#310,.T.);
#712=EDGE_CURVE('',#559,#559,#51,.T.);
#713=EDGE_CURVE('',#559,#556,#311,.T.);
#714=EDGE_CURVE('',#560,#560,#52,.T.);
#715=EDGE_CURVE('',#560,#555,#312,.T.);
#716=EDGE_CURVE('',#561,#561,#53,.T.);
#717=EDGE_CURVE('',#561,#554,#313,.T.);
#718=EDGE_CURVE('',#562,#562,#54,.T.);
#719=EDGE_CURVE('',#562,#553,#314,.T.);
#720=EDGE_CURVE('',#558,#505,#315,.T.);
#721=EDGE_CURVE('',#563,#545,#316,.T.);
#722=EDGE_CURVE('',#542,#563,#317,.T.);
#723=EDGE_CURVE('',#564,#563,#318,.T.);
#724=EDGE_CURVE('',#551,#564,#319,.T.);
#725=EDGE_CURVE('',#557,#564,#320,.T.);
#726=ORIENTED_EDGE('',*,*,#565,.F.);
#727=ORIENTED_EDGE('',*,*,#566,.F.);
#728=ORIENTED_EDGE('',*,*,#567,.F.);
#729=ORIENTED_EDGE('',*,*,#568,.T.);
#730=ORIENTED_EDGE('',*,*,#569,.F.);
#731=ORIENTED_EDGE('',*,*,#568,.F.);
#732=ORIENTED_EDGE('',*,*,#570,.F.);
#733=ORIENTED_EDGE('',*,*,#571,.T.);
#734=ORIENTED_EDGE('',*,*,#572,.F.);
#735=ORIENTED_EDGE('',*,*,#571,.F.);
#736=ORIENTED_EDGE('',*,*,#573,.F.);
#737=ORIENTED_EDGE('',*,*,#574,.T.);
#738=ORIENTED_EDGE('',*,*,#575,.F.);
#739=ORIENTED_EDGE('',*,*,#574,.F.);
#740=ORIENTED_EDGE('',*,*,#576,.F.);
#741=ORIENTED_EDGE('',*,*,#577,.T.);
#742=ORIENTED_EDGE('',*,*,#578,.F.);
#743=ORIENTED_EDGE('',*,*,#577,.F.);
#744=ORIENTED_EDGE('',*,*,#579,.F.);
#745=ORIENTED_EDGE('',*,*,#580,.T.);
#746=ORIENTED_EDGE('',*,*,#581,.F.);
#747=ORIENTED_EDGE('',*,*,#580,.F.);
#748=ORIENTED_EDGE('',*,*,#582,.F.);
#749=ORIENTED_EDGE('',*,*,#583,.T.);
#750=ORIENTED_EDGE('',*,*,#584,.F.);
#751=ORIENTED_EDGE('',*,*,#583,.F.);
#752=ORIENTED_EDGE('',*,*,#585,.F.);
#753=ORIENTED_EDGE('',*,*,#586,.T.);
#754=ORIENTED_EDGE('',*,*,#587,.F.);
#755=ORIENTED_EDGE('',*,*,#586,.F.);
#756=ORIENTED_EDGE('',*,*,#588,.F.);
#757=ORIENTED_EDGE('',*,*,#566,.T.);
#758=ORIENTED_EDGE('',*,*,#589,.F.);
#759=ORIENTED_EDGE('',*,*,#590,.F.);
#760=ORIENTED_EDGE('',*,*,#591,.T.);
#761=ORIENTED_EDGE('',*,*,#592,.F.);
#762=ORIENTED_EDGE('',*,*,#593,.T.);
#763=ORIENTED_EDGE('',*,*,#594,.T.);
#764=ORIENTED_EDGE('',*,*,#595,.T.);
#765=ORIENTED_EDGE('',*,*,#592,.T.);
#766=ORIENTED_EDGE('',*,*,#596,.T.);
#767=ORIENTED_EDGE('',*,*,#597,.T.);
#768=ORIENTED_EDGE('',*,*,#595,.F.);
#769=ORIENTED_EDGE('',*,*,#598,.F.);
#770=ORIENTED_EDGE('',*,*,#599,.T.);
#771=ORIENTED_EDGE('',*,*,#600,.T.);
#772=ORIENTED_EDGE('',*,*,#601,.F.);
#773=ORIENTED_EDGE('',*,*,#602,.F.);
#774=ORIENTED_EDGE('',*,*,#603,.F.);
#775=ORIENTED_EDGE('',*,*,#593,.F.);
#776=ORIENTED_EDGE('',*,*,#604,.F.);
#777=ORIENTED_EDGE('',*,*,#594,.F.);
#778=ORIENTED_EDGE('',*,*,#603,.T.);
#779=ORIENTED_EDGE('',*,*,#605,.F.);
#780=ORIENTED_EDGE('',*,*,#606,.T.);
#781=ORIENTED_EDGE('',*,*,#607,.F.);
#782=ORIENTED_EDGE('',*,*,#591,.F.);
#783=ORIENTED_EDGE('',*,*,#608,.F.);
#784=ORIENTED_EDGE('',*,*,#606,.F.);
#785=ORIENTED_EDGE('',*,*,#609,.F.);
#786=ORIENTED_EDGE('',*,*,#610,.F.);
#787=ORIENTED_EDGE('',*,*,#611,.F.);
#788=ORIENTED_EDGE('',*,*,#612,.T.);
#789=ORIENTED_EDGE('',*,*,#613,.F.);
#790=ORIENTED_EDGE('',*,*,#596,.F.);
#791=ORIENTED_EDGE('',*,*,#614,.T.);
#792=ORIENTED_EDGE('',*,*,#615,.T.);
#793=ORIENTED_EDGE('',*,*,#616,.T.);
#794=ORIENTED_EDGE('',*,*,#599,.F.);
#795=ORIENTED_EDGE('',*,*,#617,.T.);
#796=ORIENTED_EDGE('',*,*,#612,.F.);
#797=ORIENTED_EDGE('',*,*,#618,.T.);
#798=ORIENTED_EDGE('',*,*,#619,.T.);
#799=ORIENTED_EDGE('',*,*,#620,.F.);
#800=ORIENTED_EDGE('',*,*,#619,.F.);
#801=ORIENTED_EDGE('',*,*,#621,.F.);
#802=ORIENTED_EDGE('',*,*,#622,.F.);
#803=ORIENTED_EDGE('',*,*,#623,.F.);
#804=ORIENTED_EDGE('',*,*,#622,.T.);
#805=ORIENTED_EDGE('',*,*,#624,.F.);
#806=ORIENTED_EDGE('',*,*,#625,.T.);
#807=ORIENTED_EDGE('',*,*,#626,.F.);
#808=ORIENTED_EDGE('',*,*,#625,.F.);
#809=ORIENTED_EDGE('',*,*,#627,.T.);
#810=ORIENTED_EDGE('',*,*,#628,.F.);
#811=ORIENTED_EDGE('',*,*,#629,.F.);
#812=ORIENTED_EDGE('',*,*,#630,.F.);
#813=ORIENTED_EDGE('',*,*,#631,.F.);
#814=ORIENTED_EDGE('',*,*,#632,.F.);
#815=ORIENTED_EDGE('',*,*,#633,.F.);
#816=ORIENTED_EDGE('',*,*,#634,.T.);
#817=ORIENTED_EDGE('',*,*,#635,.F.);
#818=ORIENTED_EDGE('',*,*,#636,.F.);
#819=ORIENTED_EDGE('',*,*,#637,.F.);
#820=ORIENTED_EDGE('',*,*,#638,.T.);
#821=ORIENTED_EDGE('',*,*,#639,.F.);
#822=ORIENTED_EDGE('',*,*,#640,.T.);
#823=ORIENTED_EDGE('',*,*,#641,.F.);
#824=ORIENTED_EDGE('',*,*,#642,.T.);
#825=ORIENTED_EDGE('',*,*,#643,.F.);
#826=ORIENTED_EDGE('',*,*,#644,.F.);
#827=ORIENTED_EDGE('',*,*,#590,.T.);
#828=ORIENTED_EDGE('',*,*,#645,.F.);
#829=ORIENTED_EDGE('',*,*,#607,.T.);
#830=ORIENTED_EDGE('',*,*,#608,.T.);
#831=ORIENTED_EDGE('',*,*,#589,.T.);
#832=ORIENTED_EDGE('',*,*,#604,.T.);
#833=ORIENTED_EDGE('',*,*,#645,.T.);
#834=ORIENTED_EDGE('',*,*,#646,.F.);
#835=ORIENTED_EDGE('',*,*,#609,.T.);
#836=ORIENTED_EDGE('',*,*,#605,.T.);
#837=ORIENTED_EDGE('',*,*,#602,.T.);
#838=ORIENTED_EDGE('',*,*,#647,.T.);
#839=ORIENTED_EDGE('',*,*,#648,.F.);
#840=ORIENTED_EDGE('',*,*,#649,.T.);
#841=ORIENTED_EDGE('',*,*,#635,.T.);
#842=ORIENTED_EDGE('',*,*,#650,.F.);
#843=ORIENTED_EDGE('',*,*,#647,.F.);
#844=ORIENTED_EDGE('',*,*,#634,.F.);
#845=ORIENTED_EDGE('',*,*,#651,.F.);
#846=ORIENTED_EDGE('',*,*,#652,.F.);
#847=ORIENTED_EDGE('',*,*,#653,.F.);
#848=ORIENTED_EDGE('',*,*,#640,.F.);
#849=ORIENTED_EDGE('',*,*,#654,.F.);
#850=ORIENTED_EDGE('',*,*,#653,.T.);
#851=ORIENTED_EDGE('',*,*,#655,.T.);
#852=ORIENTED_EDGE('',*,*,#656,.T.);
#853=ORIENTED_EDGE('',*,*,#641,.T.);
#854=ORIENTED_EDGE('',*,*,#654,.T.);
#855=ORIENTED_EDGE('',*,*,#639,.T.);
#856=ORIENTED_EDGE('',*,*,#657,.T.);
#857=ORIENTED_EDGE('',*,*,#658,.F.);
#858=ORIENTED_EDGE('',*,*,#656,.F.);
#859=ORIENTED_EDGE('',*,*,#659,.F.);
#860=ORIENTED_EDGE('',*,*,#660,.F.);
#861=ORIENTED_EDGE('',*,*,#642,.F.);
#862=ORIENTED_EDGE('',*,*,#651,.T.);
#863=ORIENTED_EDGE('',*,*,#633,.T.);
#864=ORIENTED_EDGE('',*,*,#661,.T.);
#865=ORIENTED_EDGE('',*,*,#662,.T.);
#866=ORIENTED_EDGE('',*,*,#661,.F.);
#867=ORIENTED_EDGE('',*,*,#632,.T.);
#868=ORIENTED_EDGE('',*,*,#663,.F.);
#869=ORIENTED_EDGE('',*,*,#664,.F.);
#870=ORIENTED_EDGE('',*,*,#665,.F.);
#871=ORIENTED_EDGE('',*,*,#636,.T.);
#872=ORIENTED_EDGE('',*,*,#649,.F.);
#873=ORIENTED_EDGE('',*,*,#666,.F.);
#874=ORIENTED_EDGE('',*,*,#667,.F.);
#875=ORIENTED_EDGE('',*,*,#668,.F.);
#876=ORIENTED_EDGE('',*,*,#669,.F.);
#877=ORIENTED_EDGE('',*,*,#615,.F.);
#878=ORIENTED_EDGE('',*,*,#670,.F.);
#879=ORIENTED_EDGE('',*,*,#671,.F.);
#880=ORIENTED_EDGE('',*,*,#672,.F.);
#881=ORIENTED_EDGE('',*,*,#673,.F.);
#882=ORIENTED_EDGE('',*,*,#674,.F.);
#883=ORIENTED_EDGE('',*,*,#673,.T.);
#884=ORIENTED_EDGE('',*,*,#675,.F.);
#885=ORIENTED_EDGE('',*,*,#668,.T.);
#886=ORIENTED_EDGE('',*,*,#676,.F.);
#887=ORIENTED_EDGE('',*,*,#677,.F.);
#888=ORIENTED_EDGE('',*,*,#657,.F.);
#889=ORIENTED_EDGE('',*,*,#638,.F.);
#890=ORIENTED_EDGE('',*,*,#678,.T.);
#891=ORIENTED_EDGE('',*,*,#610,.T.);
#892=ORIENTED_EDGE('',*,*,#646,.T.);
#893=ORIENTED_EDGE('',*,*,#601,.T.);
#894=ORIENTED_EDGE('',*,*,#679,.T.);
#895=ORIENTED_EDGE('',*,*,#680,.F.);
#896=ORIENTED_EDGE('',*,*,#681,.F.);
#897=ORIENTED_EDGE('',*,*,#682,.T.);
#898=ORIENTED_EDGE('',*,*,#683,.T.);
#899=ORIENTED_EDGE('',*,*,#684,.T.);
#900=ORIENTED_EDGE('',*,*,#685,.F.);
#901=ORIENTED_EDGE('',*,*,#686,.T.);
#902=ORIENTED_EDGE('',*,*,#680,.T.);
#903=ORIENTED_EDGE('',*,*,#676,.T.);
#904=ORIENTED_EDGE('',*,*,#637,.T.);
#905=ORIENTED_EDGE('',*,*,#687,.T.);
#906=ORIENTED_EDGE('',*,*,#688,.T.);
#907=ORIENTED_EDGE('',*,*,#644,.T.);
#908=ORIENTED_EDGE('',*,*,#689,.F.);
#909=ORIENTED_EDGE('',*,*,#690,.T.);
#910=ORIENTED_EDGE('',*,*,#687,.F.);
#911=ORIENTED_EDGE('',*,*,#691,.T.);
#912=ORIENTED_EDGE('',*,*,#692,.T.);
#913=ORIENTED_EDGE('',*,*,#693,.F.);
#914=ORIENTED_EDGE('',*,*,#684,.F.);
#915=ORIENTED_EDGE('',*,*,#694,.T.);
#916=ORIENTED_EDGE('',*,*,#695,.T.);
#917=ORIENTED_EDGE('',*,*,#689,.T.);
#918=ORIENTED_EDGE('',*,*,#643,.T.);
#919=ORIENTED_EDGE('',*,*,#660,.T.);
#920=ORIENTED_EDGE('',*,*,#696,.T.);
#921=ORIENTED_EDGE('',*,*,#697,.F.);
#922=ORIENTED_EDGE('',*,*,#698,.T.);
#923=ORIENTED_EDGE('',*,*,#691,.F.);
#924=ORIENTED_EDGE('',*,*,#699,.T.);
#925=ORIENTED_EDGE('',*,*,#663,.T.);
#926=ORIENTED_EDGE('',*,*,#631,.T.);
#927=ORIENTED_EDGE('',*,*,#700,.T.);
#928=ORIENTED_EDGE('',*,*,#701,.T.);
#929=ORIENTED_EDGE('',*,*,#702,.T.);
#930=ORIENTED_EDGE('',*,*,#703,.T.);
#931=ORIENTED_EDGE('',*,*,#698,.F.);
#932=ORIENTED_EDGE('',*,*,#704,.T.);
#933=ORIENTED_EDGE('',*,*,#705,.F.);
#934=ORIENTED_EDGE('',*,*,#692,.F.);
#935=ORIENTED_EDGE('',*,*,#671,.T.);
#936=ORIENTED_EDGE('',*,*,#706,.F.);
#937=ORIENTED_EDGE('',*,*,#628,.T.);
#938=ORIENTED_EDGE('',*,*,#707,.F.);
#939=ORIENTED_EDGE('',*,*,#667,.T.);
#940=ORIENTED_EDGE('',*,*,#614,.F.);
#941=ORIENTED_EDGE('',*,*,#708,.F.);
#942=ORIENTED_EDGE('',*,*,#617,.F.);
#943=ORIENTED_EDGE('',*,*,#620,.T.);
#944=ORIENTED_EDGE('',*,*,#623,.T.);
#945=ORIENTED_EDGE('',*,*,#626,.T.);
#946=ORIENTED_EDGE('',*,*,#706,.T.);
#947=ORIENTED_EDGE('',*,*,#670,.T.);
#948=ORIENTED_EDGE('',*,*,#674,.T.);
#949=ORIENTED_EDGE('',*,*,#709,.F.);
#950=ORIENTED_EDGE('',*,*,#696,.F.);
#951=ORIENTED_EDGE('',*,*,#659,.T.);
#952=ORIENTED_EDGE('',*,*,#655,.F.);
#953=ORIENTED_EDGE('',*,*,#652,.T.);
#954=ORIENTED_EDGE('',*,*,#658,.T.);
#955=ORIENTED_EDGE('',*,*,#677,.T.);
#956=ORIENTED_EDGE('',*,*,#688,.F.);
#957=ORIENTED_EDGE('',*,*,#690,.F.);
#958=ORIENTED_EDGE('',*,*,#695,.F.);
#959=ORIENTED_EDGE('',*,*,#710,.T.);
#960=ORIENTED_EDGE('',*,*,#711,.F.);
#961=ORIENTED_EDGE('',*,*,#666,.T.);
#962=ORIENTED_EDGE('',*,*,#648,.T.);
#963=ORIENTED_EDGE('',*,*,#650,.T.);
#964=ORIENTED_EDGE('',*,*,#662,.F.);
#965=ORIENTED_EDGE('',*,*,#664,.T.);
#966=ORIENTED_EDGE('',*,*,#699,.F.);
#967=ORIENTED_EDGE('',*,*,#683,.F.);
#968=ORIENTED_EDGE('',*,*,#679,.F.);
#969=ORIENTED_EDGE('',*,*,#600,.F.);
#970=ORIENTED_EDGE('',*,*,#616,.F.);
#971=ORIENTED_EDGE('',*,*,#669,.T.);
#972=ORIENTED_EDGE('',*,*,#675,.T.);
#973=ORIENTED_EDGE('',*,*,#672,.T.);
#974=ORIENTED_EDGE('',*,*,#707,.T.);
#975=ORIENTED_EDGE('',*,*,#627,.F.);
#976=ORIENTED_EDGE('',*,*,#624,.T.);
#977=ORIENTED_EDGE('',*,*,#621,.T.);
#978=ORIENTED_EDGE('',*,*,#618,.F.);
#979=ORIENTED_EDGE('',*,*,#611,.T.);
#980=ORIENTED_EDGE('',*,*,#678,.F.);
#981=ORIENTED_EDGE('',*,*,#565,.T.);
#982=ORIENTED_EDGE('',*,*,#569,.T.);
#983=ORIENTED_EDGE('',*,*,#572,.T.);
#984=ORIENTED_EDGE('',*,*,#575,.T.);
#985=ORIENTED_EDGE('',*,*,#578,.T.);
#986=ORIENTED_EDGE('',*,*,#581,.T.);
#987=ORIENTED_EDGE('',*,*,#584,.T.);
#988=ORIENTED_EDGE('',*,*,#587,.T.);
#989=ORIENTED_EDGE('',*,*,#597,.F.);
#990=ORIENTED_EDGE('',*,*,#613,.T.);
#991=ORIENTED_EDGE('',*,*,#708,.T.);
#992=ORIENTED_EDGE('',*,*,#598,.T.);
#993=ORIENTED_EDGE('',*,*,#712,.F.);
#994=ORIENTED_EDGE('',*,*,#713,.T.);
#995=ORIENTED_EDGE('',*,*,#703,.F.);
#996=ORIENTED_EDGE('',*,*,#713,.F.);
#997=ORIENTED_EDGE('',*,*,#714,.F.);
#998=ORIENTED_EDGE('',*,*,#715,.T.);
#999=ORIENTED_EDGE('',*,*,#702,.F.);
#1000=ORIENTED_EDGE('',*,*,#715,.F.);
#1001=ORIENTED_EDGE('',*,*,#716,.F.);
#1002=ORIENTED_EDGE('',*,*,#717,.T.);
#1003=ORIENTED_EDGE('',*,*,#701,.F.);
#1004=ORIENTED_EDGE('',*,*,#717,.F.);
#1005=ORIENTED_EDGE('',*,*,#718,.F.);
#1006=ORIENTED_EDGE('',*,*,#719,.T.);
#1007=ORIENTED_EDGE('',*,*,#700,.F.);
#1008=ORIENTED_EDGE('',*,*,#719,.F.);
#1009=ORIENTED_EDGE('',*,*,#630,.T.);
#1010=ORIENTED_EDGE('',*,*,#720,.F.);
#1011=ORIENTED_EDGE('',*,*,#710,.F.);
#1012=ORIENTED_EDGE('',*,*,#694,.F.);
#1013=ORIENTED_EDGE('',*,*,#665,.T.);
#1014=ORIENTED_EDGE('',*,*,#711,.T.);
#1015=ORIENTED_EDGE('',*,*,#720,.T.);
#1016=ORIENTED_EDGE('',*,*,#629,.T.);
#1017=ORIENTED_EDGE('',*,*,#686,.F.);
#1018=ORIENTED_EDGE('',*,*,#721,.F.);
#1019=ORIENTED_EDGE('',*,*,#722,.F.);
#1020=ORIENTED_EDGE('',*,*,#681,.T.);
#1021=ORIENTED_EDGE('',*,*,#567,.T.);
#1022=ORIENTED_EDGE('',*,*,#588,.T.);
#1023=ORIENTED_EDGE('',*,*,#585,.T.);
#1024=ORIENTED_EDGE('',*,*,#582,.T.);
#1025=ORIENTED_EDGE('',*,*,#579,.T.);
#1026=ORIENTED_EDGE('',*,*,#576,.T.);
#1027=ORIENTED_EDGE('',*,*,#573,.T.);
#1028=ORIENTED_EDGE('',*,*,#570,.T.);
#1029=ORIENTED_EDGE('',*,*,#709,.T.);
#1030=ORIENTED_EDGE('',*,*,#682,.F.);
#1031=ORIENTED_EDGE('',*,*,#722,.T.);
#1032=ORIENTED_EDGE('',*,*,#723,.F.);
#1033=ORIENTED_EDGE('',*,*,#724,.F.);
#1034=ORIENTED_EDGE('',*,*,#697,.T.);
#1035=ORIENTED_EDGE('',*,*,#724,.T.);
#1036=ORIENTED_EDGE('',*,*,#725,.F.);
#1037=ORIENTED_EDGE('',*,*,#704,.F.);
#1038=ORIENTED_EDGE('',*,*,#685,.T.);
#1039=ORIENTED_EDGE('',*,*,#693,.T.);
#1040=ORIENTED_EDGE('',*,*,#705,.T.);
#1041=ORIENTED_EDGE('',*,*,#725,.T.);
#1042=ORIENTED_EDGE('',*,*,#723,.T.);
#1043=ORIENTED_EDGE('',*,*,#721,.T.);
#1044=ORIENTED_EDGE('',*,*,#712,.T.);
#1045=ORIENTED_EDGE('',*,*,#714,.T.);
#1046=ORIENTED_EDGE('',*,*,#716,.T.);
#1047=ORIENTED_EDGE('',*,*,#718,.T.);
#1048=PLANE('',#1165);
#1049=PLANE('',#1168);
#1050=PLANE('',#1171);
#1051=PLANE('',#1174);
#1052=PLANE('',#1177);
#1053=PLANE('',#1178);
#1054=PLANE('',#1179);
#1055=PLANE('',#1180);
#1056=PLANE('',#1181);
#1057=PLANE('',#1183);
#1058=PLANE('',#1184);
#1059=PLANE('',#1185);
#1060=PLANE('',#1186);
#1061=PLANE('',#1187);
#1062=PLANE('',#1188);
#1063=PLANE('',#1190);
#1064=PLANE('',#1194);
#1065=PLANE('',#1195);
#1066=PLANE('',#1196);
#1067=PLANE('',#1201);
#1068=PLANE('',#1202);
#1069=PLANE('',#1203);
#1070=PLANE('',#1204);
#1071=PLANE('',#1205);
#1072=PLANE('',#1206);
#1073=PLANE('',#1207);
#1074=PLANE('',#1208);
#1075=PLANE('',#1209);
#1076=PLANE('',#1210);
#1077=PLANE('',#1211);
#1078=PLANE('',#1212);
#1079=PLANE('',#1213);
#1080=PLANE('',#1214);
#1081=PLANE('',#1215);
#1082=PLANE('',#1216);
#1083=PLANE('',#1221);
#1084=PLANE('',#1222);
#1085=PLANE('',#1223);
#1086=PLANE('',#1224);
#1087=PLANE('',#1225);
#1088=PLANE('',#1234);
#1089=PLANE('',#1235);
#1090=PLANE('',#1236);
#1091=PLANE('',#1237);
#1092=PLANE('',#1238);
#1093=PLANE('',#1239);
#1094=ADVANCED_FACE('',(#59),#1048,.F.);
#1095=ADVANCED_FACE('',(#60),#55,.T.);
#1096=ADVANCED_FACE('',(#61),#1049,.F.);
#1097=ADVANCED_FACE('',(#62),#56,.T.);
#1098=ADVANCED_FACE('',(#63),#1050,.F.);
#1099=ADVANCED_FACE('',(#64),#57,.T.);
#1100=ADVANCED_FACE('',(#65),#1051,.F.);
#1101=ADVANCED_FACE('',(#66),#58,.T.);
#1102=ADVANCED_FACE('',(#67),#1052,.T.);
#1103=ADVANCED_FACE('',(#68),#1053,.T.);
#1104=ADVANCED_FACE('',(#69),#1054,.F.);
#1105=ADVANCED_FACE('',(#70),#1055,.F.);
#1106=ADVANCED_FACE('',(#71),#1056,.F.);
#1107=ADVANCED_FACE('',(#72),#1057,.F.);
#1108=ADVANCED_FACE('',(#73),#1058,.F.);
#1109=ADVANCED_FACE('',(#74),#1059,.F.);
#1110=ADVANCED_FACE('',(#75),#1060,.T.);
#1111=ADVANCED_FACE('',(#76),#1061,.F.);
#1112=ADVANCED_FACE('',(#77),#1062,.F.);
#1113=ADVANCED_FACE('',(#78),#1063,.F.);
#1114=ADVANCED_FACE('',(#79),#25,.F.);
#1115=ADVANCED_FACE('',(#80),#1064,.F.);
#1116=ADVANCED_FACE('',(#81),#1065,.F.);
#1117=ADVANCED_FACE('',(#82),#1066,.F.);
#1118=ADVANCED_FACE('',(#83),#26,.F.);
#1119=ADVANCED_FACE('',(#84),#27,.F.);
#1120=ADVANCED_FACE('',(#85),#1067,.F.);
#1121=ADVANCED_FACE('',(#86),#1068,.F.);
#1122=ADVANCED_FACE('',(#87),#1069,.F.);
#1123=ADVANCED_FACE('',(#88),#1070,.F.);
#1124=ADVANCED_FACE('',(#89),#1071,.F.);
#1125=ADVANCED_FACE('',(#90),#1072,.F.);
#1126=ADVANCED_FACE('',(#91),#1073,.F.);
#1127=ADVANCED_FACE('',(#92),#1074,.F.);
#1128=ADVANCED_FACE('',(#93),#1075,.T.);
#1129=ADVANCED_FACE('',(#94),#1076,.F.);
#1130=ADVANCED_FACE('',(#95),#1077,.T.);
#1131=ADVANCED_FACE('',(#96),#1078,.T.);
#1132=ADVANCED_FACE('',(#97),#1079,.T.);
#1133=ADVANCED_FACE('',(#98),#1080,.T.);
#1134=ADVANCED_FACE('',(#99),#1081,.T.);
#1135=ADVANCED_FACE('',(#100,#15,#16,#17,#18),#1082,.F.);
#1136=ADVANCED_FACE('',(#101),#1083,.T.);
#1137=ADVANCED_FACE('',(#102),#1084,.T.);
#1138=ADVANCED_FACE('',(#103),#1085,.T.);
#1139=ADVANCED_FACE('',(#104,#19),#1086,.T.);
#1140=ADVANCED_FACE('',(#105),#1087,.T.);
#1141=ADVANCED_FACE('',(#106),#28,.F.);
#1142=ADVANCED_FACE('',(#107),#29,.F.);
#1143=ADVANCED_FACE('',(#108),#30,.F.);
#1144=ADVANCED_FACE('',(#109),#31,.F.);
#1145=ADVANCED_FACE('',(#110),#1088,.T.);
#1146=ADVANCED_FACE('',(#111),#1089,.T.);
#1147=ADVANCED_FACE('',(#112,#20),#1090,.T.);
#1148=ADVANCED_FACE('',(#113),#1091,.T.);
#1149=ADVANCED_FACE('',(#114),#1092,.T.);
#1150=ADVANCED_FACE('',(#115,#21,#22,#23,#24),#1093,.T.);
#1151=CLOSED_SHELL('',(#1094,#1095,#1096,#1097,#1098,#1099,#1100,#1101,
#1102,#1103,#1104,#1105,#1106,#1107,#1108,#1109,#1110,#1111,#1112,#1113,
#1114,#1115,#1116,#1117,#1118,#1119,#1120,#1121,#1122,#1123,#1124,#1125,
#1126,#1127,#1128,#1129,#1130,#1131,#1132,#1133,#1134,#1135,#1136,#1137,
#1138,#1139,#1140,#1141,#1142,#1143,#1144,#1145,#1146,#1147,#1148,#1149,
#1150));
#1152=DERIVED_UNIT_ELEMENT(#1154,1.);
#1153=DERIVED_UNIT_ELEMENT(#1882,-3.);
#1154=(
MASS_UNIT()
NAMED_UNIT(*)
SI_UNIT(.KILO.,.GRAM.)
);
#1155=DERIVED_UNIT((#1152,#1153));
#1156=MEASURE_REPRESENTATION_ITEM('density measure',
POSITIVE_RATIO_MEASURE(7850.),#1155);
#1157=PROPERTY_DEFINITION_REPRESENTATION(#1162,#1159);
#1158=PROPERTY_DEFINITION_REPRESENTATION(#1163,#1160);
#1159=REPRESENTATION('material name',(#1161),#1879);
#1160=REPRESENTATION('density',(#1156),#1879);
#1161=DESCRIPTIVE_REPRESENTATION_ITEM('Steel','Steel');
#1162=PROPERTY_DEFINITION('material property','material name',#1889);
#1163=PROPERTY_DEFINITION('material property','density of part',#1889);
#1164=AXIS2_PLACEMENT_3D('',#1530,#1240,#1241);
#1165=AXIS2_PLACEMENT_3D('',#1531,#1242,#1243);
#1166=AXIS2_PLACEMENT_3D('',#1547,#1248,#1249);
#1167=AXIS2_PLACEMENT_3D('',#1549,#1250,#1251);
#1168=AXIS2_PLACEMENT_3D('',#1551,#1253,#1254);
#1169=AXIS2_PLACEMENT_3D('',#1564,#1258,#1259);
#1170=AXIS2_PLACEMENT_3D('',#1566,#1260,#1261);
#1171=AXIS2_PLACEMENT_3D('',#1568,#1263,#1264);
#1172=AXIS2_PLACEMENT_3D('',#1581,#1268,#1269);
#1173=AXIS2_PLACEMENT_3D('',#1583,#1270,#1271);
#1174=AXIS2_PLACEMENT_3D('',#1585,#1273,#1274);
#1175=AXIS2_PLACEMENT_3D('',#1597,#1278,#1279);
#1176=AXIS2_PLACEMENT_3D('',#1598,#1280,#1281);
#1177=AXIS2_PLACEMENT_3D('',#1599,#1282,#1283);
#1178=AXIS2_PLACEMENT_3D('',#1614,#1289,#1290);
#1179=AXIS2_PLACEMENT_3D('',#1620,#1294,#1295);
#1180=AXIS2_PLACEMENT_3D('',#1632,#1302,#1303);
#1181=AXIS2_PLACEMENT_3D('',#1640,#1308,#1309);
#1182=AXIS2_PLACEMENT_3D('',#1641,#1310,#1311);
#1183=AXIS2_PLACEMENT_3D('',#1651,#1317,#1318);
#1184=AXIS2_PLACEMENT_3D('',#1657,#1322,#1323);
#1185=AXIS2_PLACEMENT_3D('',#1663,#1327,#1328);
#1186=AXIS2_PLACEMENT_3D('',#1669,#1332,#1333);
#1187=AXIS2_PLACEMENT_3D('',#1675,#1337,#1338);
#1188=AXIS2_PLACEMENT_3D('',#1681,#1342,#1343);
#1189=AXIS2_PLACEMENT_3D('',#1694,#1349,#1350);
#1190=AXIS2_PLACEMENT_3D('',#1698,#1353,#1354);
#1191=AXIS2_PLACEMENT_3D('',#1707,#1358,#1359);
#1192=AXIS2_PLACEMENT_3D('',#1715,#1364,#1365);
#1193=AXIS2_PLACEMENT_3D('',#1716,#1366,#1367);
#1194=AXIS2_PLACEMENT_3D('',#1717,#1368,#1369);
#1195=AXIS2_PLACEMENT_3D('',#1718,#1370,#1371);
#1196=AXIS2_PLACEMENT_3D('',#1720,#1373,#1374);
#1197=AXIS2_PLACEMENT_3D('',#1726,#1378,#1379);
#1198=AXIS2_PLACEMENT_3D('',#1728,#1380,#1381);
#1199=AXIS2_PLACEMENT_3D('',#1730,#1383,#1384);
#1200=AXIS2_PLACEMENT_3D('',#1733,#1385,#1386);
#1201=AXIS2_PLACEMENT_3D('',#1736,#1389,#1390);
#1202=AXIS2_PLACEMENT_3D('',#1740,#1393,#1394);
#1203=AXIS2_PLACEMENT_3D('',#1744,#1397,#1398);
#1204=AXIS2_PLACEMENT_3D('',#1748,#1401,#1402);
#1205=AXIS2_PLACEMENT_3D('',#1752,#1405,#1406);
#1206=AXIS2_PLACEMENT_3D('',#1756,#1409,#1410);
#1207=AXIS2_PLACEMENT_3D('',#1760,#1413,#1414);
#1208=AXIS2_PLACEMENT_3D('',#1766,#1418,#1419);
#1209=AXIS2_PLACEMENT_3D('',#1775,#1424,#1425);
#1210=AXIS2_PLACEMENT_3D('',#1778,#1428,#1429);
#1211=AXIS2_PLACEMENT_3D('',#1782,#1432,#1433);
#1212=AXIS2_PLACEMENT_3D('',#1792,#1439,#1440);
#1213=AXIS2_PLACEMENT_3D('',#1800,#1445,#1446);
#1214=AXIS2_PLACEMENT_3D('',#1804,#1449,#1450);
#1215=AXIS2_PLACEMENT_3D('',#1808,#1453,#1454);
#1216=AXIS2_PLACEMENT_3D('',#1814,#1458,#1459);
#1217=AXIS2_PLACEMENT_3D('',#1825,#1466,#1467);
#1218=AXIS2_PLACEMENT_3D('',#1827,#1468,#1469);
#1219=AXIS2_PLACEMENT_3D('',#1829,#1470,#1471);
#1220=AXIS2_PLACEMENT_3D('',#1831,#1472,#1473);
#1221=AXIS2_PLACEMENT_3D('',#1832,#1474,#1475);
#1222=AXIS2_PLACEMENT_3D('',#1836,#1478,#1479);
#1223=AXIS2_PLACEMENT_3D('',#1839,#1482,#1483);
#1224=AXIS2_PLACEMENT_3D('',#1841,#1485,#1486);
#1225=AXIS2_PLACEMENT_3D('',#1846,#1490,#1491);
#1226=AXIS2_PLACEMENT_3D('',#1847,#1492,#1493);
#1227=AXIS2_PLACEMENT_3D('',#1849,#1494,#1495);
#1228=AXIS2_PLACEMENT_3D('',#1851,#1497,#1498);
#1229=AXIS2_PLACEMENT_3D('',#1853,#1499,#1500);
#1230=AXIS2_PLACEMENT_3D('',#1855,#1502,#1503);
#1231=AXIS2_PLACEMENT_3D('',#1857,#1504,#1505);
#1232=AXIS2_PLACEMENT_3D('',#1859,#1507,#1508);
#1233=AXIS2_PLACEMENT_3D('',#1861,#1509,#1510);
#1234=AXIS2_PLACEMENT_3D('',#1863,#1512,#1513);
#1235=AXIS2_PLACEMENT_3D('',#1865,#1515,#1516);
#1236=AXIS2_PLACEMENT_3D('',#1866,#1517,#1518);
#1237=AXIS2_PLACEMENT_3D('',#1870,#1521,#1522);
#1238=AXIS2_PLACEMENT_3D('',#1874,#1525,#1526);
#1239=AXIS2_PLACEMENT_3D('',#1876,#1528,#1529);
#1240=DIRECTION('axis',(0.,0.,1.));
#1241=DIRECTION('refdir',(1.,0.,0.));
#1242=DIRECTION('center_axis',(0.000206173188216615,0.999999978746308,-5.57556718900105E-32));
#1243=DIRECTION('ref_axis',(3.12729329496441E-15,-6.44764042814928E-19,
-1.));
#1244=DIRECTION('',(1.1495324634724E-35,5.57556707049966E-32,1.));
#1245=DIRECTION('',(-0.999999978746308,0.000206173188216615,0.));
#1246=DIRECTION('',(-1.1495324634724E-35,-5.57556707049966E-32,-1.));
#1247=DIRECTION('',(-0.999999978746308,0.000206173188216615,0.));
#1248=DIRECTION('center_axis',(0.999999978746308,-0.000206173188216633,
0.));
#1249=DIRECTION('ref_axis',(-4.57755137915628E-20,-2.22024566892618E-16,
1.));
#1250=DIRECTION('center_axis',(-0.999999978746308,0.000206173188216633,
0.));
#1251=DIRECTION('ref_axis',(-4.57755137915628E-20,-2.22024566892618E-16,
1.));
#1252=DIRECTION('',(-0.999999978746308,0.000206173188216615,0.));
#1253=DIRECTION('center_axis',(-1.42172810859251E-19,-6.89579518400717E-16,
1.));
#1254=DIRECTION('ref_axis',(0.000206173188216633,0.999999978746308,6.89579533056829E-16));
#1255=DIRECTION('',(-0.000206173188216633,-0.999999978746308,-6.89579533056828E-16));
#1256=DIRECTION('',(0.000206173188216633,0.999999978746308,6.89579533056828E-16));
#1257=DIRECTION('',(-0.999999978746308,0.000206173188216615,0.));
#1258=DIRECTION('center_axis',(0.999999978746308,-0.000206173188216633,
0.));
#1259=DIRECTION('ref_axis',(-4.57755137915628E-20,-2.22024566892618E-16,
1.));
#1260=DIRECTION('center_axis',(-0.999999978746308,0.000206173188216633,
0.));
#1261=DIRECTION('ref_axis',(-4.57755137915628E-20,-2.22024566892618E-16,
1.));
#1262=DIRECTION('',(-0.999999978746308,0.000206173188216615,0.));
#1263=DIRECTION('center_axis',(-0.000206173188216615,-0.999999978746308,
-8.03499890971466E-50));
#1264=DIRECTION('ref_axis',(4.50330220602992E-33,-9.28460193053392E-37,
1.));
#1265=DIRECTION('',(1.65660134253304E-53,8.03499873894127E-50,-1.));
#1266=DIRECTION('',(-1.65660134253304E-53,-8.03499873894127E-50,1.));
#1267=DIRECTION('',(-0.999999978746308,0.000206173188216615,0.));
#1268=DIRECTION('center_axis',(0.999999978746308,-0.000206173188216633,
0.));
#1269=DIRECTION('ref_axis',(4.57755137915628E-20,2.22024566892618E-16,-1.));
#1270=DIRECTION('center_axis',(-0.999999978746308,0.000206173188216633,
0.));
#1271=DIRECTION('ref_axis',(4.57755137915628E-20,2.22024566892618E-16,-1.));
#1272=DIRECTION('',(-0.999999978746308,0.000206173188216615,0.));
#1273=DIRECTION('center_axis',(3.55432027148128E-20,1.72394879600179E-16,
-1.));
#1274=DIRECTION('ref_axis',(-0.000206173188216633,-0.999999978746308,-1.72394883264207E-16));
#1275=DIRECTION('',(0.000206173188216633,0.999999978746308,1.72394883264207E-16));
#1276=DIRECTION('',(-0.000206173188216633,-0.999999978746308,-1.72394883264207E-16));
#1277=DIRECTION('',(-0.999999978746308,0.000206173188216615,0.));
#1278=DIRECTION('center_axis',(0.999999978746308,-0.000206173188216633,
0.));
#1279=DIRECTION('ref_axis',(4.57755137915628E-20,2.22024566892618E-16,-1.));
#1280=DIRECTION('center_axis',(-0.999999978746308,0.000206173188216633,
0.));
#1281=DIRECTION('ref_axis',(4.57755137915628E-20,2.22024566892618E-16,-1.));
#1282=DIRECTION('center_axis',(-0.999999978746308,0.000206173188217473,
0.));
#1283=DIRECTION('ref_axis',(0.,0.,1.));
#1284=DIRECTION('',(0.,0.,-1.));
#1285=DIRECTION('',(0.,0.,1.));
#1286=DIRECTION('',(-0.000206173188217473,-0.999999978746308,0.));
#1287=DIRECTION('',(0.,0.,-1.));
#1288=DIRECTION('',(-0.000206173188217473,-0.999999978746308,0.));
#1289=DIRECTION('center_axis',(-0.447213585995013,9.22034527984248E-5,0.894427190999919));
#1290=DIRECTION('ref_axis',(0.894427194801894,0.,0.447213587896001));
#1291=DIRECTION('',(-0.894427171989512,0.000184409459057916,-0.447213595499953));
#1292=DIRECTION('',(0.894427171989512,-0.00018440945905782,0.447213595499953));
#1293=DIRECTION('',(0.000206173188217473,0.999999978746308,0.));
#1294=DIRECTION('center_axis',(-0.000206176043073732,-0.999999978745719,
0.));
#1295=DIRECTION('ref_axis',(-0.999999978745719,0.000206176043073732,0.));
#1296=DIRECTION('',(-0.999999978745719,0.000206176043073732,0.));
#1297=DIRECTION('',(0.999999978745719,-0.000206176043073732,0.));
#1298=DIRECTION('',(0.,0.,-1.));
#1299=DIRECTION('',(0.999999978745719,-0.000206176043073732,0.));
#1300=DIRECTION('',(0.,0.,-1.));
#1301=DIRECTION('',(0.999999978745719,-0.000206176043073732,0.));
#1302=DIRECTION('center_axis',(0.,0.,1.));
#1303=DIRECTION('ref_axis',(1.,0.,0.));
#1304=DIRECTION('',(0.999998150284528,0.00192338959195126,0.));
#1305=DIRECTION('',(-0.00192338959195553,0.999998150284528,0.));
#1306=DIRECTION('',(-0.999999978745719,0.000206176043073624,0.));
#1307=DIRECTION('',(0.00192338959195719,-0.999998150284528,0.));
#1308=DIRECTION('center_axis',(0.000206176043073624,0.999999978745719,0.));
#1309=DIRECTION('ref_axis',(0.999999978745719,-0.000206176043073624,0.));
#1310=DIRECTION('center_axis',(-0.000206176043073624,-0.999999978745719,
0.));
#1311=DIRECTION('ref_axis',(-0.999999978745719,0.000206176043073624,-1.52817470361885E-11));
#1312=DIRECTION('',(0.,0.,1.));
#1313=DIRECTION('',(-0.999999978745719,0.000206176043073624,0.));
#1314=DIRECTION('',(0.,0.,-1.));
#1315=DIRECTION('',(-0.999999978745719,0.000206176043073624,0.));
#1316=DIRECTION('',(0.999999978745719,-0.000206176043073624,0.));
#1317=DIRECTION('center_axis',(0.,0.,1.));
#1318=DIRECTION('ref_axis',(1.,0.,0.));
#1319=DIRECTION('',(0.000206173188217917,0.999999978746308,0.));
#1320=DIRECTION('',(0.999999978745719,-0.000206176043073732,0.));
#1321=DIRECTION('',(-0.000206173188216653,-0.999999978746308,0.));
#1322=DIRECTION('center_axis',(0.,0.,1.));
#1323=DIRECTION('ref_axis',(1.,0.,0.));
#1324=DIRECTION('',(0.000206173188217917,0.999999978746308,0.));
#1325=DIRECTION('',(-0.000206173188216653,-0.999999978746308,0.));
#1326=DIRECTION('',(-0.999999978745719,0.000206176043073624,0.));
#1327=DIRECTION('center_axis',(0.000206176043073624,0.999999978745719,0.));
#1328=DIRECTION('ref_axis',(-0.999999978745719,0.000206176043073624,0.));
#1329=DIRECTION('',(0.,0.,1.));
#1330=DIRECTION('',(0.,0.,-1.));
#1331=DIRECTION('',(0.999999978745719,-0.000206176043073624,0.));
#1332=DIRECTION('center_axis',(0.,0.,1.));
#1333=DIRECTION('ref_axis',(1.,0.,0.));
#1334=DIRECTION('',(0.000206173188217917,0.999999978746308,0.));
#1335=DIRECTION('',(-0.000206173188216653,-0.999999978746308,0.));
#1336=DIRECTION('',(-0.999999978745719,0.000206176043073624,0.));
#1337=DIRECTION('center_axis',(0.000206176043073624,0.999999978745719,0.));
#1338=DIRECTION('ref_axis',(-0.999999978745719,0.000206176043073624,0.));
#1339=DIRECTION('',(0.,0.,1.));
#1340=DIRECTION('',(0.,0.,1.));
#1341=DIRECTION('',(0.999999978745719,-0.000206176043073624,0.));
#1342=DIRECTION('center_axis',(0.999999978745719,-0.000206176043073613,
0.));
#1343=DIRECTION('ref_axis',(0.000206176043073613,0.999999978745719,0.));
#1344=DIRECTION('',(0.000206176043073613,0.999999978745719,0.));
#1345=DIRECTION('',(0.,0.,-1.));
#1346=DIRECTION('',(-0.000206176043073613,-0.999999978745719,0.));
#1347=DIRECTION('',(0.,0.,-1.));
#1348=DIRECTION('',(-0.000206176043073613,-0.999999978745719,1.73118789941387E-35));
#1349=DIRECTION('center_axis',(0.999999978745719,-0.000206176043073613,
0.));
#1350=DIRECTION('ref_axis',(-0.000145788478175711,-0.707106766157501,0.707106781186548));
#1351=DIRECTION('',(0.000206176043073613,0.999999978745719,0.));
#1352=DIRECTION('',(0.,0.,-1.));
#1353=DIRECTION('center_axis',(0.999999978745719,-0.000206176043073613,
0.));
#1354=DIRECTION('ref_axis',(0.000206176043073613,0.999999978745719,0.));
#1355=DIRECTION('',(0.000206176043073613,0.999999978745719,0.));
#1356=DIRECTION('',(0.,0.,1.));
#1357=DIRECTION('',(0.000206176043073613,0.999999978745719,0.));
#1358=DIRECTION('center_axis',(0.999999978745719,-0.000206176043073613,
0.));
#1359=DIRECTION('ref_axis',(0.000145788478181991,0.707106766157502,0.707106781186547));
#1360=DIRECTION('',(-0.000206176043073613,-0.999999978745719,1.73118789941387E-35));
#1361=DIRECTION('',(0.,0.,1.));
#1362=DIRECTION('',(-0.000206176043073613,-0.999999978745719,0.));
#1363=DIRECTION('',(0.,0.,1.));
#1364=DIRECTION('center_axis',(-0.00192338959195719,0.999998150284528,0.));
#1365=DIRECTION('ref_axis',(-0.937498265891744,-0.00180317774245986,0.347985272676878));
#1366=DIRECTION('center_axis',(0.00192338959195126,-0.999998150284528,0.));
#1367=DIRECTION('ref_axis',(-0.937498265891744,-0.00180317774245986,0.347985272676878));
#1368=DIRECTION('center_axis',(-0.00192338959195126,0.999998150284528,0.));
#1369=DIRECTION('ref_axis',(-0.999998150284528,-0.00192338959195126,0.));
#1370=DIRECTION('center_axis',(0.999998150284528,0.00192338959195553,0.));
#1371=DIRECTION('ref_axis',(-0.00192338959195553,0.999998150284528,0.));
#1372=DIRECTION('',(-0.00192338959195553,0.999998150284528,0.));
#1373=DIRECTION('center_axis',(0.,0.,-1.));
#1374=DIRECTION('ref_axis',(-1.,0.,0.));
#1375=DIRECTION('',(0.999999978745719,-0.000206176043073732,0.));
#1376=DIRECTION('',(0.000206173188216633,0.999999978746308,0.));
#1377=DIRECTION('',(-0.999999978745719,0.000206176043073732,0.));
#1378=DIRECTION('center_axis',(-0.999999978745719,0.000206176043073732,
8.39664898411291E-32));
#1379=DIRECTION('ref_axis',(-0.000145788478175711,-0.707106766157501,0.707106781186548));
#1380=DIRECTION('center_axis',(0.999999978746308,-0.000206173188216633,
0.));
#1381=DIRECTION('ref_axis',(-0.000145786459486831,-0.707106766157917,0.707106781186548));
#1382=DIRECTION('',(-0.999999978745719,0.000206176043073732,8.39664898411291E-32));
#1383=DIRECTION('center_axis',(0.999999978745719,-0.000206176043073624,
-8.39664898411291E-32));
#1384=DIRECTION('ref_axis',(0.000145788478181991,0.707106766157502,0.707106781186547));
#1385=DIRECTION('center_axis',(0.999999978746308,-0.000206173188216633,
0.));
#1386=DIRECTION('ref_axis',(0.000145786459486832,0.707106766157919,0.707106781186547));
#1387=DIRECTION('',(0.999999978745719,-0.000206176043073624,-8.39664898411291E-32));
#1388=DIRECTION('',(-0.999999978745719,0.000206176043073624,0.));
#1389=DIRECTION('center_axis',(8.39664916257765E-32,-3.75871831147408E-47,
1.));
#1390=DIRECTION('ref_axis',(1.,0.,-8.39664916257765E-32));
#1391=DIRECTION('',(-0.000206173188216633,-0.999999978746308,1.7311639281814E-35));
#1392=DIRECTION('',(-0.999999978745719,0.000206176043073624,8.39664898411291E-32));
#1393=DIRECTION('center_axis',(0.,0.,-1.));
#1394=DIRECTION('ref_axis',(-1.,0.,0.));
#1395=DIRECTION('',(0.999999978745719,-0.000206176043073624,0.));
#1396=DIRECTION('',(0.000206173188216633,0.999999978746308,0.));
#1397=DIRECTION('center_axis',(0.000206176043073624,0.999999978745719,0.));
#1398=DIRECTION('ref_axis',(-0.999999978745719,0.000206176043073624,0.));
#1399=DIRECTION('',(0.,0.,-1.));
#1400=DIRECTION('',(-0.999999978745719,0.000206176043073624,8.39664898411291E-32));
#1401=DIRECTION('center_axis',(8.39664916257765E-32,-3.75871831147408E-47,
1.));
#1402=DIRECTION('ref_axis',(1.,0.,-8.39664916257765E-32));
#1403=DIRECTION('',(0.999999978745719,-0.000206176043073732,-8.39664898411291E-32));
#1404=DIRECTION('',(-0.000206173188216633,-0.999999978746308,1.7311639281814E-35));
#1405=DIRECTION('center_axis',(-0.000206176043073732,-0.999999978745719,
0.));
#1406=DIRECTION('ref_axis',(0.999999978745719,-0.000206176043073732,0.));
#1407=DIRECTION('',(0.999999978745719,-0.000206176043073732,-8.39664898411291E-32));
#1408=DIRECTION('',(0.,0.,1.));
#1409=DIRECTION('center_axis',(-0.000206176043073732,-0.999999978745719,
0.));
#1410=DIRECTION('ref_axis',(0.999999978745719,-0.000206176043073732,0.));
#1411=DIRECTION('',(0.999999978745719,-0.000206176043073732,0.));
#1412=DIRECTION('',(0.,0.,1.));
#1413=DIRECTION('center_axis',(-0.000206176043073732,-0.999999978745719,
0.));
#1414=DIRECTION('ref_axis',(0.999999978745719,-0.000206176043073732,0.));
#1415=DIRECTION('',(0.,0.,-1.));
#1416=DIRECTION('',(-0.999999978745719,0.000206176043073732,0.));
#1417=DIRECTION('',(0.,0.,1.));
#1418=DIRECTION('center_axis',(-0.000206176043073732,-0.999999978745719,
0.));
#1419=DIRECTION('ref_axis',(0.999999978745719,-0.000206176043073732,0.));
#1420=DIRECTION('',(0.,0.,-1.));
#1421=DIRECTION('',(-0.999999978745719,0.000206176043073732,0.));
#1422=DIRECTION('',(0.,0.,1.));
#1423=DIRECTION('',(0.999999978745719,-0.000206176043073732,0.));
#1424=DIRECTION('center_axis',(0.,0.,1.));
#1425=DIRECTION('ref_axis',(1.,0.,0.));
#1426=DIRECTION('',(0.000206173188217917,0.999999978746308,0.));
#1427=DIRECTION('',(-0.000206173188216653,-0.999999978746308,0.));
#1428=DIRECTION('center_axis',(0.000206176043073624,0.999999978745719,0.));
#1429=DIRECTION('ref_axis',(-0.999999978745719,0.000206176043073624,0.));
#1430=DIRECTION('',(-0.999999978745719,0.000206176043073624,0.));
#1431=DIRECTION('',(0.,0.,-1.));
#1432=DIRECTION('center_axis',(0.,0.,-1.));
#1433=DIRECTION('ref_axis',(-1.,0.,0.));
#1434=DIRECTION('',(0.000206173188216653,0.999999978746308,0.));
#1435=DIRECTION('',(0.000206173188216653,0.999999978746308,0.));
#1436=DIRECTION('',(-0.999999978746308,0.000206173188215253,0.));
#1437=DIRECTION('',(0.000206173188216633,0.999999978746308,0.));
#1438=DIRECTION('',(-0.999999978746308,0.000206173188217473,0.));
#1439=DIRECTION('center_axis',(0.000206173188215253,0.999999978746308,0.));
#1440=DIRECTION('ref_axis',(-0.999999978746308,0.000206173188215253,0.));
#1441=DIRECTION('',(0.,0.,1.));
#1442=DIRECTION('',(0.,0.,1.));
#1443=DIRECTION('',(-0.999999978746308,0.000206173188215253,0.));
#1444=DIRECTION('',(0.,0.,-1.));
#1445=DIRECTION('center_axis',(0.,0.,-1.));
#1446=DIRECTION('ref_axis',(-1.,0.,0.));
#1447=DIRECTION('',(0.999999978745719,-0.00020617604307358,0.));
#1448=DIRECTION('',(-0.000206173188216633,-0.999999978746308,0.));
#1449=DIRECTION('center_axis',(0.00020617604307358,0.999999978745719,0.));
#1450=DIRECTION('ref_axis',(0.999999978745719,-0.00020617604307358,0.));
#1451=DIRECTION('',(-0.999999978745719,0.00020617604307358,0.));
#1452=DIRECTION('',(0.,0.,-1.));
#1453=DIRECTION('center_axis',(0.000206176043073732,0.999999978745719,0.));
#1454=DIRECTION('ref_axis',(-0.999999978745719,0.000206176043073732,0.));
#1455=DIRECTION('',(-0.999999978745719,0.000206176043073732,8.39664898411291E-32));
#1456=DIRECTION('',(0.,0.,1.));
#1457=DIRECTION('',(-0.999999978745719,0.000206176043073732,0.));
#1458=DIRECTION('center_axis',(0.,0.,1.));
#1459=DIRECTION('ref_axis',(-1.,0.,0.));
#1460=DIRECTION('',(0.999999978745719,-0.000206176043073732,0.));
#1461=DIRECTION('',(-0.000206173188216633,-0.999999978746308,0.));
#1462=DIRECTION('',(0.000206173188216653,0.999999978746308,-1.73116392818156E-35));
#1463=DIRECTION('',(0.999999978745719,-0.000206176043073542,-8.39664898411291E-32));
#1464=DIRECTION('',(-1.7580483203978E-7,0.999999999999985,0.));
#1465=DIRECTION('',(0.000206173188216653,0.999999978746308,-1.73116392818156E-35));
#1466=DIRECTION('center_axis',(0.,0.,1.));
#1467=DIRECTION('ref_axis',(-1.,0.,0.));
#1468=DIRECTION('center_axis',(0.,0.,1.));
#1469=DIRECTION('ref_axis',(-1.,0.,0.));
#1470=DIRECTION('center_axis',(0.,0.,1.));
#1471=DIRECTION('ref_axis',(-1.,0.,0.));
#1472=DIRECTION('center_axis',(0.,0.,1.));
#1473=DIRECTION('ref_axis',(-1.,0.,0.));
#1474=DIRECTION('center_axis',(-0.999999999999985,-1.7580483203978E-7,0.));
#1475=DIRECTION('ref_axis',(1.7580483203978E-7,-0.999999999999985,0.));
#1476=DIRECTION('',(0.,0.,1.));
#1477=DIRECTION('',(1.7580483203978E-7,-0.999999999999985,0.));
#1478=DIRECTION('center_axis',(0.,0.,1.));
#1479=DIRECTION('ref_axis',(0.000206173188216633,0.999999978746308,0.));
#1480=DIRECTION('',(0.000206173188216633,0.999999978746308,0.));
#1481=DIRECTION('',(-0.000206173188216633,-0.999999978746308,0.));
#1482=DIRECTION('center_axis',(-0.999999978746308,0.000206173188217917,
0.));
#1483=DIRECTION('ref_axis',(0.,0.,1.));
#1484=DIRECTION('',(0.000206173188217917,0.999999978746308,0.));
#1485=DIRECTION('center_axis',(-0.999999978746308,0.000206173188216633,
0.));
#1486=DIRECTION('ref_axis',(0.000206173188216633,0.999999978746308,0.));
#1487=DIRECTION('',(0.,0.,-1.));
#1488=DIRECTION('',(0.,0.,-1.));
#1489=DIRECTION('',(-0.000206173188216633,-0.999999978746308,0.));
#1490=DIRECTION('center_axis',(0.,0.,1.));
#1491=DIRECTION('ref_axis',(0.000206173188216633,0.999999978746308,0.));
#1492=DIRECTION('center_axis',(0.,0.,-1.));
#1493=DIRECTION('ref_axis',(-1.,0.,0.));
#1494=DIRECTION('center_axis',(0.,0.,-1.));
#1495=DIRECTION('ref_axis',(-1.,0.,0.));
#1496=DIRECTION('',(0.,0.,-1.));
#1497=DIRECTION('center_axis',(0.,0.,-1.));
#1498=DIRECTION('ref_axis',(-1.,0.,0.));
#1499=DIRECTION('center_axis',(0.,0.,-1.));
#1500=DIRECTION('ref_axis',(-1.,0.,0.));
#1501=DIRECTION('',(0.,0.,-1.));
#1502=DIRECTION('center_axis',(0.,0.,-1.));
#1503=DIRECTION('ref_axis',(-1.,0.,0.));
#1504=DIRECTION('center_axis',(0.,0.,-1.));
#1505=DIRECTION('ref_axis',(-1.,0.,0.));
#1506=DIRECTION('',(0.,0.,-1.));
#1507=DIRECTION('center_axis',(0.,0.,-1.));
#1508=DIRECTION('ref_axis',(-1.,0.,0.));
#1509=DIRECTION('center_axis',(0.,0.,-1.));
#1510=DIRECTION('ref_axis',(-1.,0.,0.));
#1511=DIRECTION('',(0.,0.,-1.));
#1512=DIRECTION('center_axis',(-0.000206176043073732,-0.999999978745719,
0.));
#1513=DIRECTION('ref_axis',(-0.999999978745719,0.000206176043073732,0.));
#1514=DIRECTION('',(-0.999999978745719,0.000206176043073732,0.));
#1515=DIRECTION('center_axis',(0.,0.,-1.));
#1516=DIRECTION('ref_axis',(-1.,0.,0.));
#1517=DIRECTION('center_axis',(0.999999978746308,-0.000206173188216633,
0.));
#1518=DIRECTION('ref_axis',(0.000206173188216633,0.999999978746308,0.));
#1519=DIRECTION('',(0.000206173188216633,0.999999978746308,0.));
#1520=DIRECTION('',(0.,0.,1.));
#1521=DIRECTION('center_axis',(-0.000206173188215253,-0.999999978746308,
0.));
#1522=DIRECTION('ref_axis',(0.999999978746308,-0.000206173188215253,0.));
#1523=DIRECTION('',(0.999999978746308,-0.000206173188215253,0.));
#1524=DIRECTION('',(0.,0.,1.));
#1525=DIRECTION('center_axis',(-0.000206176043073542,-0.999999978745719,
0.));
#1526=DIRECTION('ref_axis',(0.999999978745719,-0.000206176043073542,0.));
#1527=DIRECTION('',(0.999999978745719,-0.000206176043073542,0.));
#1528=DIRECTION('center_axis',(0.,0.,1.));
#1529=DIRECTION('ref_axis',(1.,0.,0.));
#1530=CARTESIAN_POINT('',(0.,0.,0.));
#1531=CARTESIAN_POINT('Origin',(10.0812291659962,3.88129860675719,10.2100000149012));
#1532=CARTESIAN_POINT('',(8.08122920850356,3.88171095313362,9.50000001490118));
#1533=CARTESIAN_POINT('',(8.08122920850356,3.88171095313362,10.2100000149012));
#1534=CARTESIAN_POINT('',(8.08122920850356,3.88171095313362,13.5061570566309));
#1535=CARTESIAN_POINT('',(10.0812291659962,3.88129860675719,9.50000001490118));
#1536=CARTESIAN_POINT('',(10.0812291659962,3.88129860675719,9.50000001490118));
#1537=CARTESIAN_POINT('',(10.0812291659962,3.88129860675719,10.2100000149012));
#1538=CARTESIAN_POINT('',(10.0812291659962,3.88129860675719,13.5061570566309));
#1539=CARTESIAN_POINT('',(10.0812291659962,3.88129860675719,10.2100000149012));
#1540=CARTESIAN_POINT('Ctrl Pts',(10.0809714495164,2.63129865989142,11.4600000149012));
#1541=CARTESIAN_POINT('Ctrl Pts',(10.0812291659962,3.88129860675719,11.4600000149012));
#1542=CARTESIAN_POINT('Ctrl Pts',(10.0812291659962,3.88129860675719,10.2100000149012));
#1543=CARTESIAN_POINT('Ctrl Pts',(8.08097149202377,2.63171100626785,11.4600000149012));
#1544=CARTESIAN_POINT('Ctrl Pts',(8.08122920850356,3.88171095313362,11.4600000149012));
#1545=CARTESIAN_POINT('Ctrl Pts',(8.08122920850356,3.88171095313362,10.2100000149012));
#1546=CARTESIAN_POINT('',(8.08097149202377,2.63171100626785,11.4600000149012));
#1547=CARTESIAN_POINT('Origin',(8.08097149202377,2.63171100626785,10.2100000149012));
#1548=CARTESIAN_POINT('',(10.0809714495164,2.63129865989142,11.4600000149012));
#1549=CARTESIAN_POINT('Origin',(10.0809714495164,2.63129865989142,10.2100000149012));
#1550=CARTESIAN_POINT('',(10.0809714495164,2.63129865989142,11.4600000149012));
#1551=CARTESIAN_POINT('Origin',(10.0796436942125,-3.80870106636104,11.4600000149012));
#1552=CARTESIAN_POINT('',(8.07964373671988,-3.80828871998461,11.4600000149012));
#1553=CARTESIAN_POINT('',(8.07845039305798,-9.59635285602403,11.4600000149012));
#1554=CARTESIAN_POINT('',(10.0796436942125,-3.80870106636104,11.4600000149012));
#1555=CARTESIAN_POINT('',(10.0784503505506,-9.59676520240046,11.4600000149012));
#1556=CARTESIAN_POINT('',(10.0796436942125,-3.80870106636104,11.4600000149012));
#1557=CARTESIAN_POINT('Ctrl Pts',(10.0793859777327,-5.05870101322682,10.2100000149012));
#1558=CARTESIAN_POINT('Ctrl Pts',(10.0793859777327,-5.05870101322681,11.4600000149012));
#1559=CARTESIAN_POINT('Ctrl Pts',(10.0796436942125,-3.80870106636104,11.4600000149012));
#1560=CARTESIAN_POINT('Ctrl Pts',(8.07938602024008,-5.05828866685038,10.2100000149012));
#1561=CARTESIAN_POINT('Ctrl Pts',(8.07938602024008,-5.05828866685038,11.4600000149012));
#1562=CARTESIAN_POINT('Ctrl Pts',(8.07964373671987,-3.80828871998461,11.4600000149012));
#1563=CARTESIAN_POINT('',(8.07938602024008,-5.05828866685038,10.2100000149012));
#1564=CARTESIAN_POINT('Origin',(8.07964373671987,-3.80828871998461,10.2100000149012));
#1565=CARTESIAN_POINT('',(10.0793859777327,-5.05870101322681,10.2100000149012));
#1566=CARTESIAN_POINT('Origin',(10.0796436942125,-3.80870106636104,10.2100000149012));
#1567=CARTESIAN_POINT('',(10.0793859777327,-5.05870101322681,10.2100000149012));
#1568=CARTESIAN_POINT('Origin',(10.0793859777327,-5.05870101322681,9.50000001490117));
#1569=CARTESIAN_POINT('',(8.07938602024008,-5.05828866685038,9.50000001490117));
#1570=CARTESIAN_POINT('',(8.07938602024008,-5.05828866685038,13.1511570566309));
#1571=CARTESIAN_POINT('',(10.0793859777327,-5.05870101322681,9.50000001490117));
#1572=CARTESIAN_POINT('',(10.0793859777327,-5.05870101322681,13.1511570566309));
#1573=CARTESIAN_POINT('',(10.0793859777327,-5.05870101322681,9.50000001490117));
#1574=CARTESIAN_POINT('Ctrl Pts',(10.0796436942125,-3.80870106636104,8.25000001490117));
#1575=CARTESIAN_POINT('Ctrl Pts',(10.0793859777327,-5.05870101322681,8.25000001490117));
#1576=CARTESIAN_POINT('Ctrl Pts',(10.0793859777327,-5.05870101322681,9.50000001490117));
#1577=CARTESIAN_POINT('Ctrl Pts',(8.07964373671987,-3.80828871998461,8.25000001490117));
#1578=CARTESIAN_POINT('Ctrl Pts',(8.07938602024008,-5.05828866685038,8.25000001490117));
#1579=CARTESIAN_POINT('Ctrl Pts',(8.07938602024008,-5.05828866685038,9.50000001490117));
#1580=CARTESIAN_POINT('',(8.07964373671988,-3.80828871998461,8.25000001490117));
#1581=CARTESIAN_POINT('Origin',(8.07964373671987,-3.80828871998461,9.50000001490117));
#1582=CARTESIAN_POINT('',(10.0796436942125,-3.80870106636104,8.25000001490117));
#1583=CARTESIAN_POINT('Origin',(10.0796436942125,-3.80870106636104,9.50000001490117));
#1584=CARTESIAN_POINT('',(10.0796436942125,-3.80870106636104,8.25000001490117));
#1585=CARTESIAN_POINT('Origin',(10.0809714495164,2.63129865989142,8.25000001490117));
#1586=CARTESIAN_POINT('',(8.08097149202377,2.63171100626785,8.25000001490117));
#1587=CARTESIAN_POINT('',(8.07911427070993,-6.3763529928978,8.25000001490117));
#1588=CARTESIAN_POINT('',(10.0809714495164,2.63129865989142,8.25000001490117));
#1589=CARTESIAN_POINT('',(10.0791142282025,-6.37676533927424,8.25000001490117));
#1590=CARTESIAN_POINT('',(10.0809714495164,2.63129865989142,8.25000001490117));
#1591=CARTESIAN_POINT('Ctrl Pts',(10.0812291659962,3.88129860675719,9.50000001490118));
#1592=CARTESIAN_POINT('Ctrl Pts',(10.0812291659962,3.88129860675719,8.25000001490117));
#1593=CARTESIAN_POINT('Ctrl Pts',(10.0809714495164,2.63129865989142,8.25000001490117));
#1594=CARTESIAN_POINT('Ctrl Pts',(8.08122920850356,3.88171095313362,9.50000001490118));
#1595=CARTESIAN_POINT('Ctrl Pts',(8.08122920850356,3.88171095313362,8.25000001490117));
#1596=CARTESIAN_POINT('Ctrl Pts',(8.08097149202377,2.63171100626785,8.25000001490117));
#1597=CARTESIAN_POINT('Origin',(8.08097149202377,2.63171100626785,9.50000001490118));
#1598=CARTESIAN_POINT('Origin',(10.0809714495164,2.63129865989142,9.50000001490118));
#1599=CARTESIAN_POINT('Origin',(4.08313123810367,13.1075205306541,-4.));
#1600=CARTESIAN_POINT('',(4.08828263682848,38.0933038900566,-4.19871770422892));
#1601=CARTESIAN_POINT('',(4.08828263682848,38.0933038900566,-4.5));
#1602=CARTESIAN_POINT('',(4.08828263682848,38.0933038900566,-4.25));
#1603=CARTESIAN_POINT('',(4.07797874057193,-11.8835923622791,-4.37282277663865));
#1604=CARTESIAN_POINT('Ctrl Pts',(4.07797874057193,-11.8835923622791,-4.37282277663865));
#1605=CARTESIAN_POINT('Ctrl Pts',(4.08222026689002,8.68904496567335,-4.28002181296518));
#1606=CARTESIAN_POINT('Ctrl Pts',(4.08828263682848,38.0933038900566,-4.19871770422892));
#1607=CARTESIAN_POINT('',(4.07797874057193,-11.8835923622791,-3.));
#1608=CARTESIAN_POINT('',(4.07797874057193,-11.8835923622791,-3.));
#1609=CARTESIAN_POINT('',(4.08828373564013,38.0986334464261,-3.));
#1610=CARTESIAN_POINT('',(4.08019418625724,-1.13803588432825,-3.));
#1611=CARTESIAN_POINT('',(4.08828373564013,38.0986334464261,-4.5));
#1612=CARTESIAN_POINT('',(4.08828373564013,38.0986334464261,-3.));
#1613=CARTESIAN_POINT('',(4.08313123800515,13.1075200528313,-4.5));
#1614=CARTESIAN_POINT('Origin',(5.08019416500356,-1.13824205751647,-2.5));
#1615=CARTESIAN_POINT('',(6.0882836931316,38.09822109434,-2.));
#1616=CARTESIAN_POINT('',(6.38828372756452,38.0981592415186,-1.8499999795954));
#1617=CARTESIAN_POINT('',(6.07797869806339,-11.8840047143652,-2.));
#1618=CARTESIAN_POINT('',(-22.9588276930457,-11.8780180203928,-16.5184035041326));
#1619=CARTESIAN_POINT('',(6.08019414374988,-1.13844823070469,-2.));
#1620=CARTESIAN_POINT('Origin',(8.08828364063102,38.0978087422559,-2.));
#1621=CARTESIAN_POINT('',(6.83828367719086,38.0980664623077,-2.));
#1622=CARTESIAN_POINT('',(8.08828372196907,38.0978087422391,-2.));
#1623=CARTESIAN_POINT('',(8.08828364063102,38.0978087422559,-2.));
#1624=CARTESIAN_POINT('',(-67.2537321378396,38.1133424612764,-2.));
#1625=CARTESIAN_POINT('',(8.08828364063102,38.0978087422559,-6.));
#1626=CARTESIAN_POINT('',(8.08828364063102,38.0978087422559,-2.));
#1627=CARTESIAN_POINT('',(6.59092805600065,38.098117461112,-6.));
#1628=CARTESIAN_POINT('',(8.5882836706729,38.097705654226,-6.));
#1629=CARTESIAN_POINT('',(6.59092805600065,38.098117461112,-4.5));
#1630=CARTESIAN_POINT('',(6.59092805600064,38.098117461112,-4.));
#1631=CARTESIAN_POINT('',(-10.5975253218006,38.1016613084913,-4.5));
#1632=CARTESIAN_POINT('Origin',(-29.2884868533315,13.1143999080525,-4.5));
#1633=CARTESIAN_POINT('',(5.74922471914444,38.0964985346798,-4.5));
#1634=CARTESIAN_POINT('',(-11.8727387738725,38.0626045708134,-4.5));
#1635=CARTESIAN_POINT('',(6.68706356893694,-11.8841302930765,-4.5));
#1636=CARTESIAN_POINT('',(6.61488835606552,25.6408098800849,-4.5));
#1637=CARTESIAN_POINT('',(5.84535678446359,-11.8839567532985,-4.5));
#1638=CARTESIAN_POINT('',(-47.2788383487962,-11.8730038167217,-4.5));
#1639=CARTESIAN_POINT('',(5.77318501920934,25.6391909536528,-4.5));
#1640=CARTESIAN_POINT('Origin',(-65.2640372755998,-11.8692956994943,-2.));
#1641=CARTESIAN_POINT('Origin',(4.93705963795159,-11.883769484183,-4.7783882181415));
#1642=CARTESIAN_POINT('',(6.68706356893694,-11.8841302930765,-6.));
#1643=CARTESIAN_POINT('',(6.68706356893694,-11.8841302930765,-4.));
#1644=CARTESIAN_POINT('',(8.07797865555485,-11.8844170664514,-6.));
#1645=CARTESIAN_POINT('',(-28.0930293563227,-11.876959470987,-6.));
#1646=CARTESIAN_POINT('',(8.07797865555485,-11.8844170664514,-2.));
#1647=CARTESIAN_POINT('',(8.07797865555485,-11.8844170664514,-2.));
#1648=CARTESIAN_POINT('',(6.82797868212263,-11.8841593463975,-2.));
#1649=CARTESIAN_POINT('',(8.08900739627302,-11.8844193403136,-2.));
#1650=CARTESIAN_POINT('',(-28.5930293050265,-11.8768563829739,-2.));
#1651=CARTESIAN_POINT('Origin',(-28.5825696137171,38.855369409777,-2.));
#1652=CARTESIAN_POINT('',(6.8385929369732,39.5980664304271,-2.));
#1653=CARTESIAN_POINT('',(6.83019412780957,-1.13860286059585,-2.));
#1654=CARTESIAN_POINT('',(8.08859290469562,39.5978087103745,-2.));
#1655=CARTESIAN_POINT('',(-46.9179189277299,39.6091497355684,-2.));
#1656=CARTESIAN_POINT('',(8.08900525678177,41.5978086678659,-2.));
#1657=CARTESIAN_POINT('Origin',(-28.5931839420548,-12.6268563670326,-2.));
#1658=CARTESIAN_POINT('',(6.8276694223403,-13.384159314517,-2.));
#1659=CARTESIAN_POINT('',(6.83019412780957,-1.13860286059585,-2.));
#1660=CARTESIAN_POINT('',(8.07766939577252,-13.3844170345709,-2.));
#1661=CARTESIAN_POINT('',(8.08900525678177,41.5978086678659,-2.));
#1662=CARTESIAN_POINT('',(-10.2578345891573,-13.3806366928311,-2.));
#1663=CARTESIAN_POINT('Origin',(8.07766939577252,-13.3844170345709,0.));
#1664=CARTESIAN_POINT('',(6.8276694223403,-13.384159314517,0.));
#1665=CARTESIAN_POINT('',(6.8276694223403,-13.384159314517,-0.250000000000001));
#1666=CARTESIAN_POINT('',(8.07766939577252,-13.3844170345709,0.));
#1667=CARTESIAN_POINT('',(8.07766939577252,-13.3844170345709,0.));
#1668=CARTESIAN_POINT('',(-10.2578345891573,-13.3806366928311,0.));
#1669=CARTESIAN_POINT('Origin',(-28.5931839420548,-12.6268563670326,0.));
#1670=CARTESIAN_POINT('',(6.82797868212263,-11.8841593463975,0.));
#1671=CARTESIAN_POINT('',(6.83047761595416,0.236397162525321,0.));
#1672=CARTESIAN_POINT('',(8.07797865555485,-11.8844170664514,0.));
#1673=CARTESIAN_POINT('',(8.08900525678177,41.5978086678659,0.));
#1674=CARTESIAN_POINT('',(8.08900739627302,-11.8844193403136,0.));
#1675=CARTESIAN_POINT('Origin',(8.07797865555485,-11.8844170664514,0.));
#1676=CARTESIAN_POINT('',(6.8279786821227,-11.8841593463976,0.999999999999998));
#1677=CARTESIAN_POINT('',(6.82797868212263,-11.8841593463975,-0.250000000000001));
#1678=CARTESIAN_POINT('',(8.07797865555485,-11.8844170664514,0.999999999999998));
#1679=CARTESIAN_POINT('',(8.07797865555485,-11.8844170664514,0.));
#1680=CARTESIAN_POINT('',(8.07797866055085,-11.8844170664524,0.999999999999998));
#1681=CARTESIAN_POINT('Origin',(-65.014346544978,-13.3693472116236,0.));
#1682=CARTESIAN_POINT('',(-65.0040414072178,36.6128785970522,11.8023140983607));
#1683=CARTESIAN_POINT('',(-65.0034228790885,39.6128785332893,11.8023140983607));
#1684=CARTESIAN_POINT('',(-65.0089362560331,12.8717657192814,11.8023140983607));
#1685=CARTESIAN_POINT('',(-65.0040414072178,36.6128785970522,16.8023140983607));
#1686=CARTESIAN_POINT('',(-65.0040414072177,36.6128785970522,8.40115704918033));
#1687=CARTESIAN_POINT('',(-65.0034228790885,39.6128785332893,16.8023140983607));
#1688=CARTESIAN_POINT('',(-65.0116156283805,-0.123790168418228,16.8023140983607));
#1689=CARTESIAN_POINT('',(-65.0034228790885,39.6128785332893,15.4523140983607));
#1690=CARTESIAN_POINT('',(-65.0034228790885,39.6128785332893,0.));
#1691=CARTESIAN_POINT('',(-65.0035259671101,39.1128785439165,15.4523140983607));
#1692=CARTESIAN_POINT('',(-65.0116156285057,-0.12379077540317,15.4523140983607));
#1693=CARTESIAN_POINT('',(-65.0035259671101,39.1128785439165,13.1523140983607));
#1694=CARTESIAN_POINT('Origin',(-65.0035259671101,39.1128785439165,14.3023140983607));
#1695=CARTESIAN_POINT('',(-65.0034228790885,39.6128785332893,13.1523140983607));
#1696=CARTESIAN_POINT('',(-65.0116156285057,-0.12379077540317,13.1523140983607));
#1697=CARTESIAN_POINT('',(-65.0034228790885,39.6128785332893,0.));
#1698=CARTESIAN_POINT('Origin',(-65.014346544978,-13.3693472116236,0.));
#1699=CARTESIAN_POINT('',(-65.014346544978,-13.3693472116236,11.8023140983607));
#1700=CARTESIAN_POINT('',(-65.0137280168488,-10.3693472753865,11.8023140983607));
#1701=CARTESIAN_POINT('',(-65.0142950009563,-13.1193471638015,11.8023140983607));
#1702=CARTESIAN_POINT('',(-65.014346544978,-13.3693472116236,13.1523140983607));
#1703=CARTESIAN_POINT('',(-65.014346544978,-13.3693472116236,0.));
#1704=CARTESIAN_POINT('',(-65.0142434569565,-12.8693472222508,13.1523140983607));
#1705=CARTESIAN_POINT('',(-65.0116156285057,-0.12379077540317,13.1523140983607));
#1706=CARTESIAN_POINT('',(-65.0142434569565,-12.8693472222508,15.4523140983607));
#1707=CARTESIAN_POINT('Origin',(-65.0142434569565,-12.8693472222508,14.3023140983607));
#1708=CARTESIAN_POINT('',(-65.014346544978,-13.3693472116236,15.4523140983607));
#1709=CARTESIAN_POINT('',(-65.0116156285057,-0.12379077540317,15.4523140983607));
#1710=CARTESIAN_POINT('',(-65.014346544978,-13.3693472116236,16.8023140983607));
#1711=CARTESIAN_POINT('',(-65.014346544978,-13.3693472116236,0.));
#1712=CARTESIAN_POINT('',(-65.0137280168488,-10.3693472753865,16.8023140983607));
#1713=CARTESIAN_POINT('',(-65.0116156283805,-0.123790168418228,16.8023140983607));
#1714=CARTESIAN_POINT('',(-65.0137280168488,-10.3693472753865,8.40115704918033));
#1715=CARTESIAN_POINT('Origin',(4.8648915930676,25.637443948299,-4.7783882181415));
#1716=CARTESIAN_POINT('Origin',(4.8409312930027,38.094751529326,-4.7783882181415));
#1717=CARTESIAN_POINT('Origin',(5.59092990571612,38.09619407152,-4.5));
#1718=CARTESIAN_POINT('Origin',(6.68706356893694,-11.8841302930765,-6.));
#1719=CARTESIAN_POINT('',(6.66303469626928,0.608829178880847,-6.));
#1720=CARTESIAN_POINT('Origin',(-28.5878768146296,13.1142565213646,13.1523140983607));
#1721=CARTESIAN_POINT('',(8.08848982381123,39.0978087210001,13.1523140983607));
#1722=CARTESIAN_POINT('',(-10.2470141265161,39.1015890627327,13.1523140983607));
#1723=CARTESIAN_POINT('',(8.08859290469562,39.5978087103745,13.1523140983607));
#1724=CARTESIAN_POINT('',(8.0801941012533,-1.13886052474367,13.1523140983607));
#1725=CARTESIAN_POINT('',(-46.9179189277299,39.6091497355684,13.1523140983607));
#1726=CARTESIAN_POINT('Origin',(-10.2470141265161,39.1015890627327,14.3023140983607));
#1727=CARTESIAN_POINT('',(8.08848982381123,39.0978087210001,15.4523140983607));
#1728=CARTESIAN_POINT('Origin',(8.08848982381123,39.0978087210001,14.3023140983607));
#1729=CARTESIAN_POINT('',(-10.2470141265161,39.1015890627327,15.4523140983607));
#1730=CARTESIAN_POINT('Origin',(-46.9287395055979,-12.8730760199717,14.3023140983607));
#1731=CARTESIAN_POINT('',(8.07777248236663,-12.8844170451977,15.4523140983607));
#1732=CARTESIAN_POINT('',(8.07777248236663,-12.8844170451977,13.1523140983607));
#1733=CARTESIAN_POINT('Origin',(8.07777248236664,-12.8844170451977,14.3023140983607));
#1734=CARTESIAN_POINT('',(-46.9287395055979,-12.8730760199717,15.4523140983607));
#1735=CARTESIAN_POINT('',(-46.9287395055979,-12.8730760199717,13.1523140983607));
#1736=CARTESIAN_POINT('Origin',(-28.5878768146296,13.1142565213646,15.4523140983607));
#1737=CARTESIAN_POINT('',(8.07766939577252,-13.3844170345709,15.4523140983607));
#1738=CARTESIAN_POINT('',(8.0801941012533,-1.13886052474367,15.4523140983607));
#1739=CARTESIAN_POINT('',(-10.2578346259009,-13.3806366928236,15.4523140983607));
#1740=CARTESIAN_POINT('Origin',(-28.5878768146296,13.1142565213646,13.1523140983607));
#1741=CARTESIAN_POINT('',(8.07766939577252,-13.3844170345709,13.1523140983607));
#1742=CARTESIAN_POINT('',(-10.2578346259009,-13.3806366928236,13.1523140983607));
#1743=CARTESIAN_POINT('',(8.0801941012533,-1.13886052474367,13.1523140983607));
#1744=CARTESIAN_POINT('Origin',(8.07766939577252,-13.3844170345709,0.));
#1745=CARTESIAN_POINT('',(8.07766939577252,-13.3844170345709,16.8023140983607));
#1746=CARTESIAN_POINT('',(8.07766939577252,-13.3844170345709,0.));
#1747=CARTESIAN_POINT('',(-10.7548975349377,-13.3805342103576,16.8023140983607));
#1748=CARTESIAN_POINT('Origin',(-28.5878768146296,13.1142565213646,15.4523140983607));
#1749=CARTESIAN_POINT('',(8.08859290469562,39.5978087103745,15.4523140983607));
#1750=CARTESIAN_POINT('',(-46.9179189277299,39.6091497355684,15.4523140983607));
#1751=CARTESIAN_POINT('',(8.0801941012533,-1.13886052474367,15.4523140983607));
#1752=CARTESIAN_POINT('Origin',(-65.253422873775,39.6129300773001,0.));
#1753=CARTESIAN_POINT('',(8.08859290469562,39.5978087103745,16.8023140983607));
#1754=CARTESIAN_POINT('',(-47.4149818367667,39.6092522180343,16.8023140983607));
#1755=CARTESIAN_POINT('',(8.08859290469562,39.5978087103745,0.));
#1756=CARTESIAN_POINT('Origin',(-65.253422873775,39.6129300773001,0.));
#1757=CARTESIAN_POINT('',(8.08859290469562,39.5978087103745,11.8023140983607));
#1758=CARTESIAN_POINT('',(-47.4176612091144,39.6092527704567,11.8023140983607));
#1759=CARTESIAN_POINT('',(8.08859290469562,39.5978087103745,0.));
#1760=CARTESIAN_POINT('Origin',(-65.253422873775,39.6129300773001,0.));
#1761=CARTESIAN_POINT('',(6.8385929369732,39.5980664304271,0.));
#1762=CARTESIAN_POINT('',(6.8385929369732,39.5980664304271,-0.250000000000001));
#1763=CARTESIAN_POINT('',(8.08859290469562,39.5978087103745,0.));
#1764=CARTESIAN_POINT('',(-46.9179189277299,39.6091497355684,0.));
#1765=CARTESIAN_POINT('',(8.08859290469562,39.5978087103745,0.));
#1766=CARTESIAN_POINT('Origin',(-65.2537321378396,38.1129301091815,0.));
#1767=CARTESIAN_POINT('',(6.83828367719086,38.0980664623077,0.999999999999998));
#1768=CARTESIAN_POINT('',(6.83828367719086,38.0980664623077,0.));
#1769=CARTESIAN_POINT('',(6.83828367719087,38.0980664623077,-0.250000000000001));
#1770=CARTESIAN_POINT('',(8.08828364063102,38.0978087422559,0.999999999999998));
#1771=CARTESIAN_POINT('',(-28.5827241672662,38.105369425702,0.999999999999998));
#1772=CARTESIAN_POINT('',(8.08828364063102,38.0978087422559,0.));
#1773=CARTESIAN_POINT('',(8.08828364063102,38.0978087422559,0.));
#1774=CARTESIAN_POINT('',(-67.2537321378396,38.1133424612764,0.));
#1775=CARTESIAN_POINT('Origin',(-28.5825696137171,38.855369409777,0.));
#1776=CARTESIAN_POINT('',(6.83578474337944,25.9775100509377,0.));
#1777=CARTESIAN_POINT('',(8.08900525678177,41.5978086678659,0.));
#1778=CARTESIAN_POINT('Origin',(8.07766939577252,-13.3844170345709,0.));
#1779=CARTESIAN_POINT('',(8.07766939577252,-13.3844170345709,11.8023140983607));
#1780=CARTESIAN_POINT('',(-10.7548952094731,-13.3805342108371,11.8023140983607));
#1781=CARTESIAN_POINT('',(8.07766939577252,-13.3844170345709,0.));
#1782=CARTESIAN_POINT('Origin',(9.08313113183524,13.106489664713,-6.));
#1783=CARTESIAN_POINT('',(8.07725704939609,-15.3844169920635,-6.));
#1784=CARTESIAN_POINT('',(8.08019410124251,-1.13886057708112,-6.));
#1785=CARTESIAN_POINT('',(8.08900525678177,41.5978086678659,-6.));
#1786=CARTESIAN_POINT('',(8.08586203174713,26.3522522741373,-6.));
#1787=CARTESIAN_POINT('',(10.0890052142744,41.5973963214895,-6.));
#1788=CARTESIAN_POINT('',(8.5890052461549,41.5977055812718,-6.));
#1789=CARTESIAN_POINT('',(10.0772570068887,-15.3848293384399,-6.));
#1790=CARTESIAN_POINT('',(10.086068162428,27.3518399065071,-6.));
#1791=CARTESIAN_POINT('',(8.07725704939609,-15.3844169920635,-6.));
#1792=CARTESIAN_POINT('Origin',(10.0890052142744,41.5973963214895,16.8023140983607));
#1793=CARTESIAN_POINT('',(8.08900525678177,41.5978086678659,16.8023140983607));
#1794=CARTESIAN_POINT('',(8.08900525678177,41.5978086678659,16.8023140983607));
#1795=CARTESIAN_POINT('',(8.08900525678177,41.5978086678659,18.8023140983607));
#1796=CARTESIAN_POINT('',(8.08900525678177,41.5978086678659,16.8023140983607));
#1797=CARTESIAN_POINT('',(10.0890052142744,41.5973963214895,18.8023140983607));
#1798=CARTESIAN_POINT('',(10.0890052142744,41.5973963214895,18.8023140983607));
#1799=CARTESIAN_POINT('',(10.0890052142744,41.5973963214895,16.8023140983607));
#1800=CARTESIAN_POINT('Origin',(-29.5873567266753,-12.8766512914591,11.8023140983607));
#1801=CARTESIAN_POINT('',(8.07828791533717,-10.3844170983319,11.8023140983607));
#1802=CARTESIAN_POINT('',(8.07828792961146,-10.3844170983349,11.8023140983607));
#1803=CARTESIAN_POINT('',(8.08900525678177,41.5978086678659,11.8023140983607));
#1804=CARTESIAN_POINT('Origin',(-67.253001382962,-10.3688855908547,16.8023140983607));
#1805=CARTESIAN_POINT('',(8.07828791533717,-10.3844170983319,16.8023140983607));
#1806=CARTESIAN_POINT('',(-47.9199236708675,-10.3728716084025,16.8023140983607));
#1807=CARTESIAN_POINT('',(8.07828791533717,-10.3844170983319,16.8023140983607));
#1808=CARTESIAN_POINT('Origin',(8.08900525678177,41.5978086678659,16.8023140983607));
#1809=CARTESIAN_POINT('',(-67.2530105216888,41.6133423868865,16.8023140983607));
#1810=CARTESIAN_POINT('',(-10.7435615954453,41.601691492063,16.8023140983607));
#1811=CARTESIAN_POINT('',(-67.2530105216888,41.6133423868865,18.8023140983607));
#1812=CARTESIAN_POINT('',(-67.2530105216888,41.6133423868865,16.8023140983607));
#1813=CARTESIAN_POINT('',(-67.2530105216888,41.6133423868865,18.8023140983607));
#1814=CARTESIAN_POINT('Origin',(-28.5820026537072,13.1142565242233,16.8023140983607));
#1815=CARTESIAN_POINT('',(8.08797439084069,36.5978087741344,16.8023140983607));
#1816=CARTESIAN_POINT('',(-10.2445924862878,36.6015885103128,16.8023140983607));
#1817=CARTESIAN_POINT('',(8.08019410137844,-1.13885991776711,16.8023140983607));
#1818=CARTESIAN_POINT('',(8.07725704939609,-15.3844169920635,16.8023140983607));
#1819=CARTESIAN_POINT('',(8.08019410137844,-1.13885991776711,16.8023140983607));
#1820=CARTESIAN_POINT('',(-67.2530005039378,-15.3688856973073,16.8023140983607));
#1821=CARTESIAN_POINT('',(-48.4204386608359,-15.3727685204716,16.8023140983607));
#1822=CARTESIAN_POINT('',(-67.2530005039378,-15.3688856973073,16.8023140983607));
#1823=CARTESIAN_POINT('',(8.08586203188306,26.3522529334513,16.8023140983607));
#1824=CARTESIAN_POINT('',(4.14631240346576,-5.98510606556288,16.8023140983607));
#1825=CARTESIAN_POINT('Origin',(3.39051096895465,-5.98510606556288,16.8023140983607));
#1826=CARTESIAN_POINT('',(-3.51330448203612,32.2175821030437,16.8023140983607));
#1827=CARTESIAN_POINT('Origin',(-6.23136649413196,32.2175821030437,16.8023140983607));
#1828=CARTESIAN_POINT('',(-34.3813444820361,32.2175821030437,16.8023140983607));
#1829=CARTESIAN_POINT('Origin',(-37.0994064941319,32.2175821030437,16.8023140983607));
#1830=CARTESIAN_POINT('',(-13.4801460294659,32.2175821030437,16.8023140983607));
#1831=CARTESIAN_POINT('Origin',(-16.1982080415617,32.2175821030437,16.8023140983607));
#1832=CARTESIAN_POINT('Origin',(-67.2530105216888,41.6133423868865,16.8023140983607));
#1833=CARTESIAN_POINT('',(-67.2530005039378,-15.3688856973073,18.8023140983607));
#1834=CARTESIAN_POINT('',(-67.2530005039378,-15.3688856973073,16.8023140983607));
#1835=CARTESIAN_POINT('',(-67.2530005039378,-15.3688856973073,18.8023140983607));
#1836=CARTESIAN_POINT('Origin',(8.07725704939609,-15.3844169920635,0.999999999999998));
#1837=CARTESIAN_POINT('',(6.83900528334889,41.5980663843512,0.999999999999998));
#1838=CARTESIAN_POINT('',(8.07725704939609,-15.3844169920635,0.999999999999999));
#1839=CARTESIAN_POINT('Origin',(6.83313117965601,13.1069535543865,-0.500000000000003));
#1840=CARTESIAN_POINT('',(6.83019412780957,-1.13860286059585,-2.));
#1841=CARTESIAN_POINT('Origin',(8.07725704939609,-15.3844169920634,16.8023140983607));
#1842=CARTESIAN_POINT('',(8.07725704939609,-15.3844169920635,8.40115704918033));
#1843=CARTESIAN_POINT('',(8.08797439084069,36.5978087741344,11.8023140983607));
#1844=CARTESIAN_POINT('',(8.08797439084069,36.5978087741344,16.8023140983607));
#1845=CARTESIAN_POINT('',(8.08900525678177,41.5978086678659,11.8023140983607));
#1846=CARTESIAN_POINT('Origin',(8.07725704939609,-15.3844169920635,-2.));
#1847=CARTESIAN_POINT('Origin',(-16.1982080415617,32.2175821030437,18.8023140983607));
#1848=CARTESIAN_POINT('',(-13.4801460294659,32.2175821030437,18.8023140983607));
#1849=CARTESIAN_POINT('Origin',(-16.1982080415617,32.2175821030437,18.8023140983607));
#1850=CARTESIAN_POINT('',(-13.4801460294659,32.2175821030437,18.8023140983607));
#1851=CARTESIAN_POINT('Origin',(-37.0994064941319,32.2175821030437,18.8023140983607));
#1852=CARTESIAN_POINT('',(-34.3813444820361,32.2175821030437,18.8023140983607));
#1853=CARTESIAN_POINT('Origin',(-37.0994064941319,32.2175821030437,18.8023140983607));
#1854=CARTESIAN_POINT('',(-34.3813444820361,32.2175821030437,18.8023140983607));
#1855=CARTESIAN_POINT('Origin',(-6.23136649413196,32.2175821030437,18.8023140983607));
#1856=CARTESIAN_POINT('',(-3.51330448203612,32.2175821030437,18.8023140983607));
#1857=CARTESIAN_POINT('Origin',(-6.23136649413196,32.2175821030437,18.8023140983607));
#1858=CARTESIAN_POINT('',(-3.51330448203612,32.2175821030437,18.8023140983607));
#1859=CARTESIAN_POINT('Origin',(3.39051096895465,-5.98510606556288,18.8023140983607));
#1860=CARTESIAN_POINT('',(4.14631240346576,-5.98510606556288,18.8023140983607));
#1861=CARTESIAN_POINT('Origin',(3.39051096895465,-5.98510606556288,18.8023140983607));
#1862=CARTESIAN_POINT('',(4.14631240346576,-5.98510606556288,18.8023140983607));
#1863=CARTESIAN_POINT('Origin',(8.0879743765664,36.5978087741373,16.8023140983607));
#1864=CARTESIAN_POINT('',(-67.2540414019042,36.6133424931579,11.8023140983607));
#1865=CARTESIAN_POINT('Origin',(-29.5820026324535,39.1055755805104,11.8023140983607));
#1866=CARTESIAN_POINT('Origin',(10.0772570068887,-15.3848293384399,16.8023140983607));
#1867=CARTESIAN_POINT('',(10.0772570068887,-15.3848293384399,18.8023140983607));
#1868=CARTESIAN_POINT('',(10.0890052142744,41.5973963214895,18.8023140983607));
#1869=CARTESIAN_POINT('',(10.0772570068887,-15.3848293384399,16.8023140983607));
#1870=CARTESIAN_POINT('Origin',(8.07725704939609,-15.3844169920635,16.8023140983607));
#1871=CARTESIAN_POINT('',(8.07725704939609,-15.3844169920635,18.8023140983607));
#1872=CARTESIAN_POINT('',(10.0772570068887,-15.3848293384399,18.8023140983607));
#1873=CARTESIAN_POINT('',(8.07725704939609,-15.3844169920635,16.8023140983607));
#1874=CARTESIAN_POINT('Origin',(-67.2530005039378,-15.3688856973073,16.8023140983607));
#1875=CARTESIAN_POINT('',(8.07725704939609,-15.3844169920635,18.8023140983607));
#1876=CARTESIAN_POINT('Origin',(-28.5820026537072,13.1142565242233,18.8023140983607));
#1877=UNCERTAINTY_MEASURE_WITH_UNIT(LENGTH_MEASURE(0.01),#1881,
'DISTANCE_ACCURACY_VALUE',
'Maximum model space distance between geometric entities at asserted c
onnectivities');
#1878=UNCERTAINTY_MEASURE_WITH_UNIT(LENGTH_MEASURE(0.01),#1881,
'DISTANCE_ACCURACY_VALUE',
'Maximum model space distance between geometric entities at asserted c
onnectivities');
#1879=(
GEOMETRIC_REPRESENTATION_CONTEXT(3)
GLOBAL_UNCERTAINTY_ASSIGNED_CONTEXT((#1877))
GLOBAL_UNIT_ASSIGNED_CONTEXT((#1881,#1883,#1884))
REPRESENTATION_CONTEXT('','3D')
);
#1880=(
GEOMETRIC_REPRESENTATION_CONTEXT(3)
GLOBAL_UNCERTAINTY_ASSIGNED_CONTEXT((#1878))
GLOBAL_UNIT_ASSIGNED_CONTEXT((#1881,#1883,#1884))
REPRESENTATION_CONTEXT('','3D')
);
#1881=(
LENGTH_UNIT()
NAMED_UNIT(*)
SI_UNIT(.MILLI.,.METRE.)
);
#1882=(
LENGTH_UNIT()
NAMED_UNIT(*)
SI_UNIT($,.METRE.)
);
#1883=(
NAMED_UNIT(*)
PLANE_ANGLE_UNIT()
SI_UNIT($,.RADIAN.)
);
#1884=(
NAMED_UNIT(*)
SI_UNIT($,.STERADIAN.)
SOLID_ANGLE_UNIT()
);
#1885=SHAPE_DEFINITION_REPRESENTATION(#1886,#1887);
#1886=PRODUCT_DEFINITION_SHAPE('',$,#1889);
#1887=SHAPE_REPRESENTATION('',(#1164),#1879);
#1888=PRODUCT_DEFINITION_CONTEXT('part definition',#1893,'design');
#1889=PRODUCT_DEFINITION('Lid','Lid',#1890,#1888);
#1890=PRODUCT_DEFINITION_FORMATION('',$,#1895);
#1891=PRODUCT_RELATED_PRODUCT_CATEGORY('Lid','Lid',(#1895));
#1892=APPLICATION_PROTOCOL_DEFINITION('international standard',
'automotive_design',2009,#1893);
#1893=APPLICATION_CONTEXT(
'Core Data for Automotive Mechanical Design Process');
#1894=PRODUCT_CONTEXT('part definition',#1893,'mechanical');
#1895=PRODUCT('Lid','Lid',$,(#1894));
#1896=PRESENTATION_STYLE_ASSIGNMENT((#1897));
#1897=SURFACE_STYLE_USAGE(.BOTH.,#1898);
#1898=SURFACE_SIDE_STYLE('',(#1899));
#1899=SURFACE_STYLE_FILL_AREA(#1900);
#1900=FILL_AREA_STYLE('Steel - Satin',(#1901));
#1901=FILL_AREA_STYLE_COLOUR('Steel - Satin',#1902);
#1902=COLOUR_RGB('Steel - Satin',0.627450980392157,0.627450980392157,0.627450980392157);
ENDSEC;
END-ISO-10303-21;
